<?xml version="1.0" standalone="no"?>
<!DOCTYPE svg PUBLIC "-//W3C//DTD SVG 1.1//EN" "http://www.w3.org/Graphics/SVG/1.1/DTD/svg11.dtd" >
<svg xmlns="http://www.w3.org/2000/svg" xmlns:xlink="http://www.w3.org/1999/xlink" version="1.1">
<metadata>
Created by FontForge 20161003 at Thu May 16 11:08:01 2019
 By www-data
Copyright 2016 Dalton Maag Ltd. Modification of this file requires prior written permission from Dalton Maag Ltd.
</metadata>
<defs>
<font id="Effra_He" horiz-adv-x="561" >
  <font-face 
    font-family="Effra_He"
    font-weight="900"
    font-stretch="normal"
    units-per-em="1000"
    panose-1="2 11 8 3 2 2 3 2 2 4"
    ascent="667"
    descent="-333"
    x-height="470"
    cap-height="667"
    bbox="-179 -686 1250 1224"
    underline-thickness="51"
    underline-position="-170"
    unicode-range="U+0008-FEFF"
  />
<missing-glyph horiz-adv-x="364" 
d="M33 0v666h265v-666h-265zM66 33h199v600h-199v-600z" />
    <glyph glyph-name="uniFCCC" unicode="&#xfedf;&#xfee4;" horiz-adv-x="337" arabic-form="initial" 
d="M143 -15q-14 8 -25 11.5t-25 3.5h-93l-16 10v149l16 10h94q-3 15 -4.5 34.5t-2.5 41t-1.5 43t-0.5 40.5l-5 322l144 26l-7 -452q0 -23 4 -39t14.5 -28.5t28 -23.5t43.5 -23l40 -19l-96 -163z" />
    <glyph glyph-name="uniFDF2" unicode="&#x627;&#xfedf;&#xfee0;&#xfeea;" horiz-adv-x="1231" arabic-form="isolated" 
d="M1049 0l-10 650l144 26l-10 -676h-124zM799 568l144 26l-6 -377q-2 -103 -48.5 -160t-137.5 -57q-79 0 -130 57q-23 -26 -57 -41.5t-84 -15.5q-60 0 -108 28.5t-63 84.5q-23 -16 -51 -25t-56 -9q-39 0 -71 12.5t-55 36t-35.5 56t-12.5 71.5q0 88 67 150.5t199 95.5l-1 69
l132 24l-5 -352q-1 -42 13.5 -57.5t55.5 -15.5q28 0 42.5 7.5t14.5 18.5l-6 373l144 26l-6 -406q4 -6 13 -9.5t18.5 -5.5t19.5 -3t16 -1q28 0 44 9t16 20zM235 238q17 0 34 2.5t31 8.5l-2 104q-30 -1 -57 -6.5t-47.5 -14.5t-32.5 -21.5t-12 -25.5q0 -23 24.5 -35t61.5 -12z
M661 649q-35 0 -50 20q-21 -25 -56 -25t-53 21t-18 59q0 55 38 98l34 -19q-23 -31 -23 -64q0 -34 25 -34q23 0 26 23l9 71l46 -5l-6 -61q-2 -22 28 -22q31 0 31 28q0 15 -9 35.5t-23 40.5l46 27q15 -18 24 -45t9 -56q0 -43 -21 -67.5t-57 -24.5zM590 872q0 52 -2.5 95
t-7.5 78l60 11q3 -33 3 -66q0 -62 -10 -118h-43z" />
    <glyph glyph-name="uniFEF5" unicode="&#xfedf;&#xfe82;" horiz-adv-x="499" arabic-form="isolated" 
d="M33 151q49 42 94.5 89t77.5 86q-38 36 -95 84t-130 102l98 119q21 -18 45.5 -41t51 -48.5t52 -51.5t48.5 -50q21 52 29.5 104t9.5 106l144 26q-1 -90 -25 -173t-69 -157q24 -29 43.5 -54t32.5 -49t20 -49t7 -52q0 -44 -18 -73t-47.5 -46.5t-67.5 -25t-78 -7.5
q-22 0 -50.5 3t-56.5 7.5t-53 10.5t-40 12zM346 164q0 9 -15.5 32t-39.5 48q-20 -24 -43.5 -50t-47.5 -50q19 -2 36.5 -3.5t30.5 -1.5q45 0 62 7.5t17 17.5zM220 781q-16 -46 -40 -71.5t-57 -25.5q-21 0 -55 15q-24 11 -36.5 14.5t-22.5 3.5q-29 0 -55 -41l-38 22
q16 46 40 71.5t57 25.5q20 0 55 -15q24 -11 36.5 -14.5t22.5 -3.5q29 0 55 41z" />
    <glyph glyph-name="uniFEF6" unicode="&#xfee0;&#xfe82;" horiz-adv-x="536" arabic-form="final" 
d="M536 0q-54 0 -90 14.5t-61 43.5q-19 -18 -45.5 -31t-56.5 -21t-62 -12t-62 -4q-35 0 -56.5 2.5t-46.5 7.5l-35 170q21 -4 58 -7t77 -4q-11 36 -24.5 78.5t-29 86t-32 86.5t-32.5 80l127 72q15 -36 29 -82t27 -97.5t24.5 -107.5t22.5 -112q21 4 32.5 12t11.5 23l-7 452
l144 26l-7 -477q17 -17 37.5 -23.5t56.5 -6.5l16 -10v-149zM242 702q-16 -46 -40 -71.5t-57 -25.5q-21 0 -55 15q-24 11 -36.5 14.5t-22.5 3.5q-29 0 -55 -41l-38 22q16 46 40 71.5t57 25.5q20 0 55 -15q24 -11 36.5 -14.5t22.5 -3.5q29 0 55 41z" />
    <glyph glyph-name="uniFEF7" unicode="&#xfedf;&#xfe84;" horiz-adv-x="502" arabic-form="isolated" 
d="M36 151q49 42 94.5 89t77.5 86q-38 36 -95 84t-130 102l98 119q21 -18 45.5 -41t51 -48.5t52 -51.5t48.5 -50q21 52 29.5 104t9.5 106l144 26q-1 -90 -25 -173t-69 -157q24 -29 43.5 -54t32.5 -49t20 -49t7 -52q0 -44 -18 -73t-47.5 -46.5t-67.5 -25t-78 -7.5
q-22 0 -50.5 3t-56.5 7.5t-53 10.5t-40 12zM349 164q0 9 -15.5 32t-39.5 48q-20 -24 -43.5 -50t-47.5 -50q19 -2 36.5 -3.5t30.5 -1.5q45 0 62 7.5t17 17.5zM160 705q-44 -3 -83 -9t-81 -18l-23 51q24 10 48 18q-14 11 -21.5 25t-7.5 32t6.5 34t18 28t27 19t32.5 7
q23 0 41 -11t29 -31l-27 -39q-16 11 -36 11q-17 0 -27 -6.5t-10 -16.5q0 -26 64 -30q15 3 30 4.5t30 2.5z" />
    <glyph glyph-name="uniFEF8" unicode="&#xfee0;&#xfe84;" horiz-adv-x="536" arabic-form="final" 
d="M536 0q-54 0 -90 14.5t-61 43.5q-19 -18 -45.5 -31t-56.5 -21t-62 -12t-62 -4q-35 0 -56.5 2.5t-46.5 7.5l-35 170q21 -4 58 -7t77 -4q-11 36 -24.5 78.5t-29 86t-32 86.5t-32.5 80l127 72q15 -36 29 -82t27 -97.5t24.5 -107.5t22.5 -112q21 4 32.5 12t11.5 23l-7 452
l144 26l-7 -477q17 -17 37.5 -23.5t56.5 -6.5l16 -10v-149zM179 626q-44 -3 -83 -9t-81 -18l-23 51q24 10 48 18q-14 11 -21.5 25t-7.5 32t6.5 34t18 28t27 19t32.5 7q23 0 41 -11t29 -31l-27 -39q-16 11 -36 11q-17 0 -27 -6.5t-10 -16.5q0 -26 64 -30q15 3 30 4.5t30 2.5z
" />
    <glyph glyph-name="uniFEF9" unicode="&#xfedf;&#xfe88;" horiz-adv-x="499" arabic-form="isolated" 
d="M33 151q49 42 94.5 89t77.5 86q-38 36 -95 84t-130 102l98 119q21 -18 45.5 -41t51 -48.5t52 -51.5t48.5 -50q21 52 29.5 104t9.5 106l144 26q-1 -90 -25 -173t-69 -157q24 -29 43.5 -54t32.5 -49t20 -49t7 -52q0 -44 -18 -73t-47.5 -46.5t-67.5 -25t-78 -7.5
q-22 0 -50.5 3t-56.5 7.5t-53 10.5t-40 12zM346 164q0 9 -15.5 32t-39.5 48q-20 -24 -43.5 -50t-47.5 -50q19 -2 36.5 -3.5t30.5 -1.5q45 0 62 7.5t17 17.5zM191 -240q-44 -3 -83 -9t-81 -18l-23 51q12 5 24 9.5t24 9.5q-14 11 -21.5 25t-7.5 31q0 18 6.5 34t18 28t27 19
t32.5 7q23 0 41 -11t29 -31l-27 -39q-16 11 -36 11q-17 0 -27 -6.5t-10 -16.5q0 -26 64 -29q30 4 60 6z" />
    <glyph glyph-name="uniFEFA" unicode="&#xfee0;&#xfe88;" horiz-adv-x="536" arabic-form="final" 
d="M536 0q-54 0 -90 14.5t-61 43.5q-19 -18 -45.5 -31t-56.5 -21t-62 -12t-62 -4q-35 0 -56.5 2.5t-46.5 7.5l-35 170q21 -4 58 -7t77 -4q-11 36 -24.5 78.5t-29 86t-32 86.5t-32.5 80l127 72q15 -36 29 -82t27 -97.5t24.5 -107.5t22.5 -112q21 4 32.5 12t11.5 23l-7 452
l144 26l-7 -477q17 -17 37.5 -23.5t56.5 -6.5l16 -10v-149zM325 -240q-44 -3 -83 -9t-81 -18l-23 51q12 5 24 9.5t24 9.5q-14 11 -21.5 25t-7.5 31q0 18 6.5 34t18 28t27 19t32.5 7q23 0 41 -11t29 -31l-27 -39q-16 11 -36 11q-17 0 -27 -6.5t-10 -16.5q0 -26 64 -29
q30 4 60 6z" />
    <glyph glyph-name="uniFEFB" unicode="&#xfedf;&#xfe8e;" horiz-adv-x="499" arabic-form="isolated" 
d="M33 151q49 42 94.5 89t77.5 86q-38 36 -95 84t-130 102l98 119q21 -18 45.5 -41t51 -48.5t52 -51.5t48.5 -50q21 52 29.5 104t9.5 106l144 26q-1 -90 -25 -173t-69 -157q24 -29 43.5 -54t32.5 -49t20 -49t7 -52q0 -44 -18 -73t-47.5 -46.5t-67.5 -25t-78 -7.5
q-22 0 -50.5 3t-56.5 7.5t-53 10.5t-40 12zM346 164q0 9 -15.5 32t-39.5 48q-20 -24 -43.5 -50t-47.5 -50q19 -2 36.5 -3.5t30.5 -1.5q45 0 62 7.5t17 17.5z" />
    <glyph glyph-name="uniFEFC" unicode="&#xfee0;&#xfe8e;" horiz-adv-x="536" arabic-form="final" 
d="M536 0q-54 0 -90 14.5t-61 43.5q-19 -18 -45.5 -31t-56.5 -21t-62 -12t-62 -4q-35 0 -56.5 2.5t-46.5 7.5l-35 170q21 -4 58 -7t77 -4q-11 36 -24.5 78.5t-29 86t-32 86.5t-32.5 80l127 72q15 -36 29 -82t27 -97.5t24.5 -107.5t22.5 -112q21 4 32.5 12t11.5 23l-7 452
l144 26l-7 -477q17 -17 37.5 -23.5t56.5 -6.5l16 -10v-149z" />
    <glyph glyph-name="f_f" unicode="ff" horiz-adv-x="683" 
d="M87 340h-72v130h72v6q0 48 13 85t37 64q54 60 156 60q31 0 61 -8.5t54 -25.5l-54 -114q-26 15 -47 15q-7 0 -16 -2.5t-16.5 -9t-13 -18.5t-5.5 -30v-22h142v18q0 48 16 84.5t44 61.5t66.5 38t84.5 13q44 0 82.5 -12.5t67.5 -35.5l-70 -109q-14 10 -30.5 16t-34.5 6
q-26 0 -41.5 -16t-15.5 -43v-21h102v-130h-102v-340h-169v340h-142v-340h-169v340z" />
    <glyph glyph-name="f_i" unicode="fi" horiz-adv-x="605" 
d="M87 340h-72v130h72v6q0 42 13.5 76t32.5 57q34 41 88 58.5t114 17.5q57 0 110.5 -13t91.5 -36l-61 -113q-32 14 -64.5 23.5t-67.5 9.5q-18 0 -34 -3.5t-28 -12t-19 -22.5t-7 -35v-13h297v-470h-169v340h-128v-340h-169v340z" />
    <glyph glyph-name="f_l" unicode="fl" horiz-adv-x="602" 
d="M87 340h-72v130h72v9q0 57 20.5 96.5t55.5 64t81 35t97 10.5q54 0 110 -12.5t102 -41.5v-631h-169v547q-11 5 -25 6.5t-26 1.5q-35 0 -56 -17t-21 -53v-15h79v-130h-79v-340h-169v340z" />
    <glyph glyph-name="f_f_i" unicode="ffi" horiz-adv-x="916" 
d="M87 340h-72v130h72v6q0 104 60 159q26 24 62.5 37t83.5 13q31 0 61 -8.5t54 -25.5l-54 -114q-26 15 -47 15q-7 0 -16 -2.5t-17 -9t-13.5 -18.5t-5.5 -30v-22h143v6q0 42 13.5 76t32.5 57q34 41 88 58.5t114 17.5q57 0 110.5 -13t91.5 -36l-61 -113q-32 14 -64.5 23.5
t-67.5 9.5q-18 0 -34 -3.5t-28 -12t-19 -22.5t-7 -35v-13h297v-470h-169v340h-128v-340h-169v340h-141v-340h-170v340z" />
    <glyph glyph-name="f_f_l" unicode="ffl" horiz-adv-x="913" 
d="M87 340h-72v130h72v6q0 104 60 159q26 24 62.5 37t83.5 13q31 0 61 -8.5t54 -25.5l-54 -114q-26 15 -47 15q-7 0 -16 -2.5t-17 -9t-13.5 -18.5t-5.5 -30v-22h143v9q0 57 20.5 96.5t55.5 64t81 35t97 10.5q54 0 110 -12.5t102 -41.5v-631h-169v547q-11 5 -25 6.5t-26 1.5
q-35 0 -56 -17t-21 -53v-15h79v-130h-79v-340h-169v340h-141v-340h-170v340z" />
    <glyph glyph-name="uniFEDF_uniFEE2.rlig" unicode="&#xfedf;&#xfee2;" horiz-adv-x="458" 
d="M40 -380l-9 449q-1 46 29 73t81 27h74q-3 15 -4.5 34.5t-2.5 41t-1.5 43t-0.5 40.5l-5 322l144 26l-7 -452q0 -23 4 -39t14.5 -28.5t28 -23.5t43.5 -23l40 -19l-96 -163l-108 57q-14 8 -25 11.5t-25 3.5h-26q-21 0 -21 -18l-3 -362h-124z" />
    <glyph glyph-name="uniFEDF_uniFEE0_uniFEEA.rlig" unicode="&#xfedf;&#xfee0;&#xfeea;" horiz-adv-x="987" 
d="M799 568l144 26l-6 -377q-2 -103 -48.5 -160t-137.5 -57q-79 0 -130 57q-23 -26 -57 -41.5t-84 -15.5q-60 0 -108 28.5t-63 84.5q-23 -16 -51 -25t-56 -9q-39 0 -71 12.5t-55 36t-35.5 56t-12.5 71.5q0 88 67 150.5t199 95.5l-1 69l132 24l-5 -352q-1 -42 13.5 -57.5
t55.5 -15.5q28 0 42.5 7.5t14.5 18.5l-6 373l144 26l-6 -406q4 -6 13 -9.5t18.5 -5.5t19.5 -3t16 -1q28 0 44 9t16 20zM235 238q17 0 34 2.5t31 8.5l-2 104q-30 -1 -57 -6.5t-47.5 -14.5t-32.5 -21.5t-12 -25.5q0 -23 24.5 -35t61.5 -12z" />
    <glyph glyph-name="uniFEE0_uniFB51.rlig" unicode="&#xfee0;&#xfb51;" horiz-adv-x="536" 
d="M536 0q-54 0 -90 14.5t-61 43.5q-19 -18 -45.5 -31t-56.5 -21t-62 -12t-62 -4q-35 0 -56.5 2.5t-46.5 7.5l-35 170q21 -4 58 -7t77 -4q-11 36 -24.5 78.5t-29 86t-32 86.5t-32.5 80l127 72q15 -36 29 -82t27 -97.5t24.5 -107.5t22.5 -112q21 4 32.5 12t11.5 23l-7 452
l144 26l-7 -477q17 -17 37.5 -23.5t56.5 -6.5l16 -10v-149zM-35 675q30 -4 59 -6q47 124 116 124q35 0 56 -28t21 -71t-32.5 -66.5t-93.5 -23.5q-34 0 -60 1t-50 4zM138 726q-36 0 -65 -59h19q76 0 76 30q0 11 -8.5 20t-21.5 9z" />
    <glyph glyph-name="uniFEDF_uniFB51.rlig" unicode="&#xfedf;&#xfb51;" horiz-adv-x="499" 
d="M33 151q49 42 94.5 89t77.5 86q-38 36 -95 84t-130 102l98 119q21 -18 45.5 -41t51 -48.5t52 -51.5t48.5 -50q21 52 29.5 104t9.5 106l144 26q-1 -90 -25 -173t-69 -157q24 -29 43.5 -54t32.5 -49t20 -49t7 -52q0 -44 -18 -73t-47.5 -46.5t-67.5 -25t-78 -7.5
q-22 0 -50.5 3t-56.5 7.5t-53 10.5t-40 12zM346 164q0 9 -15.5 32t-39.5 48q-20 -24 -43.5 -50t-47.5 -50q19 -2 36.5 -3.5t30.5 -1.5q45 0 62 7.5t17 17.5zM-57 754q30 -4 59 -6q47 124 116 124q35 0 56 -28t21 -71t-32.5 -66.5t-93.5 -23.5q-34 0 -60 1t-50 4zM116 805
q-36 0 -65 -59h19q76 0 76 30q0 11 -8.5 20t-21.5 9z" />
    <glyph glyph-name="xx.aQafdotless.init" unicode="&#x6a1;" horiz-adv-x="439" 
d="M283 252q-41 -33 -98 -33q-73 0 -114.5 45t-41.5 125q0 47 14 86.5t38 68t55.5 44.5t67.5 16q94 0 143.5 -91t49.5 -261q0 -50 -6.5 -87.5t-20.5 -64.5t-35.5 -45.5t-52.5 -30.5q-41 -16 -99 -20t-146 -4h-37l-16 10v149l16 10h37q55 0 100.5 0.5t78 2.5t50 7.5
t17.5 14.5v58zM200 347q23 0 43 5t34 16q-17 89 -77 89q-30 0 -48.5 -17t-18.5 -44q0 -21 17 -35t50 -14z" />
    <glyph glyph-name="xx.aQafdotless.medi" unicode="&#x6a1;" horiz-adv-x="446" 
d="M446 0q-70 0 -127.5 12.5t-95.5 30.5q-38 -18 -96 -30.5t-127 -12.5l-16 10v149l16 10h31t29 1q-19 39 -19 92q0 46 15 85t40.5 67.5t58.5 45t68 16.5t68 -16.5t58.5 -45t40.5 -67.5t15 -85q0 -53 -19 -92q14 -1 28.5 -1h31.5l16 -10v-149zM155 255q0 -23 15 -39.5
t53 -27.5q37 11 52.5 27.5t15.5 39.5q0 27 -19 44.5t-49 17.5t-49 -17.5t-19 -44.5z" />
    <glyph glyph-name="uni06A1.fina" unicode="&#x6a1;" horiz-adv-x="837" 
d="M837 0q-69 0 -127 12.5t-96 29.5q-39 -20 -95.5 -36t-122.5 -16q-188 0 -275 53t-87 166q0 54 20 113t55 110l91 -44q-12 -27 -20.5 -59t-8.5 -56q0 -60 53 -86t172 -26h30.5t28.5 1q-23 42 -23 101q0 45 15 84t40.5 67.5t58.5 45t68 16.5t68 -16.5t58.5 -45t40.5 -67.5
t15 -85q0 -53 -19 -92q14 -1 28.5 -1h31.5l16 -10v-149zM546 255q0 -23 16 -40t56 -28q64 25 64 68q0 27 -19 44.5t-49 17.5t-49 -17.5t-19 -44.5z" />
    <glyph glyph-name="uni06C2.fina" unicode="&#x6c2;" horiz-adv-x="584" 
d="M584 0q-40 0 -71.5 6.5t-57 23t-46.5 43.5t-40 69q-16 33 -26.5 43.5t-29.5 10.5q-21 0 -48.5 -8t-57.5 -23t-62 -35.5t-63 -45.5l-62 107q26 34 64.5 65t81 55t85.5 38t77 14q45 0 77 -25.5t56 -81.5q13 -29 24.5 -46t25.5 -26t31.5 -12t41.5 -3l16 -10v-149zM353 438
q-44 -3 -83 -9t-81 -18l-23 51q24 10 48 18q-14 11 -21.5 25t-7.5 32t6.5 34t18 28t27 19t32.5 7q23 0 41 -11t29 -31l-27 -39q-16 11 -36 11q-17 0 -27 -6.5t-10 -16.5q0 -26 64 -30q15 3 30 4.5t30 2.5z" />
    <glyph glyph-name="uni06C3.fina" unicode="&#x6c3;" horiz-adv-x="584" 
d="M584 0q-40 0 -71.5 6.5t-57 23t-46.5 43.5t-40 69q-16 33 -26.5 43.5t-29.5 10.5q-21 0 -48.5 -8t-57.5 -23t-62 -35.5t-63 -45.5l-62 107q26 34 64.5 65t81 55t85.5 38t77 14q45 0 77 -25.5t56 -81.5q13 -29 24.5 -46t25.5 -26t31.5 -12t41.5 -3l16 -10v-149zM333 409
l-69 68l-69 -68l-99 98l99 98l69 -69l69 69l99 -98z" />
    <glyph glyph-name="uni06D5.fina" unicode="&#x6d5;" horiz-adv-x="497" 
d="M497 0q-75 0 -124.5 28.5t-64.5 84.5q-23 -16 -50.5 -25t-55.5 -9q-39 0 -71 12.5t-55 36t-35.5 56t-12.5 71.5q0 88 67 150.5t199 95.5l-1 69l132 24l-6 -358q-1 -34 17 -50.5t61 -16.5l16 -10v-149zM235 238q17 0 34 2.5t31 8.5l-2 104q-30 -1 -57 -6.5t-47.5 -14.5
t-32.5 -21.5t-12 -25.5q0 -23 24.5 -35t61.5 -12z" />
    <glyph glyph-name="uniFB50" unicode="&#x671;" horiz-adv-x="240" arabic-form="isolated" 
d="M58 0l-10 650l144 26l-10 -676h-124zM-5 799q30 -4 59 -6q47 124 116 124q35 0 56 -28t21 -71t-32.5 -66.5t-93.5 -23.5q-34 0 -60 1t-50 4zM168 850q-36 0 -65 -59h19q76 0 76 30q0 11 -8.5 20t-21.5 9z" />
    <glyph glyph-name="uniFB51" unicode="&#x671;" horiz-adv-x="260" arabic-form="final" 
d="M260 0q-93 0 -149.5 41.5t-58.5 113.5l-8 495l144 26l-6 -440q-1 -34 17 -50.5t61 -16.5l16 -10v-149zM-9 799q30 -4 59 -6q47 124 116 124q35 0 56 -28t21 -71t-32.5 -66.5t-93.5 -23.5q-34 0 -60 1t-50 4zM164 850q-36 0 -65 -59h19q76 0 76 30q0 11 -8.5 20t-21.5 9z
" />
    <glyph glyph-name="uniFB56" unicode="&#x67e;" horiz-adv-x="796" arabic-form="isolated" 
d="M692 470q15 -24 27 -53.5t20.5 -61.5t13.5 -65t5 -64q0 -66 -18.5 -111t-61.5 -72.5t-112 -40t-170 -12.5q-188 0 -275 53t-87 166q0 54 20 113t55 110l91 -44q-12 -27 -20.5 -59t-8.5 -56q0 -60 53 -86t172 -26q111 0 174.5 13t63.5 37q0 15 -5.5 36.5t-15.5 46.5
t-23.5 51.5t-28.5 51.5zM465 -241l-69 69l-69 -69l-99 98l99 98l69 -68l69 68l99 -98zM396 -417l-99 98l99 98l99 -98z" />
    <glyph glyph-name="uniFB57" unicode="&#x67e;" horiz-adv-x="867" arabic-form="final" 
d="M867 0q-61 0 -99 19t-64 55q-20 -20 -47.5 -36t-64.5 -26.5t-85 -16t-111 -5.5q-188 0 -275 53t-87 166q0 54 20 113t55 110l91 -44q-12 -27 -20.5 -59t-8.5 -56q0 -60 53 -86t172 -26q63 0 107 3t72.5 10.5t43.5 19.5t18 30q2 10 4.5 24t5 29.5t4.5 31t4 27.5l123 -16
q-2 -17 -4.5 -35.5t-4.5 -34.5t-3 -27.5t-1 -15.5q0 -19 22.5 -28.5t79.5 -9.5l16 -10v-149zM465 -241l-69 69l-69 -69l-99 98l99 98l69 -68l69 68l99 -98zM396 -417l-99 98l99 98l99 -98z" />
    <glyph glyph-name="uniFB58" unicode="&#x67e;" horiz-adv-x="290" arabic-form="initial" 
d="M-16 10v149l16 10q59 0 93.5 12.5t34.5 29.5q0 15 -5.5 36.5t-15.5 46.5t-23.5 51.5t-28.5 51.5l131 73q15 -24 27 -53.5t20.5 -61.5t13.5 -65t5 -64q0 -115 -61.5 -170.5t-190.5 -55.5zM209 -241l-69 69l-69 -69l-99 98l99 98l69 -68l69 68l99 -98zM140 -417l-99 98
l99 98l99 -98z" />
    <glyph glyph-name="uniFB59" unicode="&#x67e;" horiz-adv-x="333" arabic-form="medial" 
d="M333 0q-60 0 -97.5 17.5t-63.5 52.5q-24 -31 -66.5 -50.5t-105.5 -19.5l-16 10v149l16 10q29 0 48 4.5t30.5 11t16.5 15t7 16.5q3 16 6 34t5.5 34t4.5 29.5t3 22.5l123 -16q-2 -17 -4.5 -35.5t-4.5 -34.5t-3 -27.5t-1 -15.5q0 -19 22.5 -28.5t79.5 -9.5l16 -10v-149z
M234 -241l-69 69l-69 -69l-99 98l99 98l69 -68l69 68l99 -98zM165 -417l-99 98l99 98l99 -98z" />
    <glyph glyph-name="uniFB66" unicode="&#x679;" horiz-adv-x="796" arabic-form="isolated" 
d="M692 470q15 -24 27 -53.5t20.5 -61.5t13.5 -65t5 -64q0 -66 -18.5 -111t-61.5 -72.5t-112 -40t-170 -12.5q-188 0 -275 53t-87 166q0 54 20 113t55 110l91 -44q-12 -27 -20.5 -59t-8.5 -56q0 -60 53 -86t172 -26q111 0 174.5 13t63.5 37q0 15 -5.5 36.5t-15.5 46.5
t-23.5 51.5t-28.5 51.5zM273 538q31 -4 62 -6l-7 204l57 11l-4 -152q14 28 30 44.5t37 16.5q35 0 56 -28t21 -71t-32.5 -66.5t-93.5 -23.5q-34 0 -60 1t-50 4zM446 589q-36 0 -65 -59h19q76 0 76 30q0 11 -8.5 20t-21.5 9z" />
    <glyph glyph-name="uniFB67" unicode="&#x679;" horiz-adv-x="867" arabic-form="final" 
d="M867 0q-61 0 -99 19t-64 55q-20 -20 -47.5 -36t-64.5 -26.5t-85 -16t-111 -5.5q-188 0 -275 53t-87 166q0 54 20 113t55 110l91 -44q-12 -27 -20.5 -59t-8.5 -56q0 -60 53 -86t172 -26q63 0 107 3t72.5 10.5t43.5 19.5t18 30q2 10 4.5 24t5 29.5t4.5 31t4 27.5l123 -16
q-2 -17 -4.5 -35.5t-4.5 -34.5t-3 -27.5t-1 -15.5q0 -19 22.5 -28.5t79.5 -9.5l16 -10v-149zM298 508q31 -4 62 -6l-7 204l57 11l-4 -152q14 28 30 44.5t37 16.5q35 0 56 -28t21 -71t-32.5 -66.5t-93.5 -23.5q-34 0 -60 1t-50 4zM471 559q-36 0 -65 -59h19q76 0 76 30
q0 11 -8.5 20t-21.5 9z" />
    <glyph glyph-name="uniFB68" unicode="&#x679;" horiz-adv-x="290" arabic-form="initial" 
d="M-16 10v149l16 10q59 0 93.5 12.5t34.5 29.5q0 15 -5.5 36.5t-15.5 46.5t-23.5 51.5t-28.5 51.5l131 73q15 -24 27 -53.5t20.5 -61.5t13.5 -65t5 -64q0 -115 -61.5 -170.5t-190.5 -55.5zM-8 594q31 -4 62 -6l-7 204l57 11l-4 -152q14 28 30 44.5t37 16.5q35 0 56 -28
t21 -71t-32.5 -66.5t-93.5 -23.5q-34 0 -60 1t-50 4zM165 645q-36 0 -65 -59h19q76 0 76 30q0 11 -8.5 20t-21.5 9z" />
    <glyph glyph-name="uniFB69" unicode="&#x679;" horiz-adv-x="333" arabic-form="medial" 
d="M333 0q-60 0 -97.5 17.5t-63.5 52.5q-24 -31 -66.5 -50.5t-105.5 -19.5l-16 10v149l16 10q29 0 48 4.5t30.5 11t16.5 15t7 16.5q3 16 6 34t5.5 34t4.5 29.5t3 22.5l123 -16q-2 -17 -4.5 -35.5t-4.5 -34.5t-3 -27.5t-1 -15.5q0 -19 22.5 -28.5t79.5 -9.5l16 -10v-149z
M64 470q31 -4 62 -6l-7 204l57 11l-4 -152q14 28 30 44.5t37 16.5q35 0 56 -28t21 -71t-32.5 -66.5t-93.5 -23.5q-34 0 -60 1t-50 4zM237 521q-36 0 -65 -59h19q76 0 76 30q0 11 -8.5 20t-21.5 9z" />
    <glyph glyph-name="uniFB6A" unicode="&#x6a4;" horiz-adv-x="797" arabic-form="isolated" 
d="M641 252q-41 -33 -98 -33q-73 0 -114.5 45t-41.5 125q0 47 14 86.5t38 68t55.5 44.5t67.5 16q94 0 143.5 -91t49.5 -261q0 -50 -6.5 -87.5t-20.5 -64.5t-35.5 -45.5t-52.5 -30.5q-42 -16 -99 -25t-145 -9q-188 0 -275 53t-87 166q0 54 20 113t55 110l91 -44
q-12 -27 -20.5 -59t-8.5 -56q0 -60 53 -86t172 -26q55 0 100.5 2.5t77.5 7t49.5 10.5t17.5 13v58zM558 347q23 0 43 5t34 16q-17 89 -77 89q-30 0 -48.5 -17t-18.5 -44q0 -21 17 -35t50 -14zM631 649l-69 68l-69 -68l-99 98l99 98l69 -69l69 69l99 -98zM562 825l-99 98
l99 98l99 -98z" />
    <glyph glyph-name="uniFB6B" unicode="&#x6a4;" horiz-adv-x="837" arabic-form="final" 
d="M837 0q-69 0 -127 12.5t-96 29.5q-39 -20 -95.5 -36t-122.5 -16q-188 0 -275 53t-87 166q0 54 20 113t55 110l91 -44q-12 -27 -20.5 -59t-8.5 -56q0 -60 53 -86t172 -26h30.5t28.5 1q-23 42 -23 101q0 45 15 84t40.5 67.5t58.5 45t68 16.5t68 -16.5t58.5 -45t40.5 -67.5
t15 -85q0 -53 -19 -92q14 -1 28.5 -1h31.5l16 -10v-149zM546 255q0 -23 16 -40t56 -28q64 25 64 68q0 27 -19 44.5t-49 17.5t-49 -17.5t-19 -44.5zM683 521l-69 68l-69 -68l-99 98l99 98l69 -69l69 69l99 -98zM614 697l-99 98l99 98l99 -98z" />
    <glyph glyph-name="uniFB6C" unicode="&#x6a4;" horiz-adv-x="439" arabic-form="initial" 
d="M283 252q-41 -33 -98 -33q-73 0 -114.5 45t-41.5 125q0 47 14 86.5t38 68t55.5 44.5t67.5 16q94 0 143.5 -91t49.5 -261q0 -50 -6.5 -87.5t-20.5 -64.5t-35.5 -45.5t-52.5 -30.5q-41 -16 -99 -20t-146 -4h-37l-16 10v149l16 10h37q55 0 100.5 0.5t78 2.5t50 7.5
t17.5 14.5v58zM200 347q23 0 43 5t34 16q-17 89 -77 89q-30 0 -48.5 -17t-18.5 -44q0 -21 17 -35t50 -14zM273 649l-69 68l-69 -68l-99 98l99 98l69 -69l69 69l99 -98zM204 825l-99 98l99 98l99 -98z" />
    <glyph glyph-name="uniFB6D" unicode="&#x6a4;" horiz-adv-x="446" arabic-form="medial" 
d="M446 0q-70 0 -127.5 12.5t-95.5 30.5q-38 -18 -96 -30.5t-127 -12.5l-16 10v149l16 10h31t29 1q-19 39 -19 92q0 46 15 85t40.5 67.5t58.5 45t68 16.5t68 -16.5t58.5 -45t40.5 -67.5t15 -85q0 -53 -19 -92q14 -1 28.5 -1h31.5l16 -10v-149zM155 255q0 -23 15 -39.5
t53 -27.5q37 11 52.5 27.5t15.5 39.5q0 27 -19 44.5t-49 17.5t-49 -17.5t-19 -44.5zM292 521l-69 68l-69 -68l-99 98l99 98l69 -69l69 69l99 -98zM223 697l-99 98l99 98l99 -98z" />
    <glyph glyph-name="uniFB7A" unicode="&#x686;" horiz-adv-x="618" arabic-form="isolated" 
d="M614 -192q-42 -51 -112 -79.5t-155 -28.5q-68 0 -124 18.5t-95.5 52t-61.5 81t-22 105.5q0 103 68.5 183.5t191.5 126.5l-27 5q-31 6 -56 9t-39 3q-24 0 -40 -6.5t-31 -21.5l-80 61q27 59 73 92t102 33q25 0 67 -7t110 -26q62 -17 103 -24t67 -7h20v-159
q-90 -15 -162 -39t-122.5 -54t-77 -65t-26.5 -72q0 -54 54.5 -86.5t148.5 -32.5q24 0 50.5 2t51.5 6t47.5 10t39.5 13zM443 9l-43 42l-43 -42l-62 61l62 61l43 -43l43 43l62 -61zM400 -102l-62 61l62 61l62 -61z" />
    <glyph glyph-name="uniFB7B" unicode="&#x686;" horiz-adv-x="639" arabic-form="final" 
d="M614 -192q-42 -51 -112 -79.5t-155 -28.5q-68 0 -124 18.5t-95.5 52t-61.5 81t-22 105.5q0 103 68.5 183.5t191.5 126.5l-27 5q-31 6 -56 9t-39 3q-24 0 -40 -6.5t-31 -21.5l-80 61q27 59 73 92t102 33q25 0 67 -7t110 -26q62 -17 103 -24t67 -7h20v-159
q-90 -15 -162 -39t-122.5 -54t-77 -65t-26.5 -72q0 -54 54.5 -86.5t148.5 -32.5q24 0 50.5 2t51.5 6t47.5 10t39.5 13zM639 0q-90 0 -139 49t-49 145q0 15 1 34t3 39t4 39t5 34l53 -4q-4 -20 -6.5 -46.5t-2.5 -43.5q0 -45 28.5 -61t102.5 -16l16 -10v-149zM411 9l-43 42
l-43 -42l-62 61l62 61l43 -43l43 43l62 -61zM368 -102l-62 61l62 61l62 -61z" />
    <glyph glyph-name="uniFB7C" unicode="&#x686;" horiz-adv-x="571" arabic-form="initial" 
d="M224 218q20 8 40 15t42 14q-33 11 -56.5 18.5t-40 11.5t-27.5 5.5t-19 1.5q-24 0 -40 -6.5t-31 -21.5l-80 61q27 59 73 92t102 33q31 0 70.5 -10.5t105.5 -37.5q24 -10 43 -16.5t35.5 -11t32 -6.5t32.5 -2h20v-159q-68 -17 -120.5 -44t-100.5 -55q-33 -19 -66.5 -37
t-70 -32t-78 -22.5t-90.5 -8.5l-16 10v149l16 10q72 0 123.5 15t100.5 34zM317 -231l-69 69l-69 -69l-99 98l99 98l69 -68l69 68l99 -98zM248 -407l-99 98l99 98l99 -98z" />
    <glyph glyph-name="uniFB7D" unicode="&#x686;" horiz-adv-x="579" arabic-form="medial" 
d="M224 218q20 8 40 15t42 14q-33 11 -56.5 18.5t-40 11.5t-27.5 5.5t-19 1.5q-24 0 -40 -6.5t-31 -21.5l-80 61q27 59 73 92t102 33q31 0 70.5 -10.5t105.5 -37.5q24 -10 43 -16.5t35.5 -11t32 -6.5t32.5 -2h20v-159q-68 -17 -120.5 -44t-100.5 -55q-33 -19 -66.5 -37
t-70 -32t-78 -22.5t-90.5 -8.5l-16 10v149l16 10q72 0 123.5 15t100.5 34zM579 0q-37 0 -68 12.5t-53 37t-34.5 60.5t-12.5 84q0 17 1 28t3 27h39q-2 -10 -2 -24q0 -17 6.5 -28t21.5 -17t39.5 -8.5t59.5 -2.5l16 -10v-149zM317 -231l-69 69l-69 -69l-99 98l99 98l69 -68
l69 68l99 -98zM248 -407l-99 98l99 98l99 -98z" />
    <glyph glyph-name="uniFB88" unicode="&#x688;" horiz-adv-x="447" arabic-form="isolated" 
d="M15 170q25 -5 66 -8t80 -3q25 0 48 2.5t41 6t28.5 8t10.5 9.5q0 12 -13.5 34.5t-36.5 51t-52.5 60.5t-62.5 61l110 104q91 -83 135 -160.5t44 -156.5q0 -189 -218 -189q-38 0 -78.5 2.5t-66.5 7.5zM39 619q31 -4 62 -6l-7 204l57 11l-4 -152q14 28 30 44.5t37 16.5
q35 0 56 -28t21 -71t-32.5 -66.5t-93.5 -23.5q-34 0 -60 1t-50 4zM212 670q-36 0 -65 -59h19q76 0 76 30q0 11 -8.5 20t-21.5 9z" />
    <glyph glyph-name="uniFB89" unicode="&#x688;" horiz-adv-x="512" arabic-form="final" 
d="M512 0q-35 0 -72.5 9t-72.5 37q-29 -30 -73.5 -43t-98.5 -13q-38 0 -78.5 2.5t-66.5 7.5l-35 170q25 -5 66 -8t80 -3q35 0 67 3t57 11q-31 68 -55 129.5t-48 129.5l137 64q22 -66 45.5 -131t46.5 -128q8 -22 15.5 -35t18.5 -20.5t27 -10t40 -2.5l16 -10v-149zM109 619
q31 -4 62 -6l-7 204l57 11l-4 -152q14 28 30 44.5t37 16.5q35 0 56 -28t21 -71t-32.5 -66.5t-93.5 -23.5q-34 0 -60 1t-50 4zM282 670q-36 0 -65 -59h19q76 0 76 30q0 11 -8.5 20t-21.5 9z" />
    <glyph glyph-name="uniFB8A" unicode="&#x698;" horiz-adv-x="379" arabic-form="isolated" 
d="M-20 -56q47 21 91 44.5t77.5 46.5t54 45.5t20.5 41.5q0 13 -9 38t-24 56t-34.5 65.5t-41.5 67.5l131 73q48 -63 75 -137.5t27 -144.5q0 -57 -21 -108t-59.5 -94.5t-92.5 -78.5t-119 -59zM254 468l-69 68l-69 -68l-99 98l99 98l69 -69l69 69l99 -98zM185 644l-99 98l99 98
l99 -98z" />
    <glyph glyph-name="uniFB8B" unicode="&#x698;" horiz-adv-x="438" arabic-form="final" 
d="M438 0q-67 0 -113 29q-18 -41 -46.5 -76.5t-64.5 -64t-76.5 -51t-82.5 -37.5l-75 144q36 16 74.5 35.5t73 41.5t62 47t41.5 53q-20 32 -34.5 67t-31.5 84l137 64q9 -28 16.5 -49.5t18.5 -49.5q8 -21 15.5 -34.5t18 -21t26.5 -10t41 -2.5l16 -10v-149zM284 382l-69 68
l-69 -68l-99 98l99 98l69 -69l69 69l99 -98zM215 558l-99 98l99 98l99 -98z" />
    <glyph glyph-name="uniFB8C" unicode="&#x691;" horiz-adv-x="379" arabic-form="isolated" 
d="M-20 -56q47 21 91 44.5t77.5 46.5t54 45.5t20.5 41.5q0 13 -9 38t-24 56t-34.5 65.5t-41.5 67.5l131 73q48 -63 75 -137.5t27 -144.5q0 -57 -21 -108t-59.5 -94.5t-92.5 -78.5t-119 -59zM60 546q31 -4 62 -6l-7 204l57 11l-4 -152q14 28 30 44.5t37 16.5q35 0 56 -28
t21 -71t-32.5 -66.5t-93.5 -23.5q-34 0 -60 1t-50 4zM233 597q-36 0 -65 -59h19q76 0 76 30q0 11 -8.5 20t-21.5 9z" />
    <glyph glyph-name="uniFB8D" unicode="&#x691;" horiz-adv-x="438" arabic-form="final" 
d="M438 0q-67 0 -113 29q-18 -41 -46.5 -76.5t-64.5 -64t-76.5 -51t-82.5 -37.5l-75 144q36 16 74.5 35.5t73 41.5t62 47t41.5 53q-20 32 -34.5 67t-31.5 84l137 64q9 -28 16.5 -49.5t18.5 -49.5q8 -21 15.5 -34.5t18 -21t26.5 -10t41 -2.5l16 -10v-149zM90 460q31 -4 62 -6
l-7 204l57 11l-4 -152q14 28 30 44.5t37 16.5q35 0 56 -28t21 -71t-32.5 -66.5t-93.5 -23.5q-34 0 -60 1t-50 4zM263 511q-36 0 -65 -59h19q76 0 76 30q0 11 -8.5 20t-21.5 9z" />
    <glyph glyph-name="uniFB8E" unicode="&#x6a9;" horiz-adv-x="774" arabic-form="isolated" 
d="M760 529q-40 -14 -73 -25.5t-61.5 -22t-54.5 -20.5t-51 -20q78 -68 115 -127.5t37 -127.5q0 -95 -82 -145.5t-237 -50.5q-162 0 -240.5 53t-78.5 166q0 54 20 113t55 110l91 -44q-12 -27 -20.5 -59t-8.5 -56q0 -58 43.5 -85t138.5 -27q93 0 144 12t51 35q0 9 -15.5 27
t-41 41.5t-58.5 50t-69 52.5l21 133q94 52 183 93.5t164 70.5z" />
    <glyph glyph-name="uniFB8F" unicode="&#x6a9;" horiz-adv-x="808" arabic-form="final" 
d="M808 0q-66 0 -113.5 11.5t-85.5 43.5q-38 -31 -103.5 -48t-152.5 -17q-162 0 -240.5 53t-78.5 166q0 54 20 113t55 110l91 -44q-12 -27 -20.5 -59t-8.5 -56q0 -58 43.5 -85t138.5 -27q48 0 93 4.5t75 12.5l-109 201l21 133q94 52 183 93.5t164 70.5l28 -147
q-44 -15 -80 -28t-66.5 -24t-59 -22.5t-57.5 -23.5l115 -210q9 -18 20.5 -28t28.5 -15.5t40.5 -7t58.5 -1.5l16 -10v-149z" />
    <glyph glyph-name="uniFB90" unicode="&#x6a9;" horiz-adv-x="448" arabic-form="initial" 
d="M-16 10v149l16 10q43 0 83.5 4.5t71 10.5t49 12.5t18.5 11.5q0 9 -15.5 27t-41 41.5t-58.5 50t-69 52.5l21 133q94 52 183 93.5t164 70.5l28 -147q-40 -14 -73 -25.5t-61.5 -22t-54.5 -20.5t-51 -20q78 -68 115 -127.5t37 -127.5q0 -97 -89 -141.5t-257 -44.5z" />
    <glyph glyph-name="uniFB91" unicode="&#x6a9;" horiz-adv-x="425" arabic-form="medial" 
d="M425 0q-66 0 -113.5 11.5t-85.5 43.5q-32 -25 -85 -40t-141 -15l-16 10v149l16 10q56 0 86 2t52 8l-109 200l21 133q94 52 183 93.5t164 70.5l28 -147q-44 -15 -80 -28t-66.5 -24t-59 -22.5t-57.5 -23.5l115 -210q9 -18 20.5 -28t28.5 -15.5t40.5 -7t58.5 -1.5l16 -10
v-149z" />
    <glyph glyph-name="uniFB92" unicode="&#x6af;" horiz-adv-x="774" arabic-form="isolated" 
d="M760 529q-40 -14 -73 -25.5t-61.5 -22t-54.5 -20.5t-51 -20q78 -68 115 -127.5t37 -127.5q0 -95 -82 -145.5t-237 -50.5q-162 0 -240.5 53t-78.5 166q0 54 20 113t55 110l91 -44q-12 -27 -20.5 -59t-8.5 -56q0 -58 43.5 -85t138.5 -27q93 0 144 12t51 35q0 9 -15.5 27
t-41 41.5t-58.5 50t-69 52.5l21 133q94 52 183 93.5t164 70.5zM682 723q-75 -37 -151 -69t-153 -60v65q77 28 153 60t151 69v-65z" />
    <glyph glyph-name="uniFB93" unicode="&#x6af;" horiz-adv-x="808" arabic-form="final" 
d="M808 0q-66 0 -113.5 11.5t-85.5 43.5q-38 -31 -103.5 -48t-152.5 -17q-162 0 -240.5 53t-78.5 166q0 54 20 113t55 110l91 -44q-12 -27 -20.5 -59t-8.5 -56q0 -58 43.5 -85t138.5 -27q48 0 93 4.5t75 12.5l-109 201l21 133q94 52 183 93.5t164 70.5l28 -147
q-44 -15 -80 -28t-66.5 -24t-59 -22.5t-57.5 -23.5l115 -210q9 -18 20.5 -28t28.5 -15.5t40.5 -7t58.5 -1.5l16 -10v-149zM730 723q-75 -37 -151 -69t-153 -60v65q77 28 153 60t151 69v-65z" />
    <glyph glyph-name="uniFB94" unicode="&#x6af;" horiz-adv-x="448" arabic-form="initial" 
d="M-16 10v149l16 10q43 0 83.5 4.5t71 10.5t49 12.5t18.5 11.5q0 9 -15.5 27t-41 41.5t-58.5 50t-69 52.5l21 133q94 52 183 93.5t164 70.5l28 -147q-40 -14 -73 -25.5t-61.5 -22t-54.5 -20.5t-51 -20q78 -68 115 -127.5t37 -127.5q0 -97 -89 -141.5t-257 -44.5zM356 723
q-75 -37 -151 -69t-153 -60v65q77 28 153 60t151 69v-65z" />
    <glyph glyph-name="uniFB95" unicode="&#x6af;" horiz-adv-x="425" arabic-form="medial" 
d="M425 0q-66 0 -113.5 11.5t-85.5 43.5q-32 -25 -85 -40t-141 -15l-16 10v149l16 10q56 0 86 2t52 8l-109 200l21 133q94 52 183 93.5t164 70.5l28 -147q-44 -15 -80 -28t-66.5 -24t-59 -22.5t-57.5 -23.5l115 -210q9 -18 20.5 -28t28.5 -15.5t40.5 -7t58.5 -1.5l16 -10
v-149zM347 723q-75 -37 -151 -69t-153 -60v65q77 28 153 60t151 69v-65z" />
    <glyph glyph-name="uniFB9E" unicode="&#x6ba;" horiz-adv-x="642" arabic-form="isolated" 
d="M540 336q14 -27 26.5 -61.5t21.5 -71t14.5 -72t5.5 -65.5q0 -59 -21 -107.5t-58.5 -84t-90 -55t-115.5 -19.5q-71 0 -124 18t-89 50.5t-54 79t-18 103.5q0 63 24 125t67 112l86 -52q-20 -35 -30 -70t-10 -64q0 -30 11 -54.5t31 -42t47 -26.5t59 -9q30 0 59 5.5t51.5 15.5
t36.5 24.5t14 32.5q0 12 -5.5 33t-15 49.5t-23.5 62.5t-31 70z" />
    <glyph glyph-name="uniFB9F" unicode="&#x6ba;" horiz-adv-x="673" arabic-form="final" 
d="M540 336q14 -27 26.5 -61.5t21.5 -71t14.5 -72t5.5 -65.5q0 -59 -21 -107.5t-58.5 -84t-90 -55t-115.5 -19.5q-71 0 -124 18t-89 50.5t-54 79t-18 103.5q0 63 24 125t67 112l86 -52q-20 -35 -30 -70t-10 -64q0 -30 11 -54.5t31 -42t47 -26.5t59 -9q30 0 59 5.5t51.5 15.5
t36.5 24.5t14 32.5q0 12 -5.5 33t-15 49.5t-23.5 62.5t-31 70zM673 0q-55 0 -103.5 23t-72.5 75l86 121q0 -23 21 -36.5t69 -13.5l16 -10v-149z" />
    <glyph glyph-name="uniFBA4" unicode="&#x6c0;" horiz-adv-x="482" arabic-form="isolated" 
d="M444 190q0 -96 -53 -148t-150 -52q-98 0 -150.5 51.5t-52.5 148.5q0 59 16 111t43.5 91t64.5 61.5t79 22.5t79 -22.5t64.5 -61.5t43.5 -91t16 -111zM323 198q0 48 -23 78.5t-59 30.5q-35 0 -58.5 -25.5t-23.5 -60.5q0 -32 22.5 -49.5t59.5 -17.5q33 0 57.5 13.5
t24.5 30.5zM330 550q-44 -3 -83 -9t-81 -18l-23 51q24 10 48 18q-14 11 -21.5 25t-7.5 32t6.5 34t18 28t27 19t32.5 7q23 0 41 -11t29 -31l-27 -39q-16 11 -36 11q-17 0 -27 -6.5t-10 -16.5q0 -26 64 -30q15 3 30 4.5t30 2.5z" />
    <glyph glyph-name="uniFBA5" unicode="&#x6c0;" horiz-adv-x="497" arabic-form="final" 
d="M497 0q-75 0 -124.5 28.5t-64.5 84.5q-23 -16 -50.5 -25t-55.5 -9q-39 0 -71 12.5t-55 36t-35.5 56t-12.5 71.5q0 88 67 150.5t199 95.5l-1 69l132 24l-6 -358q-1 -34 17 -50.5t61 -16.5l16 -10v-149zM235 238q17 0 34 2.5t31 8.5l-2 104q-30 -1 -57 -6.5t-47.5 -14.5
t-32.5 -21.5t-12 -25.5q0 -23 24.5 -35t61.5 -12zM332 644q-44 -3 -83 -9t-81 -18l-23 51q24 10 48 18q-14 11 -21.5 25t-7.5 32t6.5 34t18 28t27 19t32.5 7q23 0 41 -11t29 -31l-27 -39q-16 11 -36 11q-17 0 -27 -6.5t-10 -16.5q0 -26 64 -30q15 3 30 4.5t30 2.5z" />
    <glyph glyph-name="uniFBA6" unicode="&#x6c1;" horiz-adv-x="482" arabic-form="isolated" 
d="M444 190q0 -96 -53 -148t-150 -52q-98 0 -150.5 51.5t-52.5 148.5q0 59 16 111t43.5 91t64.5 61.5t79 22.5t79 -22.5t64.5 -61.5t43.5 -91t16 -111zM323 198q0 48 -23 78.5t-59 30.5q-35 0 -58.5 -25.5t-23.5 -60.5q0 -32 22.5 -49.5t59.5 -17.5q33 0 57.5 13.5
t24.5 30.5z" />
    <glyph glyph-name="uniFBA7" unicode="&#x6c1;" horiz-adv-x="584" arabic-form="final" 
d="M584 0q-40 0 -71.5 6.5t-57 23t-46.5 43.5t-40 69q-16 33 -26.5 43.5t-29.5 10.5q-21 0 -48.5 -8t-57.5 -23t-62 -35.5t-63 -45.5l-62 107q26 34 64.5 65t81 55t85.5 38t77 14q45 0 77 -25.5t56 -81.5q13 -29 24.5 -46t25.5 -26t31.5 -12t41.5 -3l16 -10v-149z" />
    <glyph glyph-name="uniFBA8" unicode="&#x6c1;" horiz-adv-x="290" arabic-form="initial" 
d="M-16 10v149l16 10q59 0 93.5 12.5t34.5 29.5q0 15 -5.5 36.5t-15.5 46.5t-23.5 51.5t-28.5 51.5l131 73q15 -24 27 -53.5t20.5 -61.5t13.5 -65t5 -64q0 -115 -61.5 -170.5t-190.5 -55.5zM135 -321q-74 53 -74 109q0 20 8.5 42.5t24 45t37 43t46.5 36.5l39 -34
q-11 -11 -21 -24.5t-17.5 -26t-12 -24t-4.5 -18.5q0 -23 55 -72z" />
    <glyph glyph-name="uniFBA9" unicode="&#x6c1;" horiz-adv-x="548" arabic-form="medial" 
d="M384 -260q-54 12 -101.5 37t-85 61.5t-63 82t-36.5 98.5q-20 -10 -41.5 -14.5t-43.5 -4.5h-13l-16 10v149l16 10q28 0 47 4.5t33.5 15.5t25.5 29.5t23 45.5l110 -34q-9 -23 -13.5 -57.5t-4.5 -65.5q0 -57 23 -100t64 -75v7q0 52 10.5 94.5t31.5 72.5t53 46.5t76 16.5h69
l16 -10v-149l-16 -10h-88q-23 0 -32 -14.5t-9 -34.5q0 -26 10 -62.5t28 -63.5zM92 -490q-74 53 -74 109q0 20 8.5 42.5t24 45t37 43t46.5 36.5l39 -34q-11 -11 -21 -24.5t-17.5 -26t-12 -24t-4.5 -18.5q0 -23 55 -72z" />
    <glyph glyph-name="uniFBAA" unicode="&#x6be;" horiz-adv-x="773" arabic-form="isolated" 
d="M202 254q0 37 13.5 70.5t36.5 59.5t52.5 41.5t61.5 16.5l55 135q77 -27 136 -67t99.5 -89t61.5 -105t21 -116q0 -94 -57 -147t-157 -53q-36 0 -74 9.5t-86 32.5q-42 -17 -93.5 -29.5t-110.5 -12.5l-16 10v149l16 10h29t28 1q-8 20 -12 40.5t-4 43.5zM303 255
q0 -46 64 -69q39 11 55.5 28t16.5 41q0 28 -19.5 44t-48.5 16t-48.5 -16t-19.5 -44zM540 254q0 -45 -17 -85q53 2 75 12.5t22 20.5q0 21 -9 49.5t-28.5 59t-52 58.5t-78.5 48q38 -25 63 -68.5t25 -94.5zM161 0q-28 0 -59.5 2.5t-51.5 7.5l-35 170q25 -5 66 -8t80 -3l16 -10
v-149z" />
    <glyph glyph-name="uniFBAB" unicode="&#x6be;" horiz-adv-x="632" arabic-form="final" 
d="M632 0h-36q8 -22 8 -49q0 -37 -14.5 -67t-39.5 -51.5t-59 -33t-74 -11.5q-43 0 -78.5 15.5t-62.5 43t-44.5 67t-24.5 87.5q-11 -1 -22.5 -1h-23.5l-16 10v149l16 10h50q11 61 34 116.5t52 98t63 67.5t68 25q28 0 55.5 -18.5t49 -49.5t34.5 -71t13 -82q0 -47 -18 -86h70
l16 -10v-149zM415 317q-15 0 -29.5 -11t-27.5 -30.5t-23.5 -45.5t-16.5 -55q83 8 119 26.5t36 47.5q0 11 -4.5 23t-12 22t-18.5 16.5t-23 6.5zM497 -6q0 24 -14.5 37.5t-40.5 20.5q-53 -25 -120 -38q28 -72 98 -72q22 0 37 5.5t24 13.5t12.5 17t3.5 16zM161 0
q-28 0 -59.5 2.5t-51.5 7.5l-35 170q25 -5 66 -8t80 -3l16 -10v-149z" />
    <glyph glyph-name="uniFBAC" unicode="&#x6be;" horiz-adv-x="612" arabic-form="initial" 
d="M41 254q0 37 13.5 70.5t36.5 59.5t52.5 41.5t61.5 16.5l55 135q77 -27 136 -67t99.5 -89t61.5 -105t21 -116q0 -94 -57 -147t-157 -53q-36 0 -74 9.5t-86 32.5q-42 -17 -93.5 -29.5t-110.5 -12.5l-16 10v149l16 10h29t28 1q-8 20 -12 40.5t-4 43.5zM142 255q0 -46 64 -69
q39 11 55.5 28t16.5 41q0 28 -19.5 44t-48.5 16t-48.5 -16t-19.5 -44zM379 254q0 -45 -17 -85q53 2 75 12.5t22 20.5q0 21 -9 49.5t-28.5 59t-52 58.5t-78.5 48q38 -25 63 -68.5t25 -94.5z" />
    <glyph glyph-name="uniFBAD" unicode="&#x6be;" horiz-adv-x="471" arabic-form="medial" 
d="M471 0h-36q8 -22 8 -49q0 -37 -14.5 -67t-39.5 -51.5t-59 -33t-74 -11.5q-43 0 -78.5 15.5t-62.5 43t-44.5 67t-24.5 87.5q-11 -1 -22.5 -1h-23.5l-16 10v149l16 10h50q11 61 34 116.5t52 98t63 67.5t68 25q28 0 55.5 -18.5t49 -49.5t34.5 -71t13 -82q0 -47 -18 -86h70
l16 -10v-149zM254 317q-15 0 -29.5 -11t-27.5 -30.5t-23.5 -45.5t-16.5 -55q83 8 119 26.5t36 47.5q0 11 -4.5 23t-12 22t-18.5 16.5t-23 6.5zM336 -6q0 24 -14.5 37.5t-40.5 20.5q-53 -25 -120 -38q28 -72 98 -72q22 0 37 5.5t24 13.5t12.5 17t3.5 16z" />
    <glyph glyph-name="uniFBAE" unicode="&#x6d2;" horiz-adv-x="680" arabic-form="isolated" 
d="M629 10q-24 -5 -55.5 -8.5t-67 -6t-73 -4t-72.5 -1.5q-168 0 -249.5 44t-81.5 135q0 35 15.5 72.5t42 74t61 69t72 57.5t75 39.5t70.5 14.5q50 0 81 -48t36 -133l-101 -34q-7 25 -15.5 35.5t-22.5 10.5q-25 0 -56.5 -13t-59 -31.5t-46 -39t-18.5 -36.5q0 -23 47.5 -34.5
t149.5 -11.5q31 0 75.5 2t89.5 5t82.5 6.5t55.5 6.5z" />
    <glyph glyph-name="uniFBAF" unicode="&#x6d2;" horiz-adv-x="604" arabic-form="final" 
d="M487 -242q-15 -2 -33.5 -3t-38 -2.5t-39 -2t-36.5 -0.5q-56 0 -115 6.5t-108 28.5t-80.5 62t-31.5 108q0 52 22 92t63.5 67t100 41t131.5 14h282l16 -10v-149l-16 -10h-364q-56 0 -83 -11t-27 -29q0 -11 9.5 -19t33.5 -13.5t64.5 -8.5t102.5 -3q17 0 40 1t48 2.5t49.5 4
t44.5 5.5z" />
    <glyph glyph-name="uniFBB0" unicode="&#x6d3;" horiz-adv-x="680" arabic-form="isolated" 
d="M629 10q-24 -5 -55.5 -8.5t-67 -6t-73 -4t-72.5 -1.5q-168 0 -249.5 44t-81.5 135q0 35 15.5 72.5t42 74t61 69t72 57.5t75 39.5t70.5 14.5q50 0 81 -48t36 -133l-101 -34q-7 25 -15.5 35.5t-22.5 10.5q-25 0 -56.5 -13t-59 -31.5t-46 -39t-18.5 -36.5q0 -23 47.5 -34.5
t149.5 -11.5q31 0 75.5 2t89.5 5t82.5 6.5t55.5 6.5zM423 570q-44 -3 -83 -9t-81 -18l-23 51q24 10 48 18q-14 11 -21.5 25t-7.5 32t6.5 34t18 28t27 19t32.5 7q23 0 41 -11t29 -31l-27 -39q-16 11 -36 11q-17 0 -27 -6.5t-10 -16.5q0 -26 64 -30q15 3 30 4.5t30 2.5z" />
    <glyph glyph-name="uniFBB1" unicode="&#x6d3;" horiz-adv-x="604" arabic-form="final" 
d="M487 -242q-15 -2 -33.5 -3t-38 -2.5t-39 -2t-36.5 -0.5q-56 0 -115 6.5t-108 28.5t-80.5 62t-31.5 108q0 52 22 92t63.5 67t100 41t131.5 14h282l16 -10v-149l-16 -10h-364q-56 0 -83 -11t-27 -29q0 -11 9.5 -19t33.5 -13.5t64.5 -8.5t102.5 -3q17 0 40 1t48 2.5t49.5 4
t44.5 5.5zM442 244q-44 -3 -83 -9t-81 -18l-23 51q24 10 48 18q-14 11 -21.5 25t-7.5 32t6.5 34t18 28t27 19t32.5 7q23 0 41 -11t29 -31l-27 -39q-16 11 -36 11q-17 0 -27 -6.5t-10 -16.5q0 -26 64 -30q15 3 30 4.5t30 2.5z" />
    <glyph glyph-name="uniFBE8" unicode="&#x649;" horiz-adv-x="290" arabic-form="initial" 
d="M-16 10v149l16 10q59 0 93.5 12.5t34.5 29.5q0 15 -5.5 36.5t-15.5 46.5t-23.5 51.5t-28.5 51.5l131 73q15 -24 27 -53.5t20.5 -61.5t13.5 -65t5 -64q0 -115 -61.5 -170.5t-190.5 -55.5z" />
    <glyph glyph-name="uniFBE9" unicode="&#x649;" horiz-adv-x="333" arabic-form="medial" 
d="M333 0q-60 0 -97.5 17.5t-63.5 52.5q-24 -31 -66.5 -50.5t-105.5 -19.5l-16 10v149l16 10q29 0 48 4.5t30.5 11t16.5 15t7 16.5q3 16 6 34t5.5 34t4.5 29.5t3 22.5l123 -16q-2 -17 -4.5 -35.5t-4.5 -34.5t-3 -27.5t-1 -15.5q0 -19 22.5 -28.5t79.5 -9.5l16 -10v-149z" />
    <glyph glyph-name="uniFBFC" unicode="&#x6cc;" horiz-adv-x="688" arabic-form="isolated" 
d="M417 92q-58 17 -90.5 60t-32.5 106q0 43 15.5 82.5t42 69.5t62 48t75.5 18q62 0 104 -38.5t59 -96.5l-80 -60q-32 46 -87 46q-30 0 -48.5 -13t-18.5 -31q0 -7 2.5 -13.5t11 -13t25.5 -14t46 -16.5l51 -16q104 -32 104 -127q0 -53 -30.5 -104t-80 -90.5t-112.5 -64
t-129 -24.5q-63 0 -112.5 18t-84 50.5t-53 79t-18.5 103.5q0 63 24 125t67 112l86 -52q-20 -35 -30 -70t-10 -64q0 -30 11 -54.5t31 -42t47 -26.5t59 -9q35 0 71 7.5t65 19t47.5 24t18.5 22.5t-10.5 16t-46.5 17z" />
    <glyph glyph-name="uniFBFD" unicode="&#x6cc;" horiz-adv-x="661" arabic-form="final" 
d="M661 0q-31 0 -59 9q1 -5 1 -10.5v-10.5q0 -26 -24 -59t-65 -61.5t-94.5 -48t-113.5 -19.5q-63 0 -112.5 18t-84 50.5t-53 79t-18.5 103.5q0 63 24 125t67 112l86 -52q-20 -35 -30 -70t-10 -64q0 -30 11 -54.5t31 -42t47 -26.5t59 -9q35 0 65.5 5.5t53 14.5t35 20t12.5 21
q0 17 -27.5 52t-72.5 88l108 94q24 -31 44.5 -49.5t39 -29t38 -14t42.5 -3.5l16 -10v-149z" />
    <glyph glyph-name="uniFBFE" unicode="&#x6cc;" horiz-adv-x="290" arabic-form="initial" 
d="M-16 10v149l16 10q59 0 93.5 12.5t34.5 29.5q0 15 -5.5 36.5t-15.5 46.5t-23.5 51.5t-28.5 51.5l131 73q15 -24 27 -53.5t20.5 -61.5t13.5 -65t5 -64q0 -115 -61.5 -170.5t-190.5 -55.5zM209 -241l-69 69l-69 -69l-99 98l99 98l69 -68l69 68l99 -98z" />
    <glyph glyph-name="uniFBFF" unicode="&#x6cc;" horiz-adv-x="333" arabic-form="medial" 
d="M333 0q-60 0 -97.5 17.5t-63.5 52.5q-24 -31 -66.5 -50.5t-105.5 -19.5l-16 10v149l16 10q29 0 48 4.5t30.5 11t16.5 15t7 16.5q3 16 6 34t5.5 34t4.5 29.5t3 22.5l123 -16q-2 -17 -4.5 -35.5t-4.5 -34.5t-3 -27.5t-1 -15.5q0 -19 22.5 -28.5t79.5 -9.5l16 -10v-149z
M234 -241l-69 69l-69 -69l-99 98l99 98l69 -68l69 68l99 -98z" />
    <glyph glyph-name="uniFE80" unicode="&#x621;" horiz-adv-x="466" arabic-form="isolated" 
d="M423 42q-89 -6 -174 -21t-174 -41l-49 114q26 11 52 21.5t52 19.5q-28 22 -44.5 53t-16.5 73q0 37 14 70t38 58t56 39t68 14q48 0 88 -23.5t64 -65.5l-60 -81q-33 21 -77 21q-35 0 -56 -13t-21 -34q0 -28 32 -43t100 -19q32 6 64.5 10.5t64.5 6.5z" />
    <glyph glyph-name="uniFE81" unicode="&#x622;" horiz-adv-x="240" arabic-form="isolated" 
d="M58 0l-10 650l144 26l-10 -676h-124zM272 826q-16 -46 -40 -71.5t-57 -25.5q-21 0 -55 15q-24 11 -36.5 14.5t-22.5 3.5q-29 0 -55 -41l-38 22q16 46 40 71.5t57 25.5q20 0 55 -15q24 -11 36.5 -14.5t22.5 -3.5q29 0 55 41z" />
    <glyph glyph-name="uniFE82" unicode="&#x622;" horiz-adv-x="260" arabic-form="final" 
d="M260 0q-93 0 -149.5 41.5t-58.5 113.5l-8 495l144 26l-6 -440q-1 -34 17 -50.5t61 -16.5l16 -10v-149zM268 826q-16 -46 -40 -71.5t-57 -25.5q-21 0 -55 15q-24 11 -36.5 14.5t-22.5 3.5q-29 0 -55 -41l-38 22q16 46 40 71.5t57 25.5q20 0 55 -15q24 -11 36.5 -14.5
t22.5 -3.5q29 0 55 41z" />
    <glyph glyph-name="uniFE83" unicode="&#x623;" horiz-adv-x="240" arabic-form="isolated" 
d="M58 0l-10 650l144 26l-10 -676h-124zM209 750q-44 -3 -83 -9t-81 -18l-23 51q24 10 48 18q-14 11 -21.5 25t-7.5 32t6.5 34t18 28t27 19t32.5 7q23 0 41 -11t29 -31l-27 -39q-16 11 -36 11q-17 0 -27 -6.5t-10 -16.5q0 -26 64 -30q15 3 30 4.5t30 2.5z" />
    <glyph glyph-name="uniFE84" unicode="&#x623;" horiz-adv-x="260" arabic-form="final" 
d="M260 0q-93 0 -149.5 41.5t-58.5 113.5l-8 495l144 26l-6 -440q-1 -34 17 -50.5t61 -16.5l16 -10v-149zM205 750q-44 -3 -83 -9t-81 -18l-23 51q24 10 48 18q-14 11 -21.5 25t-7.5 32t6.5 34t18 28t27 19t32.5 7q23 0 41 -11t29 -31l-27 -39q-16 11 -36 11q-17 0 -27 -6.5
t-10 -16.5q0 -26 64 -30q15 3 30 4.5t30 2.5z" />
    <glyph glyph-name="uniFE85" unicode="&#x624;" horiz-adv-x="443" arabic-form="isolated" 
d="M36 -50q115 4 178 31.5t82 84.5q-41 -39 -101 -39q-35 0 -63.5 13.5t-48.5 38t-31 58.5t-11 74q0 50 14 92.5t39 73t59.5 48t75.5 17.5q43 0 76.5 -24.5t56.5 -65.5t35 -95t12 -113q0 -76 -22 -138t-63 -107t-99 -70.5t-130 -28.5zM223 166q21 0 41 4t36 13
q-17 100 -79 100q-32 0 -51.5 -18t-19.5 -47q0 -23 19 -37.5t54 -14.5zM318 517q-44 -3 -83 -9t-81 -18l-23 51q24 10 48 18q-14 11 -21.5 25t-7.5 32t6.5 34t18 28t27 19t32.5 7q23 0 41 -11t29 -31l-27 -39q-16 11 -36 11q-17 0 -27 -6.5t-10 -16.5q0 -26 64 -30
q15 3 30 4.5t30 2.5z" />
    <glyph glyph-name="uniFE86" unicode="&#x624;" horiz-adv-x="450" arabic-form="final" 
d="M450 0h-66q-34 -90 -108.5 -142.5t-180.5 -57.5l-59 150q178 6 236 73h-29q-95 0 -148.5 50t-53.5 138q0 50 14 92.5t39 73t59.5 48t75.5 17.5t73 -22t55 -59.5t36 -87t15 -104.5h42l16 -10v-149zM150 218q0 -18 9 -27.5t24 -14.5t35 -6t42 -1h41q-6 56 -27 85t-53 29
t-51.5 -18t-19.5 -47zM318 517q-44 -3 -83 -9t-81 -18l-23 51q24 10 48 18q-14 11 -21.5 25t-7.5 32t6.5 34t18 28t27 19t32.5 7q23 0 41 -11t29 -31l-27 -39q-16 11 -36 11q-17 0 -27 -6.5t-10 -16.5q0 -26 64 -30q15 3 30 4.5t30 2.5z" />
    <glyph glyph-name="uniFE87" unicode="&#x625;" horiz-adv-x="240" arabic-form="isolated" 
d="M58 0l-10 650l144 26l-10 -676h-124zM209 -240q-44 -3 -83 -9t-81 -18l-23 51q12 5 24 9.5t24 9.5q-14 11 -21.5 25t-7.5 31q0 18 6.5 34t18 28t27 19t32.5 7q23 0 41 -11t29 -31l-27 -39q-16 11 -36 11q-17 0 -27 -6.5t-10 -16.5q0 -26 64 -29q30 4 60 6z" />
    <glyph glyph-name="uniFE88" unicode="&#x625;" horiz-adv-x="260" arabic-form="final" 
d="M260 0q-93 0 -149.5 41.5t-58.5 113.5l-8 495l144 26l-6 -440q-1 -34 17 -50.5t61 -16.5l16 -10v-149zM205 -240q-44 -3 -83 -9t-81 -18l-23 51q12 5 24 9.5t24 9.5q-14 11 -21.5 25t-7.5 31q0 18 6.5 34t18 28t27 19t32.5 7q23 0 41 -11t29 -31l-27 -39q-16 11 -36 11
q-17 0 -27 -6.5t-10 -16.5q0 -26 64 -29q30 4 60 6z" />
    <glyph glyph-name="uniFE89" unicode="&#x626;" horiz-adv-x="688" arabic-form="isolated" 
d="M417 92q-58 17 -90.5 60t-32.5 106q0 43 15.5 82.5t42 69.5t62 48t75.5 18q62 0 104 -38.5t59 -96.5l-80 -60q-32 46 -87 46q-30 0 -48.5 -13t-18.5 -31q0 -7 2.5 -13.5t11 -13t25.5 -14t46 -16.5l51 -16q104 -32 104 -127q0 -53 -30.5 -104t-80 -90.5t-112.5 -64
t-129 -24.5q-63 0 -112.5 18t-84 50.5t-53 79t-18.5 103.5q0 63 24 125t67 112l86 -52q-20 -35 -30 -70t-10 -64q0 -30 11 -54.5t31 -42t47 -26.5t59 -9q35 0 71 7.5t65 19t47.5 24t18.5 22.5t-10.5 16t-46.5 17zM273 366q-44 -3 -83 -9t-81 -18l-23 51q24 10 48 18
q-14 11 -21.5 25t-7.5 32t6.5 34t18 28t27 19t32.5 7q23 0 41 -11t29 -31l-27 -39q-16 11 -36 11q-17 0 -27 -6.5t-10 -16.5q0 -26 64 -30q15 3 30 4.5t30 2.5z" />
    <glyph glyph-name="uniFE8A" unicode="&#x626;" horiz-adv-x="661" arabic-form="final" 
d="M661 0q-31 0 -59 9q1 -5 1 -10.5v-10.5q0 -26 -24 -59t-65 -61.5t-94.5 -48t-113.5 -19.5q-63 0 -112.5 18t-84 50.5t-53 79t-18.5 103.5q0 63 24 125t67 112l86 -52q-20 -35 -30 -70t-10 -64q0 -30 11 -54.5t31 -42t47 -26.5t59 -9q35 0 65.5 5.5t53 14.5t35 20t12.5 21
q0 17 -27.5 52t-72.5 88l108 94q24 -31 44.5 -49.5t39 -29t38 -14t42.5 -3.5l16 -10v-149zM273 366q-44 -3 -83 -9t-81 -18l-23 51q24 10 48 18q-14 11 -21.5 25t-7.5 32t6.5 34t18 28t27 19t32.5 7q23 0 41 -11t29 -31l-27 -39q-16 11 -36 11q-17 0 -27 -6.5t-10 -16.5
q0 -26 64 -30q15 3 30 4.5t30 2.5z" />
    <glyph glyph-name="uniFE8B" unicode="&#x626;" horiz-adv-x="290" arabic-form="initial" 
d="M-16 10v149l16 10q59 0 93.5 12.5t34.5 29.5q0 15 -5.5 36.5t-15.5 46.5t-23.5 51.5t-28.5 51.5l131 73q15 -24 27 -53.5t20.5 -61.5t13.5 -65t5 -64q0 -115 -61.5 -170.5t-190.5 -55.5zM206 545q-44 -3 -83 -9t-81 -18l-23 51q24 10 48 18q-14 11 -21.5 25t-7.5 32
t6.5 34t18 28t27 19t32.5 7q23 0 41 -11t29 -31l-27 -39q-16 11 -36 11q-17 0 -27 -6.5t-10 -16.5q0 -26 64 -30q15 3 30 4.5t30 2.5z" />
    <glyph glyph-name="uniFE8C" unicode="&#x626;" horiz-adv-x="333" arabic-form="medial" 
d="M333 0q-60 0 -97.5 17.5t-63.5 52.5q-24 -31 -66.5 -50.5t-105.5 -19.5l-16 10v149l16 10q29 0 48 4.5t30.5 11t16.5 15t7 16.5q3 16 6 34t5.5 34t4.5 29.5t3 22.5l123 -16q-2 -17 -4.5 -35.5t-4.5 -34.5t-3 -27.5t-1 -15.5q0 -19 22.5 -28.5t79.5 -9.5l16 -10v-149z
M278 421q-44 -3 -83 -9t-81 -18l-23 51q24 10 48 18q-14 11 -21.5 25t-7.5 32t6.5 34t18 28t27 19t32.5 7q23 0 41 -11t29 -31l-27 -39q-16 11 -36 11q-17 0 -27 -6.5t-10 -16.5q0 -26 64 -30q15 3 30 4.5t30 2.5z" />
    <glyph glyph-name="uniFE8D" unicode="&#x627;" horiz-adv-x="240" arabic-form="isolated" 
d="M58 0l-10 650l144 26l-10 -676h-124z" />
    <glyph glyph-name="uniFE8E" unicode="&#x627;" horiz-adv-x="260" arabic-form="final" 
d="M260 0q-93 0 -149.5 41.5t-58.5 113.5l-8 495l144 26l-6 -440q-1 -34 17 -50.5t61 -16.5l16 -10v-149z" />
    <glyph glyph-name="uniFE8F" unicode="&#x628;" horiz-adv-x="796" arabic-form="isolated" 
d="M692 470q15 -24 27 -53.5t20.5 -61.5t13.5 -65t5 -64q0 -66 -18.5 -111t-61.5 -72.5t-112 -40t-170 -12.5q-188 0 -275 53t-87 166q0 54 20 113t55 110l91 -44q-12 -27 -20.5 -59t-8.5 -56q0 -60 53 -86t172 -26q111 0 174.5 13t63.5 37q0 15 -5.5 36.5t-15.5 46.5
t-23.5 51.5t-28.5 51.5zM396 -241l-99 98l99 98l99 -98z" />
    <glyph glyph-name="uniFE90" unicode="&#x628;" horiz-adv-x="867" arabic-form="final" 
d="M867 0q-61 0 -99 19t-64 55q-20 -20 -47.5 -36t-64.5 -26.5t-85 -16t-111 -5.5q-188 0 -275 53t-87 166q0 54 20 113t55 110l91 -44q-12 -27 -20.5 -59t-8.5 -56q0 -60 53 -86t172 -26q63 0 107 3t72.5 10.5t43.5 19.5t18 30q2 10 4.5 24t5 29.5t4.5 31t4 27.5l123 -16
q-2 -17 -4.5 -35.5t-4.5 -34.5t-3 -27.5t-1 -15.5q0 -19 22.5 -28.5t79.5 -9.5l16 -10v-149zM396 -241l-99 98l99 98l99 -98z" />
    <glyph glyph-name="uniFE91" unicode="&#x628;" horiz-adv-x="290" arabic-form="initial" 
d="M-16 10v149l16 10q59 0 93.5 12.5t34.5 29.5q0 15 -5.5 36.5t-15.5 46.5t-23.5 51.5t-28.5 51.5l131 73q15 -24 27 -53.5t20.5 -61.5t13.5 -65t5 -64q0 -115 -61.5 -170.5t-190.5 -55.5zM140 -241l-99 98l99 98l99 -98z" />
    <glyph glyph-name="uniFE92" unicode="&#x628;" horiz-adv-x="333" arabic-form="medial" 
d="M333 0q-60 0 -97.5 17.5t-63.5 52.5q-24 -31 -66.5 -50.5t-105.5 -19.5l-16 10v149l16 10q29 0 48 4.5t30.5 11t16.5 15t7 16.5q3 16 6 34t5.5 34t4.5 29.5t3 22.5l123 -16q-2 -17 -4.5 -35.5t-4.5 -34.5t-3 -27.5t-1 -15.5q0 -19 22.5 -28.5t79.5 -9.5l16 -10v-149z
M165 -241l-99 98l99 98l99 -98z" />
    <glyph glyph-name="uniFE93" unicode="&#x629;" horiz-adv-x="482" arabic-form="isolated" 
d="M444 190q0 -96 -53 -148t-150 -52q-98 0 -150.5 51.5t-52.5 148.5q0 59 16 111t43.5 91t64.5 61.5t79 22.5t79 -22.5t64.5 -61.5t43.5 -91t16 -111zM323 198q0 48 -23 78.5t-59 30.5q-35 0 -58.5 -25.5t-23.5 -60.5q0 -32 22.5 -49.5t59.5 -17.5q33 0 57.5 13.5
t24.5 30.5zM310 521l-69 68l-69 -68l-99 98l99 98l69 -69l69 69l99 -98z" />
    <glyph glyph-name="uniFE94" unicode="&#x629;" horiz-adv-x="497" arabic-form="final" 
d="M497 0q-75 0 -124.5 28.5t-64.5 84.5q-23 -16 -50.5 -25t-55.5 -9q-39 0 -71 12.5t-55 36t-35.5 56t-12.5 71.5q0 88 67 150.5t199 95.5l-1 69l132 24l-6 -358q-1 -34 17 -50.5t61 -16.5l16 -10v-149zM235 238q17 0 34 2.5t31 8.5l-2 104q-30 -1 -57 -6.5t-47.5 -14.5
t-32.5 -21.5t-12 -25.5q0 -23 24.5 -35t61.5 -12zM312 615l-69 68l-69 -68l-99 98l99 98l69 -69l69 69l99 -98z" />
    <glyph glyph-name="uniFE95" unicode="&#x62a;" horiz-adv-x="796" arabic-form="isolated" 
d="M692 470q15 -24 27 -53.5t20.5 -61.5t13.5 -65t5 -64q0 -66 -18.5 -111t-61.5 -72.5t-112 -40t-170 -12.5q-188 0 -275 53t-87 166q0 54 20 113t55 110l91 -44q-12 -27 -20.5 -59t-8.5 -56q0 -60 53 -86t172 -26q111 0 174.5 13t63.5 37q0 15 -5.5 36.5t-15.5 46.5
t-23.5 51.5t-28.5 51.5zM467 460l-69 68l-69 -68l-99 98l99 98l69 -69l69 69l99 -98z" />
    <glyph glyph-name="uniFE96" unicode="&#x62a;" horiz-adv-x="867" arabic-form="final" 
d="M867 0q-61 0 -99 19t-64 55q-20 -20 -47.5 -36t-64.5 -26.5t-85 -16t-111 -5.5q-188 0 -275 53t-87 166q0 54 20 113t55 110l91 -44q-12 -27 -20.5 -59t-8.5 -56q0 -60 53 -86t172 -26q63 0 107 3t72.5 10.5t43.5 19.5t18 30q2 10 4.5 24t5 29.5t4.5 31t4 27.5l123 -16
q-2 -17 -4.5 -35.5t-4.5 -34.5t-3 -27.5t-1 -15.5q0 -19 22.5 -28.5t79.5 -9.5l16 -10v-149zM492 430l-69 68l-69 -68l-99 98l99 98l69 -69l69 69l99 -98z" />
    <glyph glyph-name="uniFE97" unicode="&#x62a;" horiz-adv-x="290" arabic-form="initial" 
d="M-16 10v149l16 10q59 0 93.5 12.5t34.5 29.5q0 15 -5.5 36.5t-15.5 46.5t-23.5 51.5t-28.5 51.5l131 73q15 -24 27 -53.5t20.5 -61.5t13.5 -65t5 -64q0 -115 -61.5 -170.5t-190.5 -55.5zM186 516l-69 68l-69 -68l-99 98l99 98l69 -69l69 69l99 -98z" />
    <glyph glyph-name="uniFE98" unicode="&#x62a;" horiz-adv-x="333" arabic-form="medial" 
d="M333 0q-60 0 -97.5 17.5t-63.5 52.5q-24 -31 -66.5 -50.5t-105.5 -19.5l-16 10v149l16 10q29 0 48 4.5t30.5 11t16.5 15t7 16.5q3 16 6 34t5.5 34t4.5 29.5t3 22.5l123 -16q-2 -17 -4.5 -35.5t-4.5 -34.5t-3 -27.5t-1 -15.5q0 -19 22.5 -28.5t79.5 -9.5l16 -10v-149z
M258 392l-69 68l-69 -68l-99 98l99 98l69 -69l69 69l99 -98z" />
    <glyph glyph-name="uniFE99" unicode="&#x62b;" horiz-adv-x="796" arabic-form="isolated" 
d="M692 470q15 -24 27 -53.5t20.5 -61.5t13.5 -65t5 -64q0 -66 -18.5 -111t-61.5 -72.5t-112 -40t-170 -12.5q-188 0 -275 53t-87 166q0 54 20 113t55 110l91 -44q-12 -27 -20.5 -59t-8.5 -56q0 -60 53 -86t172 -26q111 0 174.5 13t63.5 37q0 15 -5.5 36.5t-15.5 46.5
t-23.5 51.5t-28.5 51.5zM467 460l-69 68l-69 -68l-99 98l99 98l69 -69l69 69l99 -98zM398 636l-99 98l99 98l99 -98z" />
    <glyph glyph-name="uniFE9A" unicode="&#x62b;" horiz-adv-x="867" arabic-form="final" 
d="M867 0q-61 0 -99 19t-64 55q-20 -20 -47.5 -36t-64.5 -26.5t-85 -16t-111 -5.5q-188 0 -275 53t-87 166q0 54 20 113t55 110l91 -44q-12 -27 -20.5 -59t-8.5 -56q0 -60 53 -86t172 -26q63 0 107 3t72.5 10.5t43.5 19.5t18 30q2 10 4.5 24t5 29.5t4.5 31t4 27.5l123 -16
q-2 -17 -4.5 -35.5t-4.5 -34.5t-3 -27.5t-1 -15.5q0 -19 22.5 -28.5t79.5 -9.5l16 -10v-149zM492 430l-69 68l-69 -68l-99 98l99 98l69 -69l69 69l99 -98zM423 606l-99 98l99 98l99 -98z" />
    <glyph glyph-name="uniFE9B" unicode="&#x62b;" horiz-adv-x="290" arabic-form="initial" 
d="M-16 10v149l16 10q59 0 93.5 12.5t34.5 29.5q0 15 -5.5 36.5t-15.5 46.5t-23.5 51.5t-28.5 51.5l131 73q15 -24 27 -53.5t20.5 -61.5t13.5 -65t5 -64q0 -115 -61.5 -170.5t-190.5 -55.5zM186 516l-69 68l-69 -68l-99 98l99 98l69 -69l69 69l99 -98zM117 692l-99 98l99 98
l99 -98z" />
    <glyph glyph-name="uniFE9C" unicode="&#x62b;" horiz-adv-x="333" arabic-form="medial" 
d="M333 0q-60 0 -97.5 17.5t-63.5 52.5q-24 -31 -66.5 -50.5t-105.5 -19.5l-16 10v149l16 10q29 0 48 4.5t30.5 11t16.5 15t7 16.5q3 16 6 34t5.5 34t4.5 29.5t3 22.5l123 -16q-2 -17 -4.5 -35.5t-4.5 -34.5t-3 -27.5t-1 -15.5q0 -19 22.5 -28.5t79.5 -9.5l16 -10v-149z
M258 392l-69 68l-69 -68l-99 98l99 98l69 -69l69 69l99 -98zM189 568l-99 98l99 98l99 -98z" />
    <glyph glyph-name="uniFE9D" unicode="&#x62c;" horiz-adv-x="618" arabic-form="isolated" 
d="M614 -192q-42 -51 -112 -79.5t-155 -28.5q-68 0 -124 18.5t-95.5 52t-61.5 81t-22 105.5q0 103 68.5 183.5t191.5 126.5l-27 5q-31 6 -56 9t-39 3q-24 0 -40 -6.5t-31 -21.5l-80 61q27 59 73 92t102 33q25 0 67 -7t110 -26q62 -17 103 -24t67 -7h20v-159
q-90 -15 -162 -39t-122.5 -54t-77 -65t-26.5 -72q0 -54 54.5 -86.5t148.5 -32.5q24 0 50.5 2t51.5 6t47.5 10t39.5 13zM400 -84l-99 98l99 98l99 -98z" />
    <glyph glyph-name="uniFE9E" unicode="&#x62c;" horiz-adv-x="639" arabic-form="final" 
d="M614 -192q-42 -51 -112 -79.5t-155 -28.5q-68 0 -124 18.5t-95.5 52t-61.5 81t-22 105.5q0 103 68.5 183.5t191.5 126.5l-27 5q-31 6 -56 9t-39 3q-24 0 -40 -6.5t-31 -21.5l-80 61q27 59 73 92t102 33q25 0 67 -7t110 -26q62 -17 103 -24t67 -7h20v-159
q-90 -15 -162 -39t-122.5 -54t-77 -65t-26.5 -72q0 -54 54.5 -86.5t148.5 -32.5q24 0 50.5 2t51.5 6t47.5 10t39.5 13zM639 0q-90 0 -139 49t-49 145q0 15 1 34t3 39t4 39t5 34l53 -4q-4 -20 -6.5 -46.5t-2.5 -43.5q0 -45 28.5 -61t102.5 -16l16 -10v-149zM368 -84l-99 98
l99 98l99 -98z" />
    <glyph glyph-name="uniFE9F" unicode="&#x62c;" horiz-adv-x="571" arabic-form="initial" 
d="M224 218q20 8 40 15t42 14q-33 11 -56.5 18.5t-40 11.5t-27.5 5.5t-19 1.5q-24 0 -40 -6.5t-31 -21.5l-80 61q27 59 73 92t102 33q31 0 70.5 -10.5t105.5 -37.5q24 -10 43 -16.5t35.5 -11t32 -6.5t32.5 -2h20v-159q-68 -17 -120.5 -44t-100.5 -55q-33 -19 -66.5 -37
t-70 -32t-78 -22.5t-90.5 -8.5l-16 10v149l16 10q72 0 123.5 15t100.5 34zM248 -231l-99 98l99 98l99 -98z" />
    <glyph glyph-name="uniFEA0" unicode="&#x62c;" horiz-adv-x="579" arabic-form="medial" 
d="M224 218q20 8 40 15t42 14q-33 11 -56.5 18.5t-40 11.5t-27.5 5.5t-19 1.5q-24 0 -40 -6.5t-31 -21.5l-80 61q27 59 73 92t102 33q31 0 70.5 -10.5t105.5 -37.5q24 -10 43 -16.5t35.5 -11t32 -6.5t32.5 -2h20v-159q-68 -17 -120.5 -44t-100.5 -55q-33 -19 -66.5 -37
t-70 -32t-78 -22.5t-90.5 -8.5l-16 10v149l16 10q72 0 123.5 15t100.5 34zM579 0q-37 0 -68 12.5t-53 37t-34.5 60.5t-12.5 84q0 17 1 28t3 27h39q-2 -10 -2 -24q0 -17 6.5 -28t21.5 -17t39.5 -8.5t59.5 -2.5l16 -10v-149zM248 -231l-99 98l99 98l99 -98z" />
    <glyph glyph-name="uniFEA1" unicode="&#x62d;" horiz-adv-x="618" arabic-form="isolated" 
d="M614 -192q-42 -51 -112 -79.5t-155 -28.5q-68 0 -124 18.5t-95.5 52t-61.5 81t-22 105.5q0 103 68.5 183.5t191.5 126.5l-27 5q-31 6 -56 9t-39 3q-24 0 -40 -6.5t-31 -21.5l-80 61q27 59 73 92t102 33q25 0 67 -7t110 -26q62 -17 103 -24t67 -7h20v-159
q-90 -15 -162 -39t-122.5 -54t-77 -65t-26.5 -72q0 -54 54.5 -86.5t148.5 -32.5q24 0 50.5 2t51.5 6t47.5 10t39.5 13z" />
    <glyph glyph-name="uniFEA2" unicode="&#x62d;" horiz-adv-x="639" arabic-form="final" 
d="M614 -192q-42 -51 -112 -79.5t-155 -28.5q-68 0 -124 18.5t-95.5 52t-61.5 81t-22 105.5q0 103 68.5 183.5t191.5 126.5l-27 5q-31 6 -56 9t-39 3q-24 0 -40 -6.5t-31 -21.5l-80 61q27 59 73 92t102 33q25 0 67 -7t110 -26q62 -17 103 -24t67 -7h20v-159
q-90 -15 -162 -39t-122.5 -54t-77 -65t-26.5 -72q0 -54 54.5 -86.5t148.5 -32.5q24 0 50.5 2t51.5 6t47.5 10t39.5 13zM639 0q-90 0 -139 49t-49 145q0 15 1 34t3 39t4 39t5 34l53 -4q-4 -20 -6.5 -46.5t-2.5 -43.5q0 -45 28.5 -61t102.5 -16l16 -10v-149z" />
    <glyph glyph-name="uniFEA3" unicode="&#x62d;" horiz-adv-x="571" arabic-form="initial" 
d="M224 218q20 8 40 15t42 14q-33 11 -56.5 18.5t-40 11.5t-27.5 5.5t-19 1.5q-24 0 -40 -6.5t-31 -21.5l-80 61q27 59 73 92t102 33q31 0 70.5 -10.5t105.5 -37.5q24 -10 43 -16.5t35.5 -11t32 -6.5t32.5 -2h20v-159q-68 -17 -120.5 -44t-100.5 -55q-33 -19 -66.5 -37
t-70 -32t-78 -22.5t-90.5 -8.5l-16 10v149l16 10q72 0 123.5 15t100.5 34z" />
    <glyph glyph-name="uniFEA4" unicode="&#x62d;" horiz-adv-x="579" arabic-form="medial" 
d="M224 218q20 8 40 15t42 14q-33 11 -56.5 18.5t-40 11.5t-27.5 5.5t-19 1.5q-24 0 -40 -6.5t-31 -21.5l-80 61q27 59 73 92t102 33q31 0 70.5 -10.5t105.5 -37.5q24 -10 43 -16.5t35.5 -11t32 -6.5t32.5 -2h20v-159q-68 -17 -120.5 -44t-100.5 -55q-33 -19 -66.5 -37
t-70 -32t-78 -22.5t-90.5 -8.5l-16 10v149l16 10q72 0 123.5 15t100.5 34zM579 0q-37 0 -68 12.5t-53 37t-34.5 60.5t-12.5 84q0 17 1 28t3 27h39q-2 -10 -2 -24q0 -17 6.5 -28t21.5 -17t39.5 -8.5t59.5 -2.5l16 -10v-149z" />
    <glyph glyph-name="uniFEA5" unicode="&#x62e;" horiz-adv-x="618" arabic-form="isolated" 
d="M614 -192q-42 -51 -112 -79.5t-155 -28.5q-68 0 -124 18.5t-95.5 52t-61.5 81t-22 105.5q0 103 68.5 183.5t191.5 126.5l-27 5q-31 6 -56 9t-39 3q-24 0 -40 -6.5t-31 -21.5l-80 61q27 59 73 92t102 33q25 0 67 -7t110 -26q62 -17 103 -24t67 -7h20v-159
q-90 -15 -162 -39t-122.5 -54t-77 -65t-26.5 -72q0 -54 54.5 -86.5t148.5 -32.5q24 0 50.5 2t51.5 6t47.5 10t39.5 13zM325 488l-99 98l99 98l99 -98z" />
    <glyph glyph-name="uniFEA6" unicode="&#x62e;" horiz-adv-x="639" arabic-form="final" 
d="M614 -192q-42 -51 -112 -79.5t-155 -28.5q-68 0 -124 18.5t-95.5 52t-61.5 81t-22 105.5q0 103 68.5 183.5t191.5 126.5l-27 5q-31 6 -56 9t-39 3q-24 0 -40 -6.5t-31 -21.5l-80 61q27 59 73 92t102 33q25 0 67 -7t110 -26q62 -17 103 -24t67 -7h20v-159
q-90 -15 -162 -39t-122.5 -54t-77 -65t-26.5 -72q0 -54 54.5 -86.5t148.5 -32.5q24 0 50.5 2t51.5 6t47.5 10t39.5 13zM639 0q-90 0 -139 49t-49 145q0 15 1 34t3 39t4 39t5 34l53 -4q-4 -20 -6.5 -46.5t-2.5 -43.5q0 -45 28.5 -61t102.5 -16l16 -10v-149zM325 488l-99 98
l99 98l99 -98z" />
    <glyph glyph-name="uniFEA7" unicode="&#x62e;" horiz-adv-x="571" arabic-form="initial" 
d="M224 218q20 8 40 15t42 14q-33 11 -56.5 18.5t-40 11.5t-27.5 5.5t-19 1.5q-24 0 -40 -6.5t-31 -21.5l-80 61q27 59 73 92t102 33q31 0 70.5 -10.5t105.5 -37.5q24 -10 43 -16.5t35.5 -11t32 -6.5t32.5 -2h20v-159q-68 -17 -120.5 -44t-100.5 -55q-33 -19 -66.5 -37
t-70 -32t-78 -22.5t-90.5 -8.5l-16 10v149l16 10q72 0 123.5 15t100.5 34zM293 488l-99 98l99 98l99 -98z" />
    <glyph glyph-name="uniFEA8" unicode="&#x62e;" horiz-adv-x="579" arabic-form="medial" 
d="M224 218q20 8 40 15t42 14q-33 11 -56.5 18.5t-40 11.5t-27.5 5.5t-19 1.5q-24 0 -40 -6.5t-31 -21.5l-80 61q27 59 73 92t102 33q31 0 70.5 -10.5t105.5 -37.5q24 -10 43 -16.5t35.5 -11t32 -6.5t32.5 -2h20v-159q-68 -17 -120.5 -44t-100.5 -55q-33 -19 -66.5 -37
t-70 -32t-78 -22.5t-90.5 -8.5l-16 10v149l16 10q72 0 123.5 15t100.5 34zM579 0q-37 0 -68 12.5t-53 37t-34.5 60.5t-12.5 84q0 17 1 28t3 27h39q-2 -10 -2 -24q0 -17 6.5 -28t21.5 -17t39.5 -8.5t59.5 -2.5l16 -10v-149zM293 488l-99 98l99 98l99 -98z" />
    <glyph glyph-name="uniFEA9" unicode="&#x62f;" horiz-adv-x="447" arabic-form="isolated" 
d="M15 170q25 -5 66 -8t80 -3q25 0 48 2.5t41 6t28.5 8t10.5 9.5q0 12 -13.5 34.5t-36.5 51t-52.5 60.5t-62.5 61l110 104q91 -83 135 -160.5t44 -156.5q0 -189 -218 -189q-38 0 -78.5 2.5t-66.5 7.5z" />
    <glyph glyph-name="uniFEAA" unicode="&#x62f;" horiz-adv-x="512" arabic-form="final" 
d="M512 0q-35 0 -72.5 9t-72.5 37q-29 -30 -73.5 -43t-98.5 -13q-38 0 -78.5 2.5t-66.5 7.5l-35 170q25 -5 66 -8t80 -3q35 0 67 3t57 11q-31 68 -55 129.5t-48 129.5l137 64q22 -66 45.5 -131t46.5 -128q8 -22 15.5 -35t18.5 -20.5t27 -10t40 -2.5l16 -10v-149z" />
    <glyph glyph-name="uniFEAB" unicode="&#x630;" horiz-adv-x="447" arabic-form="isolated" 
d="M15 170q25 -5 66 -8t80 -3q25 0 48 2.5t41 6t28.5 8t10.5 9.5q0 12 -13.5 34.5t-36.5 51t-52.5 60.5t-62.5 61l110 104q91 -83 135 -160.5t44 -156.5q0 -189 -218 -189q-38 0 -78.5 2.5t-66.5 7.5zM164 541l-99 98l99 98l99 -98z" />
    <glyph glyph-name="uniFEAC" unicode="&#x630;" horiz-adv-x="512" arabic-form="final" 
d="M512 0q-35 0 -72.5 9t-72.5 37q-29 -30 -73.5 -43t-98.5 -13q-38 0 -78.5 2.5t-66.5 7.5l-35 170q25 -5 66 -8t80 -3q35 0 67 3t57 11q-31 68 -55 129.5t-48 129.5l137 64q22 -66 45.5 -131t46.5 -128q8 -22 15.5 -35t18.5 -20.5t27 -10t40 -2.5l16 -10v-149zM234 541
l-99 98l99 98l99 -98z" />
    <glyph glyph-name="uniFEAD" unicode="&#x631;" horiz-adv-x="379" arabic-form="isolated" 
d="M-20 -56q47 21 91 44.5t77.5 46.5t54 45.5t20.5 41.5q0 13 -9 38t-24 56t-34.5 65.5t-41.5 67.5l131 73q48 -63 75 -137.5t27 -144.5q0 -57 -21 -108t-59.5 -94.5t-92.5 -78.5t-119 -59z" />
    <glyph glyph-name="uniFEAE" unicode="&#x631;" horiz-adv-x="438" arabic-form="final" 
d="M438 0q-67 0 -113 29q-18 -41 -46.5 -76.5t-64.5 -64t-76.5 -51t-82.5 -37.5l-75 144q36 16 74.5 35.5t73 41.5t62 47t41.5 53q-20 32 -34.5 67t-31.5 84l137 64q9 -28 16.5 -49.5t18.5 -49.5q8 -21 15.5 -34.5t18 -21t26.5 -10t41 -2.5l16 -10v-149z" />
    <glyph glyph-name="uniFEAF" unicode="&#x632;" horiz-adv-x="379" arabic-form="isolated" 
d="M-20 -56q47 21 91 44.5t77.5 46.5t54 45.5t20.5 41.5q0 13 -9 38t-24 56t-34.5 65.5t-41.5 67.5l131 73q48 -63 75 -137.5t27 -144.5q0 -57 -21 -108t-59.5 -94.5t-92.5 -78.5t-119 -59zM185 468l-99 98l99 98l99 -98z" />
    <glyph glyph-name="uniFEB0" unicode="&#x632;" horiz-adv-x="438" arabic-form="final" 
d="M438 0q-67 0 -113 29q-18 -41 -46.5 -76.5t-64.5 -64t-76.5 -51t-82.5 -37.5l-75 144q36 16 74.5 35.5t73 41.5t62 47t41.5 53q-20 32 -34.5 67t-31.5 84l137 64q9 -28 16.5 -49.5t18.5 -49.5q8 -21 15.5 -34.5t18 -21t26.5 -10t41 -2.5l16 -10v-149zM215 382l-99 98
l99 98l99 -98z" />
    <glyph glyph-name="uniFEB1" unicode="&#x633;" horiz-adv-x="1163" arabic-form="isolated" 
d="M918 0q-38 0 -72 10.5t-59 31.5q-26 -21 -58 -31.5t-64 -10.5t-60.5 7t-51 24t-37 45t-18.5 70l59 94q13 -35 39 -55.5t62 -20.5q62 0 71 48q3 16 6 34.5t6 35.5t5 31t3 23l123 -16q-2 -17 -4.5 -36t-4.5 -36t-3 -29t-1 -16q0 -17 16 -28t48 -11q14 0 28.5 3.5t26 9.5
t18.5 13.5t7 15.5q0 15 -6 37.5t-16 48.5t-24 53t-29 52l131 73q15 -24 27 -53.5t20.5 -61.5t13.5 -65t5 -64q0 -46 -9.5 -87t-33.5 -72t-64 -49t-100 -18zM540 336q14 -27 26.5 -61.5t21.5 -71t14.5 -72t5.5 -65.5q0 -59 -21 -107.5t-58.5 -84t-90 -55t-115.5 -19.5
q-71 0 -124 18t-89 50.5t-54 79t-18 103.5q0 63 24 125t67 112l86 -52q-20 -35 -30 -70t-10 -64q0 -30 11 -54.5t31 -42t47 -26.5t59 -9q30 0 59 5.5t51.5 15.5t36.5 24.5t14 32.5q0 12 -5.5 33t-15 49.5t-23.5 62.5t-31 70z" />
    <glyph glyph-name="uniFEB2" unicode="&#x633;" horiz-adv-x="1197" arabic-form="final" 
d="M1128 347q0 -32 -2.5 -67t-6 -67t-8.5 -59t-10 -42q-17 -54 -67 -83t-123 -29q-74 0 -124 42q-26 -20 -57.5 -31t-64.5 -11q-152 0 -167 146l59 94q13 -36 39.5 -56t61.5 -20q62 0 71 48q3 15 6 32.5t5.5 34.5t5 32t3.5 25l123 -16q-3 -20 -5 -39t-4 -35.5t-3 -28
t-1 -14.5q0 -18 17.5 -28.5t46.5 -10.5q61 0 69 51q1 7 2.5 22t3.5 34.5t3.5 42t3.5 45.5zM540 336q14 -27 26.5 -61.5t21.5 -71t14.5 -72t5.5 -65.5q0 -59 -21 -107.5t-58.5 -84t-90 -55t-115.5 -19.5q-71 0 -124 18t-89 50.5t-54 79t-18 103.5q0 63 24 125t67 112l86 -52
q-20 -35 -30 -70t-10 -64q0 -30 11 -54.5t31 -42t47 -26.5t59 -9q30 0 59 5.5t51.5 15.5t36.5 24.5t14 32.5q0 12 -5.5 33t-15 49.5t-23.5 62.5t-31 70zM1197 0q-55 0 -103.5 23t-72.5 75l86 121q0 -23 21 -36.5t69 -13.5l16 -10v-149z" />
    <glyph glyph-name="uniFEB3" unicode="&#x633;" horiz-adv-x="771" arabic-form="initial" 
d="M526 0q-38 0 -72 10.5t-59 31.5q-26 -21 -58 -31.5t-64 -10.5t-60.5 7t-51 24t-37 45t-18.5 70l59 94q13 -35 39 -55.5t62 -20.5q62 0 71 48q3 16 6 34.5t6 35.5t5 31t3 23l123 -16q-2 -17 -4.5 -36t-4.5 -36t-3 -29t-1 -16q0 -17 16 -28t48 -11q14 0 28.5 3.5t26 9.5
t18.5 13.5t7 15.5q0 15 -6 37.5t-16 48.5t-24 53t-29 52l131 73q15 -24 27 -53.5t20.5 -61.5t13.5 -65t5 -64q0 -46 -9.5 -87t-33.5 -72t-64 -49t-100 -18zM-16 10v149l16 10q22 0 35 3t22.5 16.5t19 41t24.5 75.5l116 -30q-13 -77 -26.5 -129.5t-36 -85t-59 -46.5
t-95.5 -14z" />
    <glyph glyph-name="uniFEB4" unicode="&#x633;" horiz-adv-x="808" arabic-form="medial" 
d="M736 347q0 -32 -2.5 -67t-6 -67t-8.5 -59t-10 -42q-17 -54 -67 -83t-123 -29q-74 0 -124 42q-26 -20 -57.5 -31t-64.5 -11q-152 0 -167 146l59 94q13 -36 39.5 -56t61.5 -20q62 0 71 48q3 15 6 32.5t5.5 34.5t5 32t3.5 25l123 -16q-3 -20 -5 -39t-4 -35.5t-3 -28
t-1 -14.5q0 -18 17.5 -28.5t46.5 -10.5q61 0 69 51q1 7 2.5 22t3.5 34.5t3.5 42t3.5 45.5zM-16 10v149l16 10q22 0 35 3t22.5 16.5t19 41t24.5 75.5l116 -30q-13 -77 -26.5 -129.5t-36 -85t-59 -46.5t-95.5 -14zM808 0q-55 0 -103.5 23t-72.5 75l86 121q0 -23 21 -36.5
t69 -13.5l16 -10v-149z" />
    <glyph glyph-name="uniFEB5" unicode="&#x634;" horiz-adv-x="1163" arabic-form="isolated" 
d="M918 0q-38 0 -72 10.5t-59 31.5q-26 -21 -58 -31.5t-64 -10.5t-60.5 7t-51 24t-37 45t-18.5 70l59 94q13 -35 39 -55.5t62 -20.5q62 0 71 48q3 16 6 34.5t6 35.5t5 31t3 23l123 -16q-2 -17 -4.5 -36t-4.5 -36t-3 -29t-1 -16q0 -17 16 -28t48 -11q14 0 28.5 3.5t26 9.5
t18.5 13.5t7 15.5q0 15 -6 37.5t-16 48.5t-24 53t-29 52l131 73q15 -24 27 -53.5t20.5 -61.5t13.5 -65t5 -64q0 -46 -9.5 -87t-33.5 -72t-64 -49t-100 -18zM540 336q14 -27 26.5 -61.5t21.5 -71t14.5 -72t5.5 -65.5q0 -59 -21 -107.5t-58.5 -84t-90 -55t-115.5 -19.5
q-71 0 -124 18t-89 50.5t-54 79t-18 103.5q0 63 24 125t67 112l86 -52q-20 -35 -30 -70t-10 -64q0 -30 11 -54.5t31 -42t47 -26.5t59 -9q30 0 59 5.5t51.5 15.5t36.5 24.5t14 32.5q0 12 -5.5 33t-15 49.5t-23.5 62.5t-31 70zM836 437l-69 68l-69 -68l-99 98l99 98l69 -69
l69 69l99 -98zM767 613l-99 98l99 98l99 -98z" />
    <glyph glyph-name="uniFEB6" unicode="&#x634;" horiz-adv-x="1197" arabic-form="final" 
d="M1128 347q0 -32 -2.5 -67t-6 -67t-8.5 -59t-10 -42q-17 -54 -67 -83t-123 -29q-74 0 -124 42q-26 -20 -57.5 -31t-64.5 -11q-152 0 -167 146l59 94q13 -36 39.5 -56t61.5 -20q62 0 71 48q3 15 6 32.5t5.5 34.5t5 32t3.5 25l123 -16q-3 -20 -5 -39t-4 -35.5t-3 -28
t-1 -14.5q0 -18 17.5 -28.5t46.5 -10.5q61 0 69 51q1 7 2.5 22t3.5 34.5t3.5 42t3.5 45.5zM540 336q14 -27 26.5 -61.5t21.5 -71t14.5 -72t5.5 -65.5q0 -59 -21 -107.5t-58.5 -84t-90 -55t-115.5 -19.5q-71 0 -124 18t-89 50.5t-54 79t-18 103.5q0 63 24 125t67 112l86 -52
q-20 -35 -30 -70t-10 -64q0 -30 11 -54.5t31 -42t47 -26.5t59 -9q30 0 59 5.5t51.5 15.5t36.5 24.5t14 32.5q0 12 -5.5 33t-15 49.5t-23.5 62.5t-31 70zM1197 0q-55 0 -103.5 23t-72.5 75l86 121q0 -23 21 -36.5t69 -13.5l16 -10v-149zM886 437l-69 68l-69 -68l-99 98l99 98
l69 -69l69 69l99 -98zM817 613l-99 98l99 98l99 -98z" />
    <glyph glyph-name="uniFEB7" unicode="&#x634;" horiz-adv-x="771" arabic-form="initial" 
d="M526 0q-38 0 -72 10.5t-59 31.5q-26 -21 -58 -31.5t-64 -10.5t-60.5 7t-51 24t-37 45t-18.5 70l59 94q13 -35 39 -55.5t62 -20.5q62 0 71 48q3 16 6 34.5t6 35.5t5 31t3 23l123 -16q-2 -17 -4.5 -36t-4.5 -36t-3 -29t-1 -16q0 -17 16 -28t48 -11q14 0 28.5 3.5t26 9.5
t18.5 13.5t7 15.5q0 15 -6 37.5t-16 48.5t-24 53t-29 52l131 73q15 -24 27 -53.5t20.5 -61.5t13.5 -65t5 -64q0 -46 -9.5 -87t-33.5 -72t-64 -49t-100 -18zM-16 10v149l16 10q22 0 35 3t22.5 16.5t19 41t24.5 75.5l116 -30q-13 -77 -26.5 -129.5t-36 -85t-59 -46.5
t-95.5 -14zM444 437l-69 68l-69 -68l-99 98l99 98l69 -69l69 69l99 -98zM375 613l-99 98l99 98l99 -98z" />
    <glyph glyph-name="uniFEB8" unicode="&#x634;" horiz-adv-x="808" arabic-form="medial" 
d="M736 347q0 -32 -2.5 -67t-6 -67t-8.5 -59t-10 -42q-17 -54 -67 -83t-123 -29q-74 0 -124 42q-26 -20 -57.5 -31t-64.5 -11q-152 0 -167 146l59 94q13 -36 39.5 -56t61.5 -20q62 0 71 48q3 15 6 32.5t5.5 34.5t5 32t3.5 25l123 -16q-3 -20 -5 -39t-4 -35.5t-3 -28
t-1 -14.5q0 -18 17.5 -28.5t46.5 -10.5q61 0 69 51q1 7 2.5 22t3.5 34.5t3.5 42t3.5 45.5zM-16 10v149l16 10q22 0 35 3t22.5 16.5t19 41t24.5 75.5l116 -30q-13 -77 -26.5 -129.5t-36 -85t-59 -46.5t-95.5 -14zM808 0q-55 0 -103.5 23t-72.5 75l86 121q0 -23 21 -36.5
t69 -13.5l16 -10v-149zM494 437l-69 68l-69 -68l-99 98l99 98l69 -69l69 69l99 -98zM425 613l-99 98l99 98l99 -98z" />
    <glyph glyph-name="uniFEB9" unicode="&#x635;" horiz-adv-x="1161" arabic-form="isolated" 
d="M540 336q20 -51 44.5 -87t66.5 -58q60 134 133 209.5t150 75.5q41 0 76.5 -19.5t62 -53.5t41.5 -80t15 -99q0 -113 -84.5 -173.5t-245.5 -60.5q-67 0 -119.5 13t-93.5 43t-71 79t-51 121zM930 307q-41 0 -82 -38.5t-79 -107.5q13 -1 26.5 -1.5t28.5 -0.5q96 0 138.5 16
t42.5 52q0 15 -6 29.5t-16 25.5t-24 18t-29 7zM540 336q14 -27 26.5 -61.5t21.5 -71t14.5 -72t5.5 -65.5q0 -59 -21 -107.5t-58.5 -84t-90 -55t-115.5 -19.5q-71 0 -124 18t-89 50.5t-54 79t-18 103.5q0 63 24 125t67 112l86 -52q-20 -35 -30 -70t-10 -64q0 -30 11 -54.5
t31 -42t47 -26.5t59 -9q30 0 59 5.5t51.5 15.5t36.5 24.5t14 32.5q0 12 -5.5 33t-15 49.5t-23.5 62.5t-31 70z" />
    <glyph glyph-name="uniFEBA" unicode="&#x635;" horiz-adv-x="1182" arabic-form="final" 
d="M540 336q20 -51 44.5 -87t66.5 -58q60 134 133 209.5t150 75.5q41 0 76.5 -19.5t62 -53.5t41.5 -80t15 -99q0 -113 -84.5 -173.5t-245.5 -60.5q-67 0 -119.5 13t-93.5 43t-71 79t-51 121zM930 307q-41 0 -82 -38.5t-79 -107.5q13 -1 26.5 -1.5t28.5 -0.5q96 0 138.5 16
t42.5 52q0 15 -6 29.5t-16 25.5t-24 18t-29 7zM540 336q14 -27 26.5 -61.5t21.5 -71t14.5 -72t5.5 -65.5q0 -59 -21 -107.5t-58.5 -84t-90 -55t-115.5 -19.5q-71 0 -124 18t-89 50.5t-54 79t-18 103.5q0 63 24 125t67 112l86 -52q-20 -35 -30 -70t-10 -64q0 -30 11 -54.5
t31 -42t47 -26.5t59 -9q30 0 59 5.5t51.5 15.5t36.5 24.5t14 32.5q0 12 -5.5 33t-15 49.5t-23.5 62.5t-31 70zM1182 0q-55 0 -103.5 23t-72.5 75l86 121q0 -23 21 -36.5t69 -13.5l16 -10v-149z" />
    <glyph glyph-name="uniFEBB" unicode="&#x635;" horiz-adv-x="775" arabic-form="initial" 
d="M182 210q22 -22 76 -34q30 70 64.5 125.5t71.5 94.5t76 59.5t78 20.5q41 0 76.5 -19.5t62 -53.5t41.5 -80t15 -99q0 -113 -84.5 -173.5t-245.5 -60.5q-48 0 -91.5 5.5t-79 15.5t-62 24t-40.5 31zM544 307q-41 0 -82 -39t-79 -108q13 -1 27 -1h28q96 0 138.5 16t42.5 52
q0 15 -6 29.5t-16 25.5t-24 18t-29 7zM-16 10v149l16 10q22 0 35 3t22.5 16.5t19 41t24.5 75.5l116 -30q-13 -77 -26.5 -129.5t-36 -85t-59 -46.5t-95.5 -14z" />
    <glyph glyph-name="uniFEBC" unicode="&#x635;" horiz-adv-x="796" arabic-form="medial" 
d="M182 210q22 -22 76 -34q30 70 64.5 125.5t71.5 94.5t76 59.5t78 20.5q41 0 76.5 -19.5t62 -53.5t41.5 -80t15 -99q0 -113 -84.5 -173.5t-245.5 -60.5q-48 0 -91.5 5.5t-79 15.5t-62 24t-40.5 31zM544 307q-41 0 -82 -39t-79 -108q13 -1 27 -1h28q96 0 138.5 16t42.5 52
q0 15 -6 29.5t-16 25.5t-24 18t-29 7zM-16 10v149l16 10q22 0 35 3t22.5 16.5t19 41t24.5 75.5l116 -30q-13 -77 -26.5 -129.5t-36 -85t-59 -46.5t-95.5 -14zM796 0q-55 0 -103.5 23t-72.5 75l86 121q0 -23 21 -36.5t69 -13.5l16 -10v-149z" />
    <glyph glyph-name="uniFEBD" unicode="&#x636;" horiz-adv-x="1161" arabic-form="isolated" 
d="M540 336q20 -51 44.5 -87t66.5 -58q60 134 133 209.5t150 75.5q41 0 76.5 -19.5t62 -53.5t41.5 -80t15 -99q0 -113 -84.5 -173.5t-245.5 -60.5q-67 0 -119.5 13t-93.5 43t-71 79t-51 121zM930 307q-41 0 -82 -38.5t-79 -107.5q13 -1 26.5 -1.5t28.5 -0.5q96 0 138.5 16
t42.5 52q0 15 -6 29.5t-16 25.5t-24 18t-29 7zM540 336q14 -27 26.5 -61.5t21.5 -71t14.5 -72t5.5 -65.5q0 -59 -21 -107.5t-58.5 -84t-90 -55t-115.5 -19.5q-71 0 -124 18t-89 50.5t-54 79t-18 103.5q0 63 24 125t67 112l86 -52q-20 -35 -30 -70t-10 -64q0 -30 11 -54.5
t31 -42t47 -26.5t59 -9q30 0 59 5.5t51.5 15.5t36.5 24.5t14 32.5q0 12 -5.5 33t-15 49.5t-23.5 62.5t-31 70zM904 521l-99 98l99 98l99 -98z" />
    <glyph glyph-name="uniFEBE" unicode="&#x636;" horiz-adv-x="1182" arabic-form="final" 
d="M540 336q20 -51 44.5 -87t66.5 -58q60 134 133 209.5t150 75.5q41 0 76.5 -19.5t62 -53.5t41.5 -80t15 -99q0 -113 -84.5 -173.5t-245.5 -60.5q-67 0 -119.5 13t-93.5 43t-71 79t-51 121zM930 307q-41 0 -82 -38.5t-79 -107.5q13 -1 26.5 -1.5t28.5 -0.5q96 0 138.5 16
t42.5 52q0 15 -6 29.5t-16 25.5t-24 18t-29 7zM540 336q14 -27 26.5 -61.5t21.5 -71t14.5 -72t5.5 -65.5q0 -59 -21 -107.5t-58.5 -84t-90 -55t-115.5 -19.5q-71 0 -124 18t-89 50.5t-54 79t-18 103.5q0 63 24 125t67 112l86 -52q-20 -35 -30 -70t-10 -64q0 -30 11 -54.5
t31 -42t47 -26.5t59 -9q30 0 59 5.5t51.5 15.5t36.5 24.5t14 32.5q0 12 -5.5 33t-15 49.5t-23.5 62.5t-31 70zM1182 0q-55 0 -103.5 23t-72.5 75l86 121q0 -23 21 -36.5t69 -13.5l16 -10v-149zM904 521l-99 98l99 98l99 -98z" />
    <glyph glyph-name="uniFEBF" unicode="&#x636;" horiz-adv-x="775" arabic-form="initial" 
d="M182 210q22 -22 76 -34q30 70 64.5 125.5t71.5 94.5t76 59.5t78 20.5q41 0 76.5 -19.5t62 -53.5t41.5 -80t15 -99q0 -113 -84.5 -173.5t-245.5 -60.5q-48 0 -91.5 5.5t-79 15.5t-62 24t-40.5 31zM544 307q-41 0 -82 -39t-79 -108q13 -1 27 -1h28q96 0 138.5 16t42.5 52
q0 15 -6 29.5t-16 25.5t-24 18t-29 7zM-16 10v149l16 10q22 0 35 3t22.5 16.5t19 41t24.5 75.5l116 -30q-13 -77 -26.5 -129.5t-36 -85t-59 -46.5t-95.5 -14zM518 521l-99 98l99 98l99 -98z" />
    <glyph glyph-name="uniFEC0" unicode="&#x636;" horiz-adv-x="796" arabic-form="medial" 
d="M182 210q22 -22 76 -34q30 70 64.5 125.5t71.5 94.5t76 59.5t78 20.5q41 0 76.5 -19.5t62 -53.5t41.5 -80t15 -99q0 -113 -84.5 -173.5t-245.5 -60.5q-48 0 -91.5 5.5t-79 15.5t-62 24t-40.5 31zM544 307q-41 0 -82 -39t-79 -108q13 -1 27 -1h28q96 0 138.5 16t42.5 52
q0 15 -6 29.5t-16 25.5t-24 18t-29 7zM-16 10v149l16 10q22 0 35 3t22.5 16.5t19 41t24.5 75.5l116 -30q-13 -77 -26.5 -129.5t-36 -85t-59 -46.5t-95.5 -14zM796 0q-55 0 -103.5 23t-72.5 75l86 121q0 -23 21 -36.5t69 -13.5l16 -10v-149zM518 521l-99 98l99 98l99 -98z
" />
    <glyph glyph-name="uniFEC1" unicode="&#x637;" horiz-adv-x="682" arabic-form="isolated" 
d="M15 172q39 -4 78 -6t76 -4l-14 488l144 26l-11 -334q38 67 81.5 100.5t85.5 33.5q41 0 76.5 -19.5t62 -53.5t41.5 -80t15 -99q0 -113 -84.5 -173.5t-245.5 -60.5q-26 0 -61.5 0.5t-73.5 2t-73.5 3t-61.5 4.5zM451 307q-41 0 -82.5 -39.5t-79.5 -108.5h39q108 0 153 15.5
t45 52.5q0 15 -6 29.5t-16 25.5t-23.5 18t-29.5 7z" />
    <glyph glyph-name="uniFEC2" unicode="&#x637;" horiz-adv-x="703" arabic-form="final" 
d="M15 172q39 -4 78 -6t76 -4l-14 488l144 26l-11 -334q38 67 81.5 100.5t85.5 33.5q41 0 76.5 -19.5t62 -53.5t41.5 -80t15 -99q0 -113 -84.5 -173.5t-245.5 -60.5q-26 0 -61.5 0.5t-73.5 2t-73.5 3t-61.5 4.5zM451 307q-41 0 -82.5 -39.5t-79.5 -108.5h39q108 0 153 15.5
t45 52.5q0 15 -6 29.5t-16 25.5t-23.5 18t-29.5 7zM703 0q-55 0 -103.5 23t-72.5 75l86 121q0 -23 21 -36.5t69 -13.5l16 -10v-149z" />
    <glyph glyph-name="uniFEC3" unicode="&#x637;" horiz-adv-x="565" arabic-form="initial" 
d="M0 0l-16 10v149l16 10h52l-14 481l144 26l-11 -334q38 67 81.5 100.5t85.5 33.5q41 0 76.5 -19.5t62 -53.5t41.5 -80t15 -99q0 -113 -83.5 -168.5t-238.5 -55.5h-211zM334 307q-39 0 -79 -36.5t-77 -101.5h33q54 0 91.5 2t61.5 8.5t34.5 18t10.5 29.5q0 15 -6 29.5
t-16 25.5t-23.5 18t-29.5 7z" />
    <glyph glyph-name="uniFEC4" unicode="&#x637;" horiz-adv-x="586" arabic-form="medial" 
d="M0 0l-16 10v149l16 10h52l-14 481l144 26l-11 -334q38 67 81.5 100.5t85.5 33.5q41 0 76.5 -19.5t62 -53.5t41.5 -80t15 -99q0 -113 -83.5 -168.5t-238.5 -55.5h-211zM334 307q-39 0 -79 -36.5t-77 -101.5h33q54 0 91.5 2t61.5 8.5t34.5 18t10.5 29.5q0 15 -6 29.5
t-16 25.5t-23.5 18t-29.5 7zM586 0q-55 0 -103.5 23t-72.5 75l86 121q0 -23 21 -36.5t69 -13.5l16 -10v-149z" />
    <glyph glyph-name="uniFEC5" unicode="&#x638;" horiz-adv-x="682" arabic-form="isolated" 
d="M15 172q39 -4 78 -6t76 -4l-14 488l144 26l-11 -334q38 67 81.5 100.5t85.5 33.5q41 0 76.5 -19.5t62 -53.5t41.5 -80t15 -99q0 -113 -84.5 -173.5t-245.5 -60.5q-26 0 -61.5 0.5t-73.5 2t-73.5 3t-61.5 4.5zM451 307q-41 0 -82.5 -39.5t-79.5 -108.5h39q108 0 153 15.5
t45 52.5q0 15 -6 29.5t-16 25.5t-23.5 18t-29.5 7zM465 521l-99 98l99 98l99 -98z" />
    <glyph glyph-name="uniFEC6" unicode="&#x638;" horiz-adv-x="703" arabic-form="final" 
d="M15 172q39 -4 78 -6t76 -4l-14 488l144 26l-11 -334q38 67 81.5 100.5t85.5 33.5q41 0 76.5 -19.5t62 -53.5t41.5 -80t15 -99q0 -113 -84.5 -173.5t-245.5 -60.5q-26 0 -61.5 0.5t-73.5 2t-73.5 3t-61.5 4.5zM451 307q-41 0 -82.5 -39.5t-79.5 -108.5h39q108 0 153 15.5
t45 52.5q0 15 -6 29.5t-16 25.5t-23.5 18t-29.5 7zM703 0q-55 0 -103.5 23t-72.5 75l86 121q0 -23 21 -36.5t69 -13.5l16 -10v-149zM465 521l-99 98l99 98l99 -98z" />
    <glyph glyph-name="uniFEC7" unicode="&#x638;" horiz-adv-x="565" arabic-form="initial" 
d="M0 0l-16 10v149l16 10h52l-14 481l144 26l-11 -334q38 67 81.5 100.5t85.5 33.5q41 0 76.5 -19.5t62 -53.5t41.5 -80t15 -99q0 -113 -83.5 -168.5t-238.5 -55.5h-211zM334 307q-39 0 -79 -36.5t-77 -101.5h33q54 0 91.5 2t61.5 8.5t34.5 18t10.5 29.5q0 15 -6 29.5
t-16 25.5t-23.5 18t-29.5 7zM348 521l-99 98l99 98l99 -98z" />
    <glyph glyph-name="uniFEC8" unicode="&#x638;" horiz-adv-x="586" arabic-form="medial" 
d="M0 0l-16 10v149l16 10h52l-14 481l144 26l-11 -334q38 67 81.5 100.5t85.5 33.5q41 0 76.5 -19.5t62 -53.5t41.5 -80t15 -99q0 -113 -83.5 -168.5t-238.5 -55.5h-211zM334 307q-39 0 -79 -36.5t-77 -101.5h33q54 0 91.5 2t61.5 8.5t34.5 18t10.5 29.5q0 15 -6 29.5
t-16 25.5t-23.5 18t-29.5 7zM586 0q-55 0 -103.5 23t-72.5 75l86 121q0 -23 21 -36.5t69 -13.5l16 -10v-149zM348 521l-99 98l99 98l99 -98z" />
    <glyph glyph-name="uniFEC9" unicode="&#x639;" horiz-adv-x="522" arabic-form="isolated" 
d="M542 -192q-42 -51 -112 -79.5t-155 -28.5q-57 0 -105 15.5t-82.5 45.5t-54 73.5t-19.5 98.5q0 70 37.5 131.5t112.5 106.5q-62 50 -62 137q0 43 15.5 81t41.5 66t61.5 44.5t76.5 16.5q48 0 88 -23.5t64 -65.5l-60 -81q-33 21 -77 21q-40 0 -68 -16.5t-28 -44.5
q0 -29 29.5 -45.5t93.5 -22.5q31 7 64 12t69 7l-21 -159q-80 -3 -136 -16t-91.5 -32t-52 -43.5t-16.5 -50.5q0 -44 43.5 -65.5t117.5 -21.5q24 0 50.5 2.5t51.5 6.5t47.5 10t39.5 13z" />
    <glyph glyph-name="uniFECA" unicode="&#x639;" horiz-adv-x="538" arabic-form="final" 
d="M542 -192q-42 -51 -112 -79.5t-156 -28.5q-57 0 -104.5 15.5t-82 43.5t-54 67.5t-19.5 86.5q0 40 13.5 73.5t36 61.5t51 51t58.5 43q-64 60 -116 144l23 128q42 26 96 41t110 15q101 0 156 -36t55 -102q0 -78 -83 -160q24 -2 53 -2.5t71 -0.5l16 -10v-149l-16 -10
q-38 0 -71 3.5t-64 12t-63 23t-68 35.5q-60 -30 -88.5 -57.5t-28.5 -60.5q0 -87 161 -87q24 0 50.5 2.5t51.5 6.5t47.5 10t39.5 13zM190 301q6 -12 17 -25t24 -25.5t27 -24t27 -19.5q16 9 32.5 21t29.5 25t21 24.5t8 17.5q0 11 -25.5 18.5t-64.5 7.5q-62 0 -96 -20z" />
    <glyph glyph-name="uniFECB" unicode="&#x639;" horiz-adv-x="473" arabic-form="initial" 
d="M413 68q-37 -15 -85.5 -27.5t-103 -21.5t-112 -14t-112.5 -5l-16 10v149l16 10h40t41 2q-26 41 -26 97q0 43 15.5 81t41.5 66t61.5 44.5t76.5 16.5q48 0 88 -23.5t64 -65.5l-60 -81q-33 21 -77 21q-40 0 -68 -16.5t-28 -44.5q0 -31 35 -48t110 -22q29 5 58.5 10t60.5 11z
" />
    <glyph glyph-name="uniFECC" unicode="&#x639;" horiz-adv-x="522" arabic-form="medial" 
d="M522 0q-37 0 -68.5 3.5t-61.5 11t-60.5 20.5t-64.5 33q-48 -33 -117 -50.5t-150 -17.5l-16 10v149l16 10q70 0 127 3q-23 25 -44.5 53.5t-41.5 60.5l23 128q42 26 96 41t110 15q101 0 156 -36t55 -102q0 -78 -83 -160q24 -2 53 -2.5t71 -0.5l16 -10v-149zM174 301
q6 -12 17 -25t24 -25.5t27 -24t27 -19.5q16 9 32.5 21t29.5 25t21 24.5t8 17.5q0 11 -25.5 18.5t-64.5 7.5q-62 0 -96 -20z" />
    <glyph glyph-name="uniFECD" unicode="&#x63a;" horiz-adv-x="522" arabic-form="isolated" 
d="M542 -192q-42 -51 -112 -79.5t-155 -28.5q-57 0 -105 15.5t-82.5 45.5t-54 73.5t-19.5 98.5q0 70 37.5 131.5t112.5 106.5q-62 50 -62 137q0 43 15.5 81t41.5 66t61.5 44.5t76.5 16.5q48 0 88 -23.5t64 -65.5l-60 -81q-33 21 -77 21q-40 0 -68 -16.5t-28 -44.5
q0 -29 29.5 -45.5t93.5 -22.5q31 7 64 12t69 7l-21 -159q-80 -3 -136 -16t-91.5 -32t-52 -43.5t-16.5 -50.5q0 -44 43.5 -65.5t117.5 -21.5q24 0 50.5 2.5t51.5 6.5t47.5 10t39.5 13zM297 561l-99 98l99 98l99 -98z" />
    <glyph glyph-name="uniFECE" unicode="&#x63a;" horiz-adv-x="538" arabic-form="final" 
d="M542 -192q-42 -51 -112 -79.5t-156 -28.5q-57 0 -104.5 15.5t-82 43.5t-54 67.5t-19.5 86.5q0 40 13.5 73.5t36 61.5t51 51t58.5 43q-64 60 -116 144l23 128q42 26 96 41t110 15q101 0 156 -36t55 -102q0 -78 -83 -160q24 -2 53 -2.5t71 -0.5l16 -10v-149l-16 -10
q-38 0 -71 3.5t-64 12t-63 23t-68 35.5q-60 -30 -88.5 -57.5t-28.5 -60.5q0 -87 161 -87q24 0 50.5 2.5t51.5 6.5t47.5 10t39.5 13zM190 301q6 -12 17 -25t24 -25.5t27 -24t27 -19.5q16 9 32.5 21t29.5 25t21 24.5t8 17.5q0 11 -25.5 18.5t-64.5 7.5q-62 0 -96 -20zM286 516
l-99 98l99 98l99 -98z" />
    <glyph glyph-name="uniFECF" unicode="&#x63a;" horiz-adv-x="473" arabic-form="initial" 
d="M413 68q-37 -15 -85.5 -27.5t-103 -21.5t-112 -14t-112.5 -5l-16 10v149l16 10h40t41 2q-26 41 -26 97q0 43 15.5 81t41.5 66t61.5 44.5t76.5 16.5q48 0 88 -23.5t64 -65.5l-60 -81q-33 21 -77 21q-40 0 -68 -16.5t-28 -44.5q0 -31 35 -48t110 -22q29 5 58.5 10t60.5 11z
M250 521l-99 98l99 98l99 -98z" />
    <glyph glyph-name="uniFED0" unicode="&#x63a;" horiz-adv-x="522" arabic-form="medial" 
d="M522 0q-37 0 -68.5 3.5t-61.5 11t-60.5 20.5t-64.5 33q-48 -33 -117 -50.5t-150 -17.5l-16 10v149l16 10q70 0 127 3q-23 25 -44.5 53.5t-41.5 60.5l23 128q42 26 96 41t110 15q101 0 156 -36t55 -102q0 -78 -83 -160q24 -2 53 -2.5t71 -0.5l16 -10v-149zM174 301
q6 -12 17 -25t24 -25.5t27 -24t27 -19.5q16 9 32.5 21t29.5 25t21 24.5t8 17.5q0 11 -25.5 18.5t-64.5 7.5q-62 0 -96 -20zM270 516l-99 98l99 98l99 -98z" />
    <glyph glyph-name="uniFED1" unicode="&#x641;" horiz-adv-x="797" arabic-form="isolated" 
d="M641 252q-41 -33 -98 -33q-73 0 -114.5 45t-41.5 125q0 47 14 86.5t38 68t55.5 44.5t67.5 16q94 0 143.5 -91t49.5 -261q0 -50 -6.5 -87.5t-20.5 -64.5t-35.5 -45.5t-52.5 -30.5q-42 -16 -99 -25t-145 -9q-188 0 -275 53t-87 166q0 54 20 113t55 110l91 -44
q-12 -27 -20.5 -59t-8.5 -56q0 -60 53 -86t172 -26q55 0 100.5 2.5t77.5 7t49.5 10.5t17.5 13v58zM558 347q23 0 43 5t34 16q-17 89 -77 89q-30 0 -48.5 -17t-18.5 -44q0 -21 17 -35t50 -14zM562 649l-99 98l99 98l99 -98z" />
    <glyph glyph-name="uniFED2" unicode="&#x641;" horiz-adv-x="837" arabic-form="final" 
d="M837 0q-69 0 -127 12.5t-96 29.5q-39 -20 -95.5 -36t-122.5 -16q-188 0 -275 53t-87 166q0 54 20 113t55 110l91 -44q-12 -27 -20.5 -59t-8.5 -56q0 -60 53 -86t172 -26h30.5t28.5 1q-23 42 -23 101q0 45 15 84t40.5 67.5t58.5 45t68 16.5t68 -16.5t58.5 -45t40.5 -67.5
t15 -85q0 -53 -19 -92q14 -1 28.5 -1h31.5l16 -10v-149zM546 255q0 -23 16 -40t56 -28q64 25 64 68q0 27 -19 44.5t-49 17.5t-49 -17.5t-19 -44.5zM614 521l-99 98l99 98l99 -98z" />
    <glyph glyph-name="uniFED3" unicode="&#x641;" horiz-adv-x="439" arabic-form="initial" 
d="M283 252q-41 -33 -98 -33q-73 0 -114.5 45t-41.5 125q0 47 14 86.5t38 68t55.5 44.5t67.5 16q94 0 143.5 -91t49.5 -261q0 -50 -6.5 -87.5t-20.5 -64.5t-35.5 -45.5t-52.5 -30.5q-41 -16 -99 -20t-146 -4h-37l-16 10v149l16 10h37q55 0 100.5 0.5t78 2.5t50 7.5
t17.5 14.5v58zM200 347q23 0 43 5t34 16q-17 89 -77 89q-30 0 -48.5 -17t-18.5 -44q0 -21 17 -35t50 -14zM204 649l-99 98l99 98l99 -98z" />
    <glyph glyph-name="uniFED4" unicode="&#x641;" horiz-adv-x="446" arabic-form="medial" 
d="M446 0q-70 0 -127.5 12.5t-95.5 30.5q-38 -18 -96 -30.5t-127 -12.5l-16 10v149l16 10h31t29 1q-19 39 -19 92q0 46 15 85t40.5 67.5t58.5 45t68 16.5t68 -16.5t58.5 -45t40.5 -67.5t15 -85q0 -53 -19 -92q14 -1 28.5 -1h31.5l16 -10v-149zM155 255q0 -23 15 -39.5
t53 -27.5q37 11 52.5 27.5t15.5 39.5q0 27 -19 44.5t-49 17.5t-49 -17.5t-19 -44.5zM223 521l-99 98l99 98l99 -98z" />
    <glyph glyph-name="uniFED5" unicode="&#x642;" horiz-adv-x="693" arabic-form="isolated" 
d="M354 -31q36 0 70.5 2.5t61 7.5t43 12t16.5 16v83q-41 -33 -98 -33q-73 0 -114.5 45t-41.5 125q0 47 14 86.5t38 68t55.5 44.5t67.5 16q91 0 142 -89.5t51 -270.5q0 -78 -22.5 -131.5t-63.5 -87t-99.5 -48.5t-131.5 -15q-74 0 -131 18t-95.5 50.5t-58 79t-19.5 103.5
q0 63 24 125t67 112l86 -52q-20 -35 -30 -70t-10 -64q0 -133 179 -133zM462 185q23 0 43 5t34 16q-17 89 -77 89q-30 0 -48.5 -17t-18.5 -44q0 -21 17 -35t50 -14zM535 488l-69 68l-69 -68l-99 98l99 98l69 -69l69 69l99 -98z" />
    <glyph glyph-name="uniFED6" unicode="&#x642;" horiz-adv-x="692" arabic-form="final" 
d="M692 0h-41q-11 -54 -37 -92t-66 -62t-92 -35t-114 -11q-74 0 -131 18t-95.5 50.5t-58 79t-19.5 103.5q0 63 24 125t67 112l86 -52q-20 -35 -30 -70t-10 -64q0 -133 179 -133q36 0 70.5 1.5t61 5.5t43 9.5t16.5 14.5v23h-28q-50 0 -91.5 12.5t-71.5 38t-46.5 64
t-16.5 89.5q0 47 14 86.5t38 68t55.5 44.5t67.5 16q79 0 128 -67.5t61 -205.5h37l16 -10v-149zM400 234q0 -31 29 -48t98 -17h16q-9 126 -81 126q-30 0 -46 -17t-16 -44zM535 488l-69 68l-69 -68l-99 98l99 98l69 -69l69 69l99 -98z" />
    <glyph glyph-name="uniFED7" unicode="&#x642;" horiz-adv-x="439" arabic-form="initial" 
d="M283 252q-41 -33 -98 -33q-73 0 -114.5 45t-41.5 125q0 47 14 86.5t38 68t55.5 44.5t67.5 16q94 0 143.5 -91t49.5 -261q0 -50 -6.5 -87.5t-20.5 -64.5t-35.5 -45.5t-52.5 -30.5q-41 -16 -99 -20t-146 -4h-37l-16 10v149l16 10h37q55 0 100.5 0.5t78 2.5t50 7.5
t17.5 14.5v58zM200 347q23 0 43 5t34 16q-17 89 -77 89q-30 0 -48.5 -17t-18.5 -44q0 -21 17 -35t50 -14zM273 649l-69 68l-69 -68l-99 98l99 98l69 -69l69 69l99 -98z" />
    <glyph glyph-name="uniFED8" unicode="&#x642;" horiz-adv-x="446" arabic-form="medial" 
d="M446 0q-70 0 -127.5 12.5t-95.5 30.5q-38 -18 -96 -30.5t-127 -12.5l-16 10v149l16 10h31t29 1q-19 39 -19 92q0 46 15 85t40.5 67.5t58.5 45t68 16.5t68 -16.5t58.5 -45t40.5 -67.5t15 -85q0 -53 -19 -92q14 -1 28.5 -1h31.5l16 -10v-149zM155 255q0 -23 15 -39.5
t53 -27.5q37 11 52.5 27.5t15.5 39.5q0 27 -19 44.5t-49 17.5t-49 -17.5t-19 -44.5zM292 521l-69 68l-69 -68l-99 98l99 98l69 -69l69 69l99 -98z" />
    <glyph glyph-name="uniFED9" unicode="&#x643;" horiz-adv-x="729" arabic-form="isolated" 
d="M541 650l144 26l-11 -475q-1 -57 -23.5 -97t-63.5 -65.5t-100 -37t-134 -11.5q-162 0 -240.5 53t-78.5 166q0 54 20 113t55 110l91 -44q-12 -27 -20.5 -59t-8.5 -56q0 -58 43.5 -85t138.5 -27q67 0 106 6t58.5 14t25 16.5t5.5 13.5zM268 394q45 6 70.5 13t25.5 13
q0 2 -4 4t-15 7l-11 5q-18 8 -25.5 20.5t-7.5 32.5q0 35 40 62t108 30l-5 -71q-26 -2 -41.5 -7.5t-15.5 -13.5q0 -3 4.5 -6.5t18.5 -8.5l13 -5q37 -15 37 -45q0 -18 -13.5 -35t-37 -30.5t-55 -22.5t-67.5 -11z" />
    <glyph glyph-name="uniFEDA" unicode="&#x643;" horiz-adv-x="772" arabic-form="final" 
d="M772 0q-56 0 -92.5 15.5t-62.5 46.5q-38 -35 -101.5 -53.5t-162.5 -18.5q-162 0 -240.5 53t-78.5 166q0 54 20 113t55 110l91 -44q-12 -27 -20.5 -59t-8.5 -56q0 -58 43.5 -85t138.5 -27q67 0 106 6t58.5 14t25 16.5t5.5 13.5l-7 439l144 26l-7 -477q17 -17 37.5 -23.5
t56.5 -6.5l16 -10v-149zM268 394q45 6 70.5 13t25.5 13q0 2 -4 4t-15 7l-11 5q-18 8 -25.5 20.5t-7.5 32.5q0 35 40 62t108 30l-5 -71q-26 -2 -41.5 -7.5t-15.5 -13.5q0 -3 4.5 -6.5t18.5 -8.5l13 -5q37 -15 37 -45q0 -18 -13.5 -35t-37 -30.5t-55 -22.5t-67.5 -11z" />
    <glyph glyph-name="uniFEDB" unicode="&#x643;" horiz-adv-x="448" arabic-form="initial" 
d="M-16 10v149l16 10q43 0 83.5 4.5t71 10.5t49 12.5t18.5 11.5q0 9 -15.5 27t-41 41.5t-58.5 50t-69 52.5l21 133q94 52 183 93.5t164 70.5l28 -147q-40 -14 -73 -25.5t-61.5 -22t-54.5 -20.5t-51 -20q78 -68 115 -127.5t37 -127.5q0 -97 -89 -141.5t-257 -44.5z" />
    <glyph glyph-name="uniFEDC" unicode="&#x643;" horiz-adv-x="425" arabic-form="medial" 
d="M425 0q-66 0 -113.5 11.5t-85.5 43.5q-32 -25 -85 -40t-141 -15l-16 10v149l16 10q56 0 86 2t52 8l-109 200l21 133q94 52 183 93.5t164 70.5l28 -147q-44 -15 -80 -28t-66.5 -24t-59 -22.5t-57.5 -23.5l115 -210q9 -18 20.5 -28t28.5 -15.5t40.5 -7t58.5 -1.5l16 -10
v-149z" />
    <glyph glyph-name="uniFEDD" unicode="&#x644;" horiz-adv-x="641" arabic-form="isolated" 
d="M449 650l144 26l-9 -625q0 -57 -18.5 -103.5t-53 -79t-85 -50.5t-114.5 -18q-65 0 -116 18t-86 50.5t-54 79t-19 103.5q0 63 24 125t67 112l86 -52q-20 -35 -30 -70t-10 -64q0 -61 33 -96.5t105 -35.5q30 0 57 5t46.5 15t30.5 24.5t11 33.5z" />
    <glyph glyph-name="uniFEDE" unicode="&#x644;" horiz-adv-x="680" arabic-form="final" 
d="M680 0q-32 0 -55.5 5t-41.5 15q-10 -101 -79.5 -160.5t-190.5 -59.5q-65 0 -116 18t-86 50.5t-54 79t-19 103.5q0 63 24 125t67 112l86 -52q-20 -35 -30 -70t-10 -64q0 -61 33 -96.5t105 -35.5q30 0 57 5t46.5 15t30.5 24.5t11 33.5l-9 602l144 26l-7 -477
q17 -17 37.5 -23.5t56.5 -6.5l16 -10v-149z" />
    <glyph glyph-name="uniFEDF" unicode="&#x644;" horiz-adv-x="268" arabic-form="initial" 
d="M-16 10v149l16 10q29 0 46 3.5t26 8.5t12 11.5t3 11.5l-7 446l144 26l-7 -459q-1 -59 -18 -100t-46.5 -67t-68.5 -38t-84 -12z" />
    <glyph glyph-name="uniFEE0" unicode="&#x644;" horiz-adv-x="311" arabic-form="medial" 
d="M311 0q-54 0 -89.5 14.5t-60.5 43.5q-26 -26 -65 -42t-96 -16l-16 10v149l16 10q29 0 46 3.5t26 8.5t12 11.5t3 11.5l-7 446l144 26l-7 -477q17 -17 37.5 -23.5t56.5 -6.5l16 -10v-149z" />
    <glyph glyph-name="uniFEE1" unicode="&#x645;" horiz-adv-x="575" arabic-form="isolated" 
d="M40 -380l-9 449q-1 46 29 73t81 27h15q-17 31 -17 71q0 41 16 77.5t43.5 64.5t64 44t76.5 16q42 0 78.5 -17t63 -46.5t41.5 -70.5t15 -89t-16 -88t-44 -69.5t-67.5 -45.5t-85.5 -16h-136q-21 0 -21 -18l-3 -362h-124zM257 216q0 -67 136 -67h10q16 20 16 50q0 33 -22 56
t-60 23q-35 0 -57.5 -17t-22.5 -45z" />
    <glyph glyph-name="uniFEE2" unicode="&#x645;" horiz-adv-x="595" arabic-form="final" 
d="M595 0q-34 0 -65.5 8t-57.5 26q-47 -44 -125 -44q-95 0 -165 72l-12 -25q-4 -9 -4 -18l-2 -399h-124l-9 410q-1 22 3 40t18 41l126 212q35 58 77.5 88.5t88.5 30.5q39 0 73 -19.5t59.5 -53.5t40 -79.5t14.5 -96.5v-13q22 -11 64 -11l16 -10v-149zM246 199q18 -22 47 -36
t59 -14q27 0 44 16t17 42q0 30 -21 50.5t-53 20.5q-29 0 -51 -18t-41 -58z" />
    <glyph glyph-name="uniFEE3" unicode="&#x645;" horiz-adv-x="541" arabic-form="initial" 
d="M319 -10q-99 0 -171 79q-57 -69 -148 -69l-16 10v149l16 10q18 0 31.5 3t25 11.5t22.5 22.5t24 37l47 80q33 57 76 88t90 31q39 0 73 -19.5t59.5 -53.5t40 -79.5t14.5 -96.5q0 -96 -48.5 -149.5t-135.5 -53.5zM218 199q18 -22 47 -36t59 -14q27 0 44 16t17 42
q0 30 -21 50.5t-53 20.5q-29 0 -51 -18t-41 -58z" />
    <glyph glyph-name="uniFEE4" unicode="&#x645;" horiz-adv-x="567" arabic-form="medial" 
d="M319 -10q-99 0 -171 79q-57 -69 -148 -69l-16 10v149l16 10q18 0 31.5 3t25 11.5t22.5 22.5t24 37l47 80q33 57 76 88t90 31q39 0 73 -19.5t59.5 -53.5t40 -79.5t14.5 -96.5q0 -96 -48.5 -149.5t-135.5 -53.5zM218 199q18 -22 47 -36t59 -14q27 0 44 16t17 42
q0 30 -21 50.5t-53 20.5q-29 0 -51 -18t-41 -58zM567 0q-55 0 -103.5 23t-72.5 75l86 121q0 -23 21 -36.5t69 -13.5l16 -10v-149z" />
    <glyph glyph-name="uniFEE5" unicode="&#x646;" horiz-adv-x="642" arabic-form="isolated" 
d="M540 336q14 -27 26.5 -61.5t21.5 -71t14.5 -72t5.5 -65.5q0 -59 -21 -107.5t-58.5 -84t-90 -55t-115.5 -19.5q-71 0 -124 18t-89 50.5t-54 79t-18 103.5q0 63 24 125t67 112l86 -52q-20 -35 -30 -70t-10 -64q0 -30 11 -54.5t31 -42t47 -26.5t59 -9q30 0 59 5.5t51.5 15.5
t36.5 24.5t14 32.5q0 12 -5.5 33t-15 49.5t-23.5 62.5t-31 70zM324 334l-99 98l99 98l99 -98z" />
    <glyph glyph-name="uniFEE6" unicode="&#x646;" horiz-adv-x="673" arabic-form="final" 
d="M540 336q14 -27 26.5 -61.5t21.5 -71t14.5 -72t5.5 -65.5q0 -59 -21 -107.5t-58.5 -84t-90 -55t-115.5 -19.5q-71 0 -124 18t-89 50.5t-54 79t-18 103.5q0 63 24 125t67 112l86 -52q-20 -35 -30 -70t-10 -64q0 -30 11 -54.5t31 -42t47 -26.5t59 -9q30 0 59 5.5t51.5 15.5
t36.5 24.5t14 32.5q0 12 -5.5 33t-15 49.5t-23.5 62.5t-31 70zM673 0q-55 0 -103.5 23t-72.5 75l86 121q0 -23 21 -36.5t69 -13.5l16 -10v-149zM324 334l-99 98l99 98l99 -98z" />
    <glyph glyph-name="uniFEE7" unicode="&#x646;" horiz-adv-x="290" arabic-form="initial" 
d="M-16 10v149l16 10q59 0 93.5 12.5t34.5 29.5q0 15 -5.5 36.5t-15.5 46.5t-23.5 51.5t-28.5 51.5l131 73q15 -24 27 -53.5t20.5 -61.5t13.5 -65t5 -64q0 -115 -61.5 -170.5t-190.5 -55.5zM117 516l-99 98l99 98l99 -98z" />
    <glyph glyph-name="uniFEE8" unicode="&#x646;" horiz-adv-x="333" arabic-form="medial" 
d="M333 0q-60 0 -97.5 17.5t-63.5 52.5q-24 -31 -66.5 -50.5t-105.5 -19.5l-16 10v149l16 10q29 0 48 4.5t30.5 11t16.5 15t7 16.5q3 16 6 34t5.5 34t4.5 29.5t3 22.5l123 -16q-2 -17 -4.5 -35.5t-4.5 -34.5t-3 -27.5t-1 -15.5q0 -19 22.5 -28.5t79.5 -9.5l16 -10v-149z
M189 392l-99 98l99 98l99 -98z" />
    <glyph glyph-name="uniFEE9" unicode="&#x647;" horiz-adv-x="482" arabic-form="isolated" 
d="M444 190q0 -96 -53 -148t-150 -52q-98 0 -150.5 51.5t-52.5 148.5q0 59 16 111t43.5 91t64.5 61.5t79 22.5t79 -22.5t64.5 -61.5t43.5 -91t16 -111zM323 198q0 48 -23 78.5t-59 30.5q-35 0 -58.5 -25.5t-23.5 -60.5q0 -32 22.5 -49.5t59.5 -17.5q33 0 57.5 13.5
t24.5 30.5z" />
    <glyph glyph-name="uniFEEA" unicode="&#x647;" horiz-adv-x="497" arabic-form="final" 
d="M497 0q-75 0 -124.5 28.5t-64.5 84.5q-23 -16 -50.5 -25t-55.5 -9q-39 0 -71 12.5t-55 36t-35.5 56t-12.5 71.5q0 88 67 150.5t199 95.5l-1 69l132 24l-6 -358q-1 -34 17 -50.5t61 -16.5l16 -10v-149zM235 238q17 0 34 2.5t31 8.5l-2 104q-30 -1 -57 -6.5t-47.5 -14.5
t-32.5 -21.5t-12 -25.5q0 -23 24.5 -35t61.5 -12z" />
    <glyph glyph-name="uniFEEB" unicode="&#x647;" horiz-adv-x="612" arabic-form="initial" 
d="M41 254q0 37 13.5 70.5t36.5 59.5t52.5 41.5t61.5 16.5l55 135q77 -27 136 -67t99.5 -89t61.5 -105t21 -116q0 -94 -57 -147t-157 -53q-36 0 -74 9.5t-86 32.5q-42 -17 -93.5 -29.5t-110.5 -12.5l-16 10v149l16 10h29t28 1q-8 20 -12 40.5t-4 43.5zM142 255q0 -46 64 -69
q39 11 55.5 28t16.5 41q0 28 -19.5 44t-48.5 16t-48.5 -16t-19.5 -44zM379 254q0 -45 -17 -85q53 2 75 12.5t22 20.5q0 21 -9 49.5t-28.5 59t-52 58.5t-78.5 48q38 -25 63 -68.5t25 -94.5z" />
    <glyph glyph-name="uniFEEC" unicode="&#x647;" horiz-adv-x="471" arabic-form="medial" 
d="M471 0h-36q8 -22 8 -49q0 -37 -14.5 -67t-39.5 -51.5t-59 -33t-74 -11.5q-43 0 -78.5 15.5t-62.5 43t-44.5 67t-24.5 87.5q-11 -1 -22.5 -1h-23.5l-16 10v149l16 10h50q11 61 34 116.5t52 98t63 67.5t68 25q28 0 55.5 -18.5t49 -49.5t34.5 -71t13 -82q0 -47 -18 -86h70
l16 -10v-149zM254 317q-15 0 -29.5 -11t-27.5 -30.5t-23.5 -45.5t-16.5 -55q83 8 119 26.5t36 47.5q0 11 -4.5 23t-12 22t-18.5 16.5t-23 6.5zM336 -6q0 24 -14.5 37.5t-40.5 20.5q-53 -25 -120 -38q28 -72 98 -72q22 0 37 5.5t24 13.5t12.5 17t3.5 16z" />
    <glyph glyph-name="uniFEED" unicode="&#x648;" horiz-adv-x="443" arabic-form="isolated" 
d="M36 -50q115 4 178 31.5t82 84.5q-41 -39 -101 -39q-35 0 -63.5 13.5t-48.5 38t-31 58.5t-11 74q0 50 14 92.5t39 73t59.5 48t75.5 17.5q43 0 76.5 -24.5t56.5 -65.5t35 -95t12 -113q0 -76 -22 -138t-63 -107t-99 -70.5t-130 -28.5zM223 166q21 0 41 4t36 13
q-17 100 -79 100q-32 0 -51.5 -18t-19.5 -47q0 -23 19 -37.5t54 -14.5z" />
    <glyph glyph-name="uniFEEE" unicode="&#x648;" horiz-adv-x="450" arabic-form="final" 
d="M450 0h-66q-34 -90 -108.5 -142.5t-180.5 -57.5l-59 150q178 6 236 73h-29q-95 0 -148.5 50t-53.5 138q0 50 14 92.5t39 73t59.5 48t75.5 17.5t73 -22t55 -59.5t36 -87t15 -104.5h42l16 -10v-149zM150 218q0 -18 9 -27.5t24 -14.5t35 -6t42 -1h41q-6 56 -27 85t-53 29
t-51.5 -18t-19.5 -47z" />
    <glyph glyph-name="uniFEEF" unicode="&#x649;" horiz-adv-x="688" arabic-form="isolated" 
d="M417 92q-58 17 -90.5 60t-32.5 106q0 43 15.5 82.5t42 69.5t62 48t75.5 18q62 0 104 -38.5t59 -96.5l-80 -60q-32 46 -87 46q-30 0 -48.5 -13t-18.5 -31q0 -7 2.5 -13.5t11 -13t25.5 -14t46 -16.5l51 -16q104 -32 104 -127q0 -53 -30.5 -104t-80 -90.5t-112.5 -64
t-129 -24.5q-63 0 -112.5 18t-84 50.5t-53 79t-18.5 103.5q0 63 24 125t67 112l86 -52q-20 -35 -30 -70t-10 -64q0 -30 11 -54.5t31 -42t47 -26.5t59 -9q35 0 71 7.5t65 19t47.5 24t18.5 22.5t-10.5 16t-46.5 17z" />
    <glyph glyph-name="uniFEF0" unicode="&#x649;" horiz-adv-x="661" arabic-form="final" 
d="M661 0q-31 0 -59 9q1 -5 1 -10.5v-10.5q0 -26 -24 -59t-65 -61.5t-94.5 -48t-113.5 -19.5q-63 0 -112.5 18t-84 50.5t-53 79t-18.5 103.5q0 63 24 125t67 112l86 -52q-20 -35 -30 -70t-10 -64q0 -30 11 -54.5t31 -42t47 -26.5t59 -9q35 0 65.5 5.5t53 14.5t35 20t12.5 21
q0 17 -27.5 52t-72.5 88l108 94q24 -31 44.5 -49.5t39 -29t38 -14t42.5 -3.5l16 -10v-149z" />
    <glyph glyph-name="uniFEF1" unicode="&#x64a;" horiz-adv-x="688" arabic-form="isolated" 
d="M417 92q-58 17 -90.5 60t-32.5 106q0 43 15.5 82.5t42 69.5t62 48t75.5 18q62 0 104 -38.5t59 -96.5l-80 -60q-32 46 -87 46q-30 0 -48.5 -13t-18.5 -31q0 -7 2.5 -13.5t11 -13t25.5 -14t46 -16.5l51 -16q104 -32 104 -127q0 -53 -30.5 -104t-80 -90.5t-112.5 -64
t-129 -24.5q-63 0 -112.5 18t-84 50.5t-53 79t-18.5 103.5q0 63 24 125t67 112l86 -52q-20 -35 -30 -70t-10 -64q0 -30 11 -54.5t31 -42t47 -26.5t59 -9q35 0 71 7.5t65 19t47.5 24t18.5 22.5t-10.5 16t-46.5 17zM375 -440l-69 69l-69 -69l-99 98l99 98l69 -68l69 68l99 -98
z" />
    <glyph glyph-name="uniFEF2" unicode="&#x64a;" horiz-adv-x="661" arabic-form="final" 
d="M661 0q-31 0 -59 9q1 -5 1 -10.5v-10.5q0 -26 -24 -59t-65 -61.5t-94.5 -48t-113.5 -19.5q-63 0 -112.5 18t-84 50.5t-53 79t-18.5 103.5q0 63 24 125t67 112l86 -52q-20 -35 -30 -70t-10 -64q0 -30 11 -54.5t31 -42t47 -26.5t59 -9q35 0 65.5 5.5t53 14.5t35 20t12.5 21
q0 17 -27.5 52t-72.5 88l108 94q24 -31 44.5 -49.5t39 -29t38 -14t42.5 -3.5l16 -10v-149zM375 -440l-69 69l-69 -69l-99 98l99 98l69 -68l69 68l99 -98z" />
    <glyph glyph-name="uniFEF3" unicode="&#x64a;" horiz-adv-x="290" arabic-form="initial" 
d="M-16 10v149l16 10q59 0 93.5 12.5t34.5 29.5q0 15 -5.5 36.5t-15.5 46.5t-23.5 51.5t-28.5 51.5l131 73q15 -24 27 -53.5t20.5 -61.5t13.5 -65t5 -64q0 -115 -61.5 -170.5t-190.5 -55.5zM209 -241l-69 69l-69 -69l-99 98l99 98l69 -68l69 68l99 -98z" />
    <glyph glyph-name="uniFEF4" unicode="&#x64a;" horiz-adv-x="333" arabic-form="medial" 
d="M333 0q-60 0 -97.5 17.5t-63.5 52.5q-24 -31 -66.5 -50.5t-105.5 -19.5l-16 10v149l16 10q29 0 48 4.5t30.5 11t16.5 15t7 16.5q3 16 6 34t5.5 34t4.5 29.5t3 22.5l123 -16q-2 -17 -4.5 -35.5t-4.5 -34.5t-3 -27.5t-1 -15.5q0 -19 22.5 -28.5t79.5 -9.5l16 -10v-149z
M234 -241l-69 69l-69 -69l-99 98l99 98l69 -68l69 68l99 -98z" />
    <glyph glyph-name=".notdef" horiz-adv-x="364" 
d="M33 0v666h265v-666h-265zM66 33h199v600h-199v-600z" />
    <glyph glyph-name=".null" horiz-adv-x="0" 
 />
    <glyph glyph-name="nonmarkingreturn" unicode="&#x9;" horiz-adv-x="181" 
 />
    <glyph glyph-name="nonmarkingreturn" unicode="&#xd;" horiz-adv-x="181" 
 />
    <glyph glyph-name="uni0008" horiz-adv-x="0" 
 />
    <glyph glyph-name="uni0008" horiz-adv-x="0" 
 />
    <glyph glyph-name="uni0008" horiz-adv-x="0" 
 />
    <glyph glyph-name="space" unicode=" " horiz-adv-x="181" 
 />
    <glyph glyph-name="exclam" unicode="!" horiz-adv-x="305" 
d="M67 170h171v-170h-171v170zM60 667h185l-10 -441h-165z" />
    <glyph glyph-name="quotedbl" unicode="&#x22;" horiz-adv-x="456" 
d="M42 667h153v-266h-153v266zM261 667h153v-266h-153v266z" />
    <glyph glyph-name="numbersign" unicode="#" horiz-adv-x="713" 
d="M123 134h-84v121h117l28 105h-82v121h115l41 149h132l-40 -149h111l41 149h133l-40 -149h79v-121h-112l-28 -105h76v-121h-109l-36 -134h-133l35 134h-111l-36 -134h-132zM400 255l28 105h-111l-28 -105h111z" />
    <glyph glyph-name="dollar" unicode="$" 
d="M113 200q37 -35 84 -52t92 -17q10 0 21.5 2t21 7.5t15.5 14t6 22.5q0 24 -28.5 37.5t-68.5 27.5q-35 12 -72 27.5t-68 39t-51 57t-20 82.5q0 43 14 76.5t38.5 57.5t57 39t69.5 22v86h118v-85q45 -6 86.5 -23.5t76.5 -48.5l-90 -118q-26 22 -60 34.5t-64 12.5
q-12 0 -25.5 -1.5t-25 -6.5t-19.5 -14t-8 -25q0 -13 8 -22t22 -16.5t32 -14t38 -12.5q34 -11 71 -25.5t68 -37.5t51 -58t20 -87q0 -40 -15 -71.5t-39.5 -55t-57.5 -39.5t-69 -23v-100h-118v95q-57 6 -111 27.5t-96 62.5z" />
    <glyph glyph-name="percent" unicode="%" horiz-adv-x="925" 
d="M586 630h143l-394 -630h-147zM714 -10q-41 0 -72 14t-51 38t-30 57.5t-10 72.5t10 72t30 57t51 37.5t72 13.5t72 -13.5t51.5 -37.5t30.5 -57t10 -72t-10 -72.5t-30.5 -57.5t-51.5 -38t-72 -14zM714 85q15 0 24 9t13.5 22.5t6 28.5t1.5 27t-1.5 27t-6 28.5t-13.5 22.5
t-24 9t-24 -9t-13.5 -22.5t-6 -28.5t-1.5 -27t1.5 -27t6 -28.5t13.5 -22.5t24 -9zM209 284q-41 0 -72 14t-51 38t-30 57.5t-10 72.5t10 72t30 57t51 37.5t72 13.5t72 -13.5t51.5 -37.5t30.5 -57t10 -72t-10 -72.5t-30.5 -57.5t-51.5 -38t-72 -14zM209 379q15 0 24 9
t13.5 22.5t6 28.5t1.5 27t-1.5 27t-6 28.5t-13.5 22.5t-24 9t-24 -9t-13.5 -22.5t-6 -28.5t-1.5 -27t1.5 -27t6 -28.5t13.5 -22.5t24 -9z" />
    <glyph glyph-name="ampersand" unicode="&#x26;" horiz-adv-x="690" 
d="M438 48q-27 -20 -51.5 -32t-47 -19.5t-44.5 -10t-45 -2.5q-45 0 -85.5 13t-71 38.5t-48 62.5t-17.5 85q0 62 32 115.5t94 88.5q-23 35 -28.5 62t-5.5 50q0 39 16 72.5t45 59t69 40t88 14.5q63 0 115.5 -30.5t81.5 -97.5l-122 -71q-10 25 -26.5 41.5t-42.5 16.5
q-24 0 -40.5 -14.5t-16.5 -38.5q0 -17 10 -32.5t21 -28.5l142 -166q20 20 42.5 45t48.5 54l111 -101q-29 -32 -55.5 -59.5t-49.5 -50.5l130 -152h-208zM241 281q-26 -17 -37.5 -38t-11.5 -44q0 -32 23.5 -49.5t53.5 -17.5q19 0 36.5 5.5t39.5 20.5z" />
    <glyph glyph-name="quotesingle" unicode="'" horiz-adv-x="237" 
d="M42 667h153v-266h-153v266z" />
    <glyph glyph-name="parenleft" unicode="(" horiz-adv-x="347" 
d="M150 -93q-8 14 -23.5 49.5t-31.5 88t-28 119.5t-12 143t12 142.5t28 119t31.5 88t23.5 49.5h172q-4 -7 -19 -42t-31.5 -89t-30 -123t-13.5 -145t13.5 -145.5t30 -123.5t31.5 -89t19 -42h-172z" />
    <glyph glyph-name="parenright" unicode=")" horiz-adv-x="347" 
d="M25 -93q4 7 19 42t31.5 89t30 123.5t13.5 145.5t-13.5 145t-30 123t-31.5 89t-19 42h172q7 -14 23 -49.5t32 -88t28 -119t12 -142.5t-12 -143t-28 -119.5t-32 -88t-23 -49.5h-172z" />
    <glyph glyph-name="asterisk" unicode="*" horiz-adv-x="486" 
d="M40 476l105 42l-105 42l66 114l85 -64l-15 104h132l-13 -106l85 63l66 -114l-105 -37l105 -41l-66 -114l-86 64l14 -107h-132l16 104l-86 -64z" />
    <glyph glyph-name="plus" unicode="+" 
d="M212 250h-131v132h131v136h136v-136h132v-132h-132v-134h-136v134z" />
    <glyph glyph-name="comma" unicode="," horiz-adv-x="292" 
d="M113 0h-63v182h187v-182l-83 -143h-103z" />
    <glyph glyph-name="hyphen" unicode="-" horiz-adv-x="450" 
d="M60 361h330v-162h-330v162z" />
    <glyph glyph-name="period" unicode="." horiz-adv-x="292" 
d="M55 181h182v-181h-182v181z" />
    <glyph glyph-name="slash" unicode="/" horiz-adv-x="471" 
d="M283 685h171l-263 -701h-174z" />
    <glyph glyph-name="zero" unicode="0" 
d="M281 -16q-62 0 -109 24t-78.5 68t-47.5 105t-16 135t16 135t47.5 105t78.5 68t109 24q66 0 113.5 -24t77.5 -68t44.5 -105t14.5 -135t-14.5 -135t-44.5 -105t-77.5 -68t-113.5 -24zM281 138q24 0 39 14t24 38t12.5 56.5t3.5 69.5t-3.5 69.5t-12.5 56.5t-24 38t-39 14
t-39.5 -14t-24 -38t-12 -56.5t-3.5 -69.5t3.5 -69.5t12 -56.5t24 -38t39.5 -14z" />
    <glyph glyph-name="one" unicode="1" 
d="M101 144h110v302l-89 -48l-72 128l189 104h135v-486h102v-144h-375v144z" />
    <glyph glyph-name="two" unicode="2" 
d="M44 92q0 49 21 88t52 70.5t68 58t68 49.5t52 44.5t21 44.5q0 21 -18 38.5t-55 17.5q-20 0 -36.5 -7t-29.5 -17t-22 -21.5t-15 -20.5l-122 84q15 25 37.5 48t53 40.5t69.5 28t87 10.5q53 0 94 -16t68.5 -42.5t42 -60t14.5 -68.5q0 -43 -18 -77.5t-45.5 -63t-60 -51.5
t-60.5 -43.5t-47 -39t-20 -36.5h253v-150h-452v92z" />
    <glyph glyph-name="three" unicode="3" 
d="M96 189q35 -30 67 -44.5t69 -14.5q19 0 36 5t30 15t21 25.5t8 36.5q0 14 -5.5 28t-16.5 25t-27 18t-37 7q-23 0 -41.5 -4.5t-25.5 -8.5l-38 62l160 148h-233v143h415v-116l-122 -132q66 -17 103.5 -66t37.5 -123q0 -50 -22 -89t-57.5 -65.5t-80.5 -40.5t-91 -14
q-72 0 -132.5 21.5t-105.5 61.5z" />
    <glyph glyph-name="four" unicode="4" 
d="M27 232l269 398h167v-385h63v-135h-63v-110h-155v110h-281v122zM308 245v188l-128 -188h128z" />
    <glyph glyph-name="five" unicode="5" 
d="M104 187q27 -25 57.5 -41t67.5 -16q49 0 72.5 25.5t23.5 56.5q0 16 -6 31t-18 27t-30 19.5t-41 7.5q-18 0 -43 -4.5t-46 -15.5l-72 53l47 300h353v-143h-241l-12 -80q7 2 27 4t33 2q47 0 86.5 -14.5t68 -40.5t44.5 -64t16 -84t-16 -87t-47.5 -72t-77 -49t-105.5 -18
q-77 0 -131.5 24.5t-97.5 64.5z" />
    <glyph glyph-name="six" unicode="6" 
d="M433 481q-24 13 -49.5 18.5t-45.5 5.5q-18 0 -37.5 -6t-37 -19.5t-31.5 -35.5t-21 -54q22 15 52 23t56 8q49 0 87.5 -16t65 -43.5t40 -65.5t13.5 -81q0 -47 -16 -89.5t-46.5 -74t-74 -50t-98.5 -18.5q-53 0 -99 17.5t-79.5 56.5t-53 100t-19.5 148q0 70 19.5 132
t57.5 109t93.5 74.5t127.5 27.5q53 0 89 -12t63 -26zM206 260q1 -38 8.5 -63t19.5 -40t27 -21.5t30 -6.5q36 0 56.5 23.5t20.5 59.5q0 39 -23.5 59t-55.5 21q-27 0 -47 -9t-36 -23z" />
    <glyph glyph-name="seven" unicode="7" 
d="M98 0q18 58 45 127t57.5 135.5t60.5 125.5t54 97h-269v145h441v-135q-41 -70 -72.5 -134t-57 -124.5t-46 -119t-39.5 -117.5h-174z" />
    <glyph glyph-name="eight" unicode="8" 
d="M279 386q31 10 53 29.5t22 48.5q0 31 -21 49.5t-54 18.5t-54 -18.5t-21 -49.5q0 -29 22 -48.5t53 -29.5zM279 277q-16 -5 -32 -12t-28.5 -17.5t-20.5 -25t-8 -33.5q0 -18 7.5 -32t20 -23t28.5 -13.5t33 -4.5t33 4.5t28.5 13.5t20 23t7.5 32q0 19 -8 33.5t-21 25
t-28.5 17.5t-31.5 12zM126 346q-29 18 -51.5 52t-22.5 79q0 36 16 67t45.5 54.5t71.5 36.5t94 13t94 -13t72 -36.5t46.5 -54.5t16.5 -67q0 -45 -22.5 -79t-51.5 -52q47 -23 75 -62.5t28 -100.5q0 -34 -15.5 -69.5t-47.5 -64t-80.5 -47t-114.5 -18.5q-65 0 -113 17t-80 44.5
t-47.5 63t-15.5 72.5q0 61 29 101.5t74 63.5z" />
    <glyph glyph-name="nine" unicode="9" 
d="M128 152q24 -14 51 -20t47 -6q60 0 88 28t36 84q-23 -14 -53 -21.5t-60 -7.5q-50 0 -87 17t-61.5 46t-37 66t-12.5 78q0 47 15.5 89.5t45 74t72 50t97.5 18.5q53 0 98.5 -18t79.5 -58t53 -105t19 -159q0 -59 -16 -117t-50.5 -104.5t-90.5 -75t-135 -28.5
q-53 0 -93.5 12.5t-66.5 27.5zM354 381q0 65 -23.5 93t-57.5 28q-36 0 -56.5 -23.5t-20.5 -59.5q0 -35 19.5 -56.5t51.5 -22.5q29 0 48.5 8.5t38.5 25.5v7z" />
    <glyph glyph-name="colon" unicode=":" horiz-adv-x="292" 
d="M55 181h182v-181h-182v181zM55 470h182v-181h-182v181z" />
    <glyph glyph-name="semicolon" unicode=";" horiz-adv-x="292" 
d="M113 0h-63v182h187v-182l-83 -143h-103zM54 470h182v-181h-182v181z" />
    <glyph glyph-name="less" unicode="&#x3c;" 
d="M70 363l353 187l60 -119l-229 -114l237 -114l-68 -124l-353 187v97z" />
    <glyph glyph-name="equal" unicode="=" 
d="M81 276h399v-132h-399v132zM81 473h399v-132h-399v132z" />
    <glyph glyph-name="greater" unicode="&#x3e;" 
d="M491 266l-353 -187l-68 124l237 114l-229 114l60 119l353 -187v-97z" />
    <glyph glyph-name="question" unicode="?" horiz-adv-x="541" 
d="M182 230q0 35 6.5 60.5t17.5 45t24.5 33t27.5 24.5q13 10 25.5 19t22 18.5t15.5 20t6 24.5q0 16 -7.5 26.5t-18.5 16.5t-25 8.5t-26 2.5q-35 0 -68 -17t-59 -43l-98 116q45 46 105.5 73.5t138.5 27.5q45 0 86 -11t73 -35t51 -61.5t19 -89.5q0 -29 -6.5 -51.5t-17.5 -39.5
t-24.5 -30.5t-27.5 -24.5q-15 -13 -30.5 -24.5t-27.5 -24t-19.5 -28.5t-7.5 -37v-4h-155v5zM173 170h171v-170h-171v170z" />
    <glyph glyph-name="at" unicode="@" horiz-adv-x="962" 
d="M122 -19q-9 10 -23.5 35.5t-28.5 63t-24 85t-10 101.5q0 105 37.5 183.5t100.5 131t146 78.5t174 26q116 0 198 -31.5t134 -86t76 -128t24 -158.5q0 -81 -19 -137t-50 -91.5t-70.5 -51.5t-80.5 -16q-27 0 -47.5 3.5t-36 10t-29 17.5t-26.5 26q-20 -23 -52.5 -40.5
t-90.5 -17.5q-28 0 -57 6.5t-53 22.5t-39 43.5t-15 69.5t17.5 73.5t47.5 52t70.5 30.5t86.5 10q20 0 29 -1t26 -3v24q0 15 -6.5 24.5t-17 15.5t-23.5 8t-26 2q-45 0 -76.5 -11.5t-52.5 -26.5l-66 96q30 24 83 44.5t136 20.5q98 0 153 -46t55 -142v-135q0 -36 9.5 -50.5
t30.5 -14.5q15 0 29 13.5t24 37.5t16 57.5t6 74.5q0 79 -23.5 136t-65.5 94t-100 54.5t-128 17.5q-61 0 -122 -16.5t-110 -54t-80 -98t-31 -147.5q0 -45 8.5 -83.5t20 -67.5t22 -48t14.5 -25zM537 204q-5 1 -13.5 2t-24.5 1q-42 0 -58.5 -17t-16.5 -40q0 -51 51 -51
q26 0 44 15.5t18 57.5v32z" />
    <glyph glyph-name="A" unicode="A" horiz-adv-x="692" 
d="M249 667h203l236 -667h-191l-43 138h-223l-44 -138h-183zM418 267l-74 245l-77 -245h151z" />
    <glyph glyph-name="B" unicode="B" horiz-adv-x="633" 
d="M60 667h271q70 0 116 -15.5t73 -40t37.5 -56t10.5 -62.5q0 -29 -9.5 -52t-24 -40.5t-31.5 -29.5t-32 -17q19 -6 42 -18t43 -32t34 -48t14 -65q0 -100 -69.5 -145.5t-203.5 -45.5h-271v667zM310 399q31 0 55.5 15.5t24.5 53.5q0 21 -7 35.5t-18.5 22.5t-26 11.5t-28.5 3.5
h-77v-142h77zM323 126q15 0 33 2.5t33 10.5t25 24t10 43q0 25 -10 40.5t-25 23.5t-33 11t-33 3h-90v-158h90z" />
    <glyph glyph-name="C" unicode="C" horiz-adv-x="683" 
d="M678 124q-113 -141 -297 -141q-77 0 -141 26t-109.5 72t-71 110t-25.5 141q0 76 25 140.5t71 112t110 74t141 26.5q87 0 161 -29t125 -101l-117 -118q-28 38 -67 61t-89 23q-42 0 -75 -14t-55.5 -39t-34.5 -58.5t-12 -72.5q0 -40 12.5 -74t35.5 -59t55.5 -39t72.5 -14
q58 0 94.5 20.5t71.5 64.5z" />
    <glyph glyph-name="D" unicode="D" horiz-adv-x="708" 
d="M60 667h256q77 0 142.5 -20t113.5 -61t75 -105t27 -151q0 -83 -27.5 -144.5t-75.5 -103t-114 -62t-142 -20.5h-255v667zM309 156q87 0 134.5 49.5t47.5 128.5q0 40 -11 72.5t-33.5 56t-56.5 36.5t-81 13h-72v-356h72z" />
    <glyph glyph-name="E" unicode="E" horiz-adv-x="593" 
d="M60 667h480v-153h-303v-103h249v-144h-249v-114h324v-153h-501v667z" />
    <glyph glyph-name="F" unicode="F" horiz-adv-x="545" 
d="M60 667h465v-155h-288v-129h223v-146h-223v-237h-177v667z" />
    <glyph glyph-name="G" unicode="G" horiz-adv-x="723" 
d="M400 381h274v-301q-60 -51 -137.5 -73.5t-155.5 -22.5q-81 0 -145.5 24.5t-109.5 70t-68.5 110.5t-23.5 146q0 76 25.5 140.5t71.5 111t109.5 72.5t140.5 26q83 0 155.5 -27.5t121.5 -91.5l-115 -116q-31 31 -66.5 51t-82.5 20q-43 0 -76 -15t-55.5 -40.5t-34.5 -60
t-12 -73.5q0 -43 13 -77.5t36 -59t56 -38t74 -13.5q33 0 63 8t58 28v64h-116v137z" />
    <glyph glyph-name="H" unicode="H" horiz-adv-x="720" 
d="M60 667h177v-244h246v244h177v-667h-177v261h-246v-261h-177v667z" />
    <glyph glyph-name="I" unicode="I" horiz-adv-x="297" 
d="M60 667h177v-667h-177v667z" />
    <glyph glyph-name="J" unicode="J" horiz-adv-x="540" 
d="M115 194q19 -22 46.5 -39t63.5 -17q46 0 65 24.5t19 67.5v437h177v-457q0 -54 -18.5 -96.5t-51.5 -72t-77.5 -44.5t-96.5 -15q-66 0 -128 25.5t-104 77.5z" />
    <glyph glyph-name="K" unicode="K" horiz-adv-x="688" 
d="M60 667h177v-250l199 250h207l-222 -257l257 -410h-215l-163 270l-63 -74v-196h-177v667z" />
    <glyph glyph-name="L" unicode="L" horiz-adv-x="566" 
d="M60 667h177v-511h309v-156h-486v667z" />
    <glyph glyph-name="M" unicode="M" horiz-adv-x="814" 
d="M77 667h169l162 -291l159 291h170l31 -667h-179l-16 391l-117 -228h-97l-130 228l-13 -391h-170z" />
    <glyph glyph-name="N" unicode="N" horiz-adv-x="712" 
d="M60 667h161l256 -372v372h175v-667h-151l-266 383v-383h-175v667z" />
    <glyph glyph-name="O" unicode="O" horiz-adv-x="762" 
d="M381 -16q-75 0 -138.5 26.5t-110 73t-72.5 111t-26 140.5t26 140.5t72.5 111t110 72.5t138.5 26t139 -26t110 -72.5t72 -111t26 -140.5t-26 -140.5t-72 -111t-110 -73t-139 -26.5zM381 150q39 0 69.5 14.5t51.5 39.5t32 59t11 72t-11 72t-32 59t-51.5 39.5t-69.5 14.5
t-69.5 -14.5t-51.5 -39.5t-32 -59t-11 -72t11 -72t32 -59t51.5 -39.5t69.5 -14.5z" />
    <glyph glyph-name="P" unicode="P" horiz-adv-x="597" 
d="M60 667h272q54 0 97.5 -14.5t74.5 -42t48 -69t17 -95.5q0 -51 -17.5 -92.5t-48 -71t-73 -45t-93.5 -15.5h-104v-222h-173v667zM317 361q36 0 57 23t21 59q0 38 -20 61t-59 23h-83v-166h84z" />
    <glyph glyph-name="Q" unicode="Q" horiz-adv-x="762" 
d="M536 17q-35 -16 -73.5 -24.5t-81.5 -8.5q-75 0 -138.5 26.5t-110 73t-72.5 111t-26 140.5t26 140.5t72.5 111t110 72.5t138.5 26t139 -26t110 -72.5t72 -111t26 -140.5t-25.5 -140t-72.5 -111l66 -79l-89 -73zM354 238l88 73l73 -89q15 23 22.5 52t7.5 61q0 38 -11 72
t-32 59t-51.5 39.5t-69.5 14.5t-69.5 -14.5t-51.5 -39.5t-32 -59t-11 -72t11 -72t32 -59t51.5 -39.5t69.5 -14.5q11 0 21 1.5t20 3.5z" />
    <glyph glyph-name="R" unicode="R" horiz-adv-x="628" 
d="M60 667h276q54 0 97.5 -14t74.5 -41.5t48 -68.5t17 -95q0 -66 -29 -114.5t-77 -77.5l143 -256h-190l-113 227h-74v-227h-173v667zM319 366q35 0 57 21.5t22 57.5q0 38 -21 60t-59 22h-85v-161h86z" />
    <glyph glyph-name="S" unicode="S" horiz-adv-x="590" 
d="M112 211q28 -28 73 -51t99 -23q13 0 27 2.5t25 8.5t18 16t7 26q0 26 -26.5 43t-77.5 34l-37 12q-31 10 -62.5 26t-56.5 38.5t-40.5 53t-15.5 71.5q0 46 17 85.5t49.5 69t80.5 46t111 16.5q49 0 89 -9t70 -22t51 -28t32 -27l-90 -114q-35 26 -73 42.5t-78 16.5
q-13 0 -26 -3t-23.5 -9t-17 -15.5t-6.5 -23.5q0 -15 7.5 -26t20.5 -19t31.5 -14.5t39.5 -13.5l32 -10q34 -11 69 -25.5t63 -39t46 -61t18 -89.5q0 -46 -21.5 -85t-58 -67t-86 -43.5t-105.5 -15.5q-100 0 -167.5 26.5t-114.5 71.5z" />
    <glyph glyph-name="T" unicode="T" horiz-adv-x="627" 
d="M225 512h-205v155h587v-155h-203v-512h-179v512z" />
    <glyph glyph-name="U" unicode="U" horiz-adv-x="687" 
d="M56 667h177v-391q0 -55 25.5 -90t84.5 -35t84 35.5t25 89.5v391h179v-407q0 -64 -21 -115.5t-59.5 -87.5t-91 -55t-115.5 -19t-116 19t-91.5 54.5t-59.5 87t-21 116.5v407z" />
    <glyph glyph-name="V" unicode="V" horiz-adv-x="680" 
d="M4 667h193l150 -464l140 464h189l-243 -667h-187z" />
    <glyph glyph-name="W" unicode="W" horiz-adv-x="931" 
d="M10 667h187l86 -447l105 431h161l106 -431l85 447h181l-166 -667h-185l-105 422l-105 -422h-188z" />
    <glyph glyph-name="X" unicode="X" horiz-adv-x="689" 
d="M233 341l-227 326h218l111 -173l107 173h197l-207 -309l251 -358h-221l-133 205l-129 -205h-194z" />
    <glyph glyph-name="Y" unicode="Y" horiz-adv-x="668" 
d="M245 266l-237 401h203l130 -238l122 238h197l-238 -400v-267h-177v266z" />
    <glyph glyph-name="Z" unicode="Z" horiz-adv-x="623" 
d="M30 137l337 375h-320v155h539v-136l-331 -376h338v-155h-563v137z" />
    <glyph glyph-name="bracketleft" unicode="[" horiz-adv-x="357" 
d="M70 706h268v-128h-119v-541h119v-130h-268v799z" />
    <glyph glyph-name="backslash" unicode="\" horiz-adv-x="471" 
d="M454 -16h-174l-263 701h171z" />
    <glyph glyph-name="bracketright" unicode="]" horiz-adv-x="357" 
d="M287 -93h-268v130h119v541h-119v128h268v-799z" />
    <glyph glyph-name="asciicircum" unicode="^" 
d="M212 668h137l180 -375h-172l-76 177l-78 -177h-171z" />
    <glyph glyph-name="underscore" unicode="_" horiz-adv-x="500" 
d="M0 -65h500v-55h-500v55z" />
    <glyph glyph-name="grave" unicode="`" horiz-adv-x="440" 
d="M117 682h159l48 -142h-117z" />
    <glyph glyph-name="a" unicode="a" horiz-adv-x="527" 
d="M315 44q-32 -34 -64.5 -47t-80.5 -13q-23 0 -49 6.5t-48 22.5t-36 43.5t-14 69.5t18 74.5t49 54t72 32.5t86 11q23 0 36.5 -1t30.5 -3v9q0 18 -7.5 29.5t-19 18t-25 9t-26.5 2.5q-45 0 -79 -11.5t-55 -26.5l-64 97q30 24 84 44t138 20q49 0 89 -12.5t69 -38t45 -63
t16 -87.5v-284h-159zM315 203q-17 4 -46 4q-42 0 -62 -16.5t-20 -39.5q0 -52 56 -52q13 0 26 3.5t23 12t16.5 22.5t6.5 35v31z" />
    <glyph glyph-name="b" unicode="b" horiz-adv-x="569" 
d="M218 132q23 -10 59 -10q41 0 67 28t26 89q0 16 -4 33.5t-13 31.5t-23 23t-33 9q-42 0 -60.5 -26t-18.5 -65v-113zM49 667h169v-235q13 15 29.5 24t33 14.5t31 7.5t24.5 2q49 0 87.5 -19.5t64 -52t39 -74.5t13.5 -88q0 -125 -72 -193.5t-212 -68.5q-60 0 -115 12t-92 26
v645z" />
    <glyph glyph-name="c" unicode="c" horiz-adv-x="483" 
d="M478 62q-13 -15 -32 -29t-43.5 -25t-54.5 -17.5t-65 -6.5q-53 0 -99.5 18t-81 51t-54 79.5t-19.5 103.5q0 53 19.5 98.5t54 79.5t81 53t99.5 19q70 0 117.5 -22t77.5 -56l-99 -113q-11 13 -31 28t-60 15q-35 0 -62 -27.5t-27 -74.5q0 -23 7.5 -42.5t19.5 -33t28 -21
t34 -7.5q19 0 34 4.5t26 11.5t18.5 14.5l12.5 12.5z" />
    <glyph glyph-name="d" unicode="d" horiz-adv-x="574" 
d="M362 48q-26 -31 -61 -46t-68 -15q-38 0 -69.5 11.5t-56.5 32.5q-38 32 -58 84.5t-20 115.5q0 53 18 98.5t51.5 79t80 52.5t103.5 19q23 0 42 -3.5t32 -7.5v198h169v-667h-154zM356 329q-26 9 -55 9q-45 0 -73.5 -28t-28.5 -85q0 -42 20.5 -67.5t62.5 -25.5q37 0 55.5 22
t18.5 62v113z" />
    <glyph glyph-name="e" unicode="e" horiz-adv-x="533" 
d="M493 34q-12 -7 -30.5 -15.5t-43.5 -16t-56 -13t-66 -5.5q-130 0 -199 65.5t-69 183.5q0 47 15 92.5t45.5 81t77 57.5t108.5 22q48 0 90.5 -16.5t74 -50t49.5 -84t18 -118.5v-32h-318q1 -12 6.5 -25t19 -24.5t36 -18.5t55.5 -7q43 0 78.5 11t55.5 23zM357 285q0 12 -5 25
t-15.5 24t-26 18.5t-37.5 7.5q-21 0 -37 -7.5t-26 -18.5t-15 -24t-5 -25h167z" />
    <glyph glyph-name="f" unicode="f" horiz-adv-x="372" 
d="M87 340h-72v130h72v18q0 48 16 84.5t44 61.5t66.5 38t84.5 13q44 0 82.5 -12.5t67.5 -35.5l-70 -109q-14 10 -30.5 16t-34.5 6q-26 0 -41.5 -16t-15.5 -43v-21h102v-130h-102v-340h-169v340z" />
    <glyph glyph-name="g" unicode="g" horiz-adv-x="567" 
d="M127 -44q27 -17 57.5 -26.5t62.5 -9.5q52 0 77.5 23.5t25.5 78.5v16q-23 -21 -53 -27t-59 -6q-50 0 -89 16t-65.5 45t-40.5 69.5t-14 89.5q0 61 20 109t56.5 80t87 49t110.5 17q56 0 109.5 -10t105.5 -29v-403q0 -134 -65 -192t-190 -58q-53 0 -104 11t-96 40zM351 334
q-27 9 -54 9q-26 0 -45 -9t-31 -24t-17.5 -35.5t-5.5 -43.5q0 -47 22.5 -70t56.5 -23q33 0 53.5 19.5t20.5 61.5v115z" />
    <glyph glyph-name="h" unicode="h" horiz-adv-x="577" 
d="M49 667h169v-240q14 17 32 28t37 17t36.5 8t30.5 2q37 0 69 -10.5t56 -33t37.5 -58t13.5 -84.5v-296h-169v252q0 38 -16.5 59.5t-48.5 21.5q-23 0 -38 -7t-24 -19t-12.5 -26.5t-3.5 -29.5v-251h-169v667z" />
    <glyph glyph-name="i" unicode="i" horiz-adv-x="273" 
d="M45 667h183v-133h-183v133zM52 470h169v-470h-169v470z" />
    <glyph glyph-name="j" unicode="j" horiz-adv-x="286" 
d="M58 667h183v-133h-183v133zM-64 -36q14 -8 29 -14t31 -6q44 0 56.5 23t12.5 62v441h169v-421q0 -54 -9 -99.5t-32.5 -79t-63.5 -52t-102 -18.5q-43 0 -84 12.5t-70 36.5z" />
    <glyph glyph-name="k" unicode="k" horiz-adv-x="554" 
d="M49 667h169v-328l117 131h188l-160 -173l186 -297h-194l-104 180l-33 -35v-145h-169v667z" />
    <glyph glyph-name="l" unicode="l" horiz-adv-x="267" 
d="M49 667h169v-667h-169v667z" />
    <glyph glyph-name="m" unicode="m" horiz-adv-x="875" 
d="M49 470h163l6 -52q27 34 63.5 49t72.5 15q33 0 56.5 -7.5t39.5 -18t25 -21t14 -16.5q11 12 29 23.5t38.5 20.5t43 14t42.5 5q91 0 138.5 -50t47.5 -136v-296h-169v251q0 38 -15 60t-49 22t-55.5 -22t-21.5 -60v-251h-159v251q0 38 -14.5 60t-49.5 22q-32 0 -54.5 -22
t-22.5 -60v-251h-169v470z" />
    <glyph glyph-name="n" unicode="n" horiz-adv-x="573" 
d="M49 470h163l6 -49q14 17 32 29t37 19t36.5 10t30.5 3q37 0 68.5 -10.5t54.5 -33t36 -58t13 -84.5v-296h-169v256q0 35 -14.5 56t-46.5 21q-23 0 -38 -7t-24 -19t-12.5 -26.5t-3.5 -29.5v-251h-169v470z" />
    <glyph glyph-name="o" unicode="o" horiz-adv-x="560" 
d="M280 132q42 0 67 29t25 74t-25 74t-67 29t-67 -29t-25 -74t25 -74t67 -29zM29 235q0 52 18.5 98t51.5 80t79 53.5t102 19.5t102 -19.5t79 -53.5t51.5 -80t18.5 -98q0 -53 -18.5 -98.5t-51.5 -79.5t-79 -53.5t-102 -19.5t-102 19.5t-79 53.5t-51.5 79.5t-18.5 98.5z" />
    <glyph glyph-name="p" unicode="p" horiz-adv-x="569" 
d="M49 470h162l7 -49q13 19 29.5 30.5t33 17.5t31 8t24.5 2q49 0 87.5 -19.5t64 -52t39 -74.5t13.5 -88q0 -62 -19 -110t-53 -81t-79.5 -50.5t-97.5 -17.5q-22 0 -42.5 4t-31.5 7v-197h-168v670zM218 134q23 -10 59 -10q41 0 67 26.5t26 87.5q0 16 -4 33.5t-13 31.5t-23 23
t-33 9q-42 0 -60.5 -26t-18.5 -65v-110z" />
    <glyph glyph-name="q" unicode="q" horiz-adv-x="574" 
d="M356 27q-18 -18 -46.5 -27.5t-63.5 -9.5q-48 0 -88 14.5t-68.5 44t-44.5 75t-16 107.5q0 53 18.5 98.5t54 79t87.5 52.5t119 19q51 0 102.5 -8.5t114.5 -31.5v-640h-169v227zM356 329q-26 9 -55 9q-45 0 -73.5 -28t-28.5 -85q0 -42 20.5 -67.5t62.5 -25.5q37 0 55.5 22
t18.5 62v113z" />
    <glyph glyph-name="r" unicode="r" horiz-adv-x="404" 
d="M49 470h163l6 -59q20 28 49.5 47.5t71.5 19.5q20 0 34.5 -2t25.5 -6l-22 -144q-24 6 -49 6q-110 0 -110 -121v-211h-169v470z" />
    <glyph glyph-name="s" unicode="s" horiz-adv-x="486" 
d="M87 156q12 -10 29 -18.5t35.5 -14.5t37 -9.5t32.5 -3.5q26 0 44.5 6t18.5 28q0 16 -21.5 25.5t-76.5 26.5q-31 9 -57 21.5t-45 29.5t-29.5 40t-10.5 53t14.5 56.5t41 46.5t64 31.5t82.5 11.5q58 0 104.5 -14t87.5 -41l-57 -105q-27 16 -56.5 28t-61.5 12q-52 0 -52 -28
q0 -12 9.5 -19.5t25.5 -13t37 -11t45 -13.5q36 -12 59 -27t36.5 -33t18.5 -39.5t5 -45.5q0 -43 -19.5 -72t-50.5 -47t-69.5 -25.5t-75.5 -7.5q-61 0 -120.5 16.5t-96.5 48.5z" />
    <glyph glyph-name="t" unicode="t" horiz-adv-x="434" 
d="M79 340h-69v130h69v155h169v-155h116v-130h-116v-166q0 -58 55 -58q16 0 31.5 7t28.5 16l66 -104q-32 -25 -71 -39t-80 -14q-57 0 -95.5 16t-61.5 44.5t-32.5 68.5t-9.5 87v142z" />
    <glyph glyph-name="u" unicode="u" horiz-adv-x="571" 
d="M47 470h169v-257q0 -35 14.5 -56t51.5 -21q20 0 33.5 7t22 19t12 26.5t3.5 29.5v252h169v-470h-163l-6 48q-14 -17 -32 -29t-37 -19t-36.5 -10t-30.5 -3q-37 0 -68 10.5t-53.5 33t-35.5 57.5t-13 85v297z" />
    <glyph glyph-name="v" unicode="v" horiz-adv-x="563" 
d="M5 470h184l96 -281l89 281h184l-204 -470h-151z" />
    <glyph glyph-name="w" unicode="w" horiz-adv-x="790" 
d="M5 470h167l74 -276l83 276h131l84 -276l74 276h167l-163 -470h-146l-81 242l-81 -242h-146z" />
    <glyph glyph-name="x" unicode="x" horiz-adv-x="547" 
d="M177 233l-172 237h195l74 -114l75 114h181l-165 -228l177 -242h-195l-79 118l-79 -118h-181z" />
    <glyph glyph-name="y" unicode="y" horiz-adv-x="573" 
d="M81 -54q14 -10 32 -17t32 -7q23 0 38 8.5t26 37.5l14 38l-218 464h192l100 -272l95 272h176l-187 -463q-18 -44 -35.5 -83.5t-42 -69.5t-59.5 -48t-87 -18q-37 0 -72 10.5t-67 32.5z" />
    <glyph glyph-name="z" unicode="z" horiz-adv-x="508" 
d="M34 104l221 232h-208v134h425v-107l-215 -233h218v-130h-441v104z" />
    <glyph glyph-name="braceleft" unicode="{" horiz-adv-x="317" 
d="M98 189q-2 31 -18.5 52t-54.5 21v90q38 0 54.5 21t18.5 52l14 160q4 44 15 73t34 48h141q-18 -18 -32 -51.5t-18 -78.5l-14 -175q-2 -18 -10.5 -33.5t-21 -27.5t-27 -20.5t-28.5 -12.5q14 -4 28.5 -13t27.5 -23t22 -33.5t11 -44.5l14 -175q2 -29 16 -61t32 -50h-141
q-23 19 -34 48.5t-15 73.5z" />
    <glyph glyph-name="bar" unicode="|" horiz-adv-x="281" 
d="M65 833h151v-997h-151v997z" />
    <glyph glyph-name="braceright" unicode="}" horiz-adv-x="317" 
d="M205 29q-4 -44 -15 -73.5t-34 -48.5h-141q18 18 32 50t16 61l14 175q2 25 11 44.5t22 33.5t27.5 23t28.5 13q-14 4 -28.5 12.5t-27 20.5t-21.5 27.5t-10 33.5l-14 175q-4 45 -18 78.5t-32 51.5h141q23 -19 34 -48t15 -73l14 -160q2 -31 18.5 -52t54.5 -21v-90
q-38 0 -54.5 -21t-18.5 -52z" />
    <glyph glyph-name="asciitilde" unicode="~" 
d="M49 332q38 32 75 50.5t73 18.5q25 0 43.5 -6.5t34.5 -15t31.5 -15t35.5 -6.5q26 0 47 8.5t48 30.5l75 -124q-32 -28 -70.5 -48.5t-77.5 -20.5q-24 0 -42.5 6.5t-35 15t-32.5 15t-35 6.5q-26 0 -47.5 -9.5t-47.5 -29.5z" />
    <glyph glyph-name="uni00A0" unicode="&#xa0;" horiz-adv-x="181" 
 />
    <glyph glyph-name="exclamdown" unicode="&#xa1;" horiz-adv-x="305" 
d="M238 300h-171v170h171v-170zM245 -197h-185l10 441h165z" />
    <glyph glyph-name="cent" unicode="&#xa2;" 
d="M278 66q-45 7 -82.5 27.5t-65.5 52.5t-43.5 74.5t-15.5 92.5q0 47 15.5 88.5t43.5 73.5t65.5 54t82.5 30v90h101v-91q48 -8 82.5 -27.5t58.5 -45.5l-99 -113q-11 13 -31 28t-60 15q-35 0 -62 -27.5t-27 -74.5t25 -75t64 -28q19 0 34 4.5t26 11.5t18.5 14.5l12.5 12.5
l99 -113q-21 -23 -56.5 -44t-84.5 -30v-85h-101v85z" />
    <glyph glyph-name="sterling" unicode="&#xa3;" 
d="M112 269h-71v96h71v46q0 54 15.5 98t45.5 74.5t73 47.5t98 17q59 0 108.5 -20.5t87.5 -66.5l-99 -108q-14 16 -34 28t-42 12q-21 0 -35.5 -7.5t-24 -20.5t-13.5 -29t-4 -34v-37h161v-96h-161v-114h251v-155h-427v269z" />
    <glyph glyph-name="currency" unicode="&#xa4;" 
d="M98 227q-23 41 -23 93q0 47 20 87l-65 68l91 93l67 -70q19 8 39 13t43 5q51 0 95 -25l73 77l92 -93l-78 -81q7 -17 11 -35.5t4 -38.5q0 -42 -17 -81l80 -83l-92 -91l-78 80q-41 -21 -90 -21q-42 0 -76 15l-73 -74l-91 91zM270 250q29 0 49 20.5t20 49.5q0 28 -20 48
t-49 20t-49 -20t-20 -48q0 -29 20 -49.5t49 -20.5z" />
    <glyph glyph-name="yen" unicode="&#xa5;" 
d="M67 190h123v64h-123v90h77l-144 286h183l99 -247l101 247h178l-145 -286h77v-90h-122v-64h122v-90h-122v-100h-181v100h-123v90z" />
    <glyph glyph-name="brokenbar" unicode="&#xa6;" horiz-adv-x="281" 
d="M65 833h151v-379h-151v379zM65 215h151v-379h-151v379z" />
    <glyph glyph-name="section" unicode="&#xa7;" horiz-adv-x="488" 
d="M149 328q-51 32 -72 74.5t-21 91.5q0 41 16.5 76t44.5 60.5t65.5 40t79.5 14.5q36 0 65.5 -8.5t51 -19.5t34.5 -21t17 -14l-82 -124q-5 3 -14.5 9t-20.5 12.5t-23.5 11t-24.5 4.5q-19 0 -30 -10t-11 -24q0 -11 5.5 -20.5t21.5 -20.5l195 -130l-90 -135zM140 -25
q5 -3 14 -9t20.5 -12.5t24 -11t24.5 -4.5q19 0 30 10t11 24q0 11 -5.5 20.5t-21.5 20.5l-195 130l90 135l207 -133q51 -32 72 -74.5t21 -91.5q0 -41 -16.5 -76t-44.5 -60.5t-65.5 -40t-79.5 -14.5q-36 0 -65.5 8.5t-51 19.5t-34.5 21t-17 14z" />
    <glyph glyph-name="dieresis" unicode="&#xa8;" horiz-adv-x="440" 
d="M255 671h131v-120h-131v120zM54 671h131v-120h-131v120z" />
    <glyph glyph-name="copyright" unicode="&#xa9;" horiz-adv-x="803" 
d="M563 231q-26 -35 -66 -60.5t-92 -25.5q-43 0 -78.5 14.5t-60.5 40.5t-39 61.5t-14 76.5q0 39 14 74t39.5 61t61 41t77.5 15q52 0 92 -25.5t66 -61.5l-76 -59q-11 20 -31 35t-46 15q-42 0 -66 -27t-24 -69q0 -40 24.5 -67t65.5 -27q29 0 48.5 16t28.5 33zM401 -14
q-73 0 -136 27t-109.5 74.5t-73.5 111t-27 136.5t27 136.5t73.5 110.5t110 74.5t136.5 27.5t136 -27.5t109.5 -74.5t73.5 -110.5t27 -136.5t-27 -136.5t-74 -111t-110 -74.5t-136 -27zM401 69q55 0 102 20.5t81.5 56t54 84t19.5 105.5q0 56 -19.5 104.5t-54 84.5t-81.5 56.5
t-101 20.5q-55 0 -102 -20.5t-81.5 -56.5t-54.5 -84.5t-20 -104.5q0 -57 19.5 -105.5t54 -84t81.5 -56t102 -20.5z" />
    <glyph glyph-name="ordfeminine" unicode="&#xaa;" horiz-adv-x="390" 
d="M233 349q-20 -20 -43.5 -29t-52.5 -9q-45 0 -73.5 26.5t-28.5 72.5q0 31 14.5 51.5t37 33t49.5 17.5t53 5q20 0 40 -3v17q0 19 -17.5 26.5t-33.5 7.5q-24 0 -48 -6.5t-44 -20.5l-43 65q32 25 72 35t80 10q31 0 57.5 -7.5t46 -23t31 -39.5t11.5 -57v-199h-105zM229 455
q-14 3 -28 3q-8 0 -18 -2t-18 -6.5t-13.5 -11.5t-5.5 -17q0 -17 11 -25t27 -8q21 0 33 12.5t12 33.5v21z" />
    <glyph glyph-name="guillemotleft" unicode="&#xab;" horiz-adv-x="619" 
d="M48 242l105 199h168l-104 -199l104 -201h-168zM294 242l105 199h168l-104 -199l104 -201h-168z" />
    <glyph glyph-name="logicalnot" unicode="&#xac;" 
d="M81 382h399v-266h-136v134h-263v132z" />
    <glyph glyph-name="uni00AD" unicode="&#xad;" horiz-adv-x="450" 
d="M60 361h330v-162h-330v162z" />
    <glyph glyph-name="registered" unicode="&#xae;" horiz-adv-x="512" 
d="M256 233q-49 0 -91 16.5t-72.5 46t-47.5 71t-17 91.5q0 51 17 92.5t47.5 71t72.5 46t91 16.5t91 -16.5t72.5 -46t47.5 -71t17 -92.5q0 -50 -17 -91.5t-47.5 -71t-72.5 -46t-91 -16.5zM256 297q34 0 63 11.5t50 33t33 51t12 65.5t-12 66t-33 51t-50 32.5t-63 11.5
q-35 0 -63.5 -11.5t-49.5 -32.5t-32.5 -51t-11.5 -66t11.5 -65.5t32.5 -51t49.5 -33t63.5 -11.5zM177 576h91q33 0 54 -18.5t21 -49.5q0 -25 -11.5 -42t-29.5 -25l54 -84h-61l-48 76h-16v-76h-54v219zM253 476q20 0 29 6t9 22q0 15 -8 21.5t-21 6.5h-31v-56h22z" />
    <glyph glyph-name="macron" unicode="&#xaf;" horiz-adv-x="440" 
d="M77 660h286v-113h-286v113z" />
    <glyph glyph-name="degree" unicode="&#xb0;" horiz-adv-x="381" 
d="M40 519q0 32 12 59.5t32 47t47.5 30.5t58.5 11t59 -11t48 -30.5t32 -47t12 -59.5t-12 -59t-32 -46.5t-48 -30.5t-59 -11t-58.5 11t-47.5 30.5t-32 46.5t-12 59zM190 468q23 0 36 15t13 36q0 22 -13 37t-36 15q-22 0 -35 -15t-13 -37q0 -21 13 -36t35 -15z" />
    <glyph glyph-name="plusminus" unicode="&#xb1;" 
d="M81 132h131v118h-131v132h131v136h136v-136h132v-132h-132v-118h132v-132h-399v132z" />
    <glyph glyph-name="uni00B2" unicode="&#xb2;" horiz-adv-x="360" 
d="M39 446q0 20 9.5 37t24 31.5t32 27t34.5 23.5q23 14 41 28t18 28q0 22 -31 22q-34 0 -80 -29l-55 74q36 24 69 36t73 12q29 0 55 -6.5t45.5 -19.5t31 -33t11.5 -47q0 -25 -8 -43.5t-21.5 -33t-30.5 -26t-35 -22.5q-12 -7 -21.5 -13t-20.5 -14h139v-94h-280v62z" />
    <glyph glyph-name="uni00B3" unicode="&#xb3;" horiz-adv-x="360" 
d="M69 500q21 -14 45 -22.5t47 -8.5q17 0 30 7t13 22q0 19 -14.5 24.5t-29.5 5.5q-11 0 -24 -1.5t-27 -5.5l-25 51l98 63h-129v92h254v-76l-72 -57q43 -7 64 -33.5t21 -67.5q0 -31 -13.5 -53.5t-36 -37t-51 -21.5t-57.5 -7q-38 0 -75.5 11.5t-72.5 32.5z" />
    <glyph glyph-name="acute" unicode="&#xb4;" horiz-adv-x="440" 
d="M165 682h159l-90 -142h-117z" />
    <glyph glyph-name="mu" unicode="&#xb5;" horiz-adv-x="573" 
d="M49 470h169v-255q0 -38 15.5 -58.5t50.5 -20.5q20 0 33.5 7t22 19t12 26.5t3.5 29.5v252h169v-470h-163l-5 43q-13 -25 -37.5 -37t-52.5 -12q-26 0 -48 9v-203h-169v670z" />
    <glyph glyph-name="paragraph" unicode="&#xb6;" horiz-adv-x="579" 
d="M366 667h153v-789h-153v789zM267 293q-47 0 -91 8.5t-77.5 30t-53.5 57.5t-20 91q0 54 20 90t54 57.5t77.5 30.5t90.5 9h42v-374h-42zM156 246q26 -8 55.5 -10t55.5 -2h42v-356h-153v368z" />
    <glyph glyph-name="periodcentered" unicode="&#xb7;" horiz-adv-x="292" 
d="M55 326h182v-181h-182v181z" />
    <glyph glyph-name="cedilla" unicode="&#xb8;" horiz-adv-x="440" 
d="M113 -139q17 -6 35 -10t36 -4q7 0 16.5 0.5t18 3.5t14.5 8.5t6 14.5t-5.5 14t-13.5 7t-17 2.5t-15 0.5q-36 0 -68 -13l14 69q43 12 88 12q22 0 43.5 -5t38.5 -16t27.5 -28.5t10.5 -42.5q0 -28 -12.5 -48t-32 -33t-44.5 -19t-49 -6q-27 0 -53.5 4t-52.5 14z" />
    <glyph glyph-name="uni00B9" unicode="&#xb9;" horiz-adv-x="360" 
d="M158 614q-17 -8 -33.5 -17t-33.5 -16l-43 86l122 60h107v-343h-119v230z" />
    <glyph glyph-name="ordmasculine" unicode="&#xba;" horiz-adv-x="423" 
d="M42 480q0 35 12 66t34.5 53.5t54 35.5t69.5 13t69 -13t53.5 -35.5t34.5 -53.5t12 -66t-12 -66t-34.5 -53.5t-53.5 -35.5t-69 -13t-69.5 13t-54 35.5t-34.5 53.5t-12 66zM212 414q27 0 42.5 18.5t15.5 47.5t-15.5 47.5t-42.5 18.5t-43 -18.5t-16 -47.5t16 -47.5t43 -18.5z
" />
    <glyph glyph-name="guillemotright" unicode="&#xbb;" horiz-adv-x="619" 
d="M153 242l-104 199h168l105 -199l-105 -201h-168zM398 242l-104 199h168l105 -199l-105 -201h-168z" />
    <glyph glyph-name="onequarter" unicode="&#xbc;" horiz-adv-x="875" 
d="M551 630h143l-394 -630h-147zM512 144l149 199h126v-199h36v-86h-36v-58h-110v58h-165v86zM677 144v91l-70 -91h70zM130 524q-17 -8 -33.5 -17t-33.5 -16l-43 86l122 60h107v-343h-119v230z" />
    <glyph glyph-name="onehalf" unicode="&#xbd;" horiz-adv-x="925" 
d="M558 630h143l-394 -630h-147zM577 63q0 20 9.5 37t24 31.5t32 27t34.5 23.5q23 14 41 28t18 28q0 22 -31 22q-34 0 -80 -29l-55 74q36 24 69 36t73 12q29 0 55 -6.5t45.5 -19.5t31 -33t11.5 -47q0 -25 -8 -43.5t-21.5 -33t-30.5 -26t-35 -22.5q-12 -7 -21.5 -13
t-20.5 -14h139v-94h-280v62zM142 524q-17 -8 -33.5 -17t-33.5 -16l-43 86l122 60h107v-343h-119v230z" />
    <glyph glyph-name="threequarters" unicode="&#xbe;" horiz-adv-x="925" 
d="M605 630h143l-394 -630h-147zM556 145l149 199h126v-199h36v-86h-36v-58h-110v58h-165v86zM721 145v91l-70 -91h70zM112 410q21 -14 45 -22.5t47 -8.5q17 0 30 7t13 22q0 19 -14.5 24.5t-29.5 5.5q-11 0 -24 -1.5t-27 -5.5l-25 51l98 63h-129v92h254v-76l-72 -57
q43 -7 64 -33.5t21 -67.5q0 -31 -13.5 -53.5t-36 -37t-51 -21.5t-57.5 -7q-38 0 -75.5 11.5t-72.5 32.5z" />
    <glyph glyph-name="questiondown" unicode="&#xbf;" horiz-adv-x="541" 
d="M359 240q0 -35 -6.5 -60.5t-17.5 -45t-24.5 -33t-27.5 -24.5q-13 -10 -25.5 -19t-22 -18.5t-15.5 -20t-6 -24.5q0 -16 7.5 -26.5t18.5 -16.5t25 -8.5t26 -2.5q35 0 68 17t59 43l98 -116q-45 -46 -105.5 -73.5t-138.5 -27.5q-45 0 -86 11t-73 35t-51 61t-19 90
q0 29 6.5 51.5t17.5 39.5t24.5 30.5t27.5 24.5q15 13 30.5 24.5t27.5 24t19.5 28.5t7.5 37v4h155v-5zM368 300h-171v170h171v-170z" />
    <glyph glyph-name="Agrave" unicode="&#xc0;" horiz-adv-x="692" 
d="M249 667h203l236 -667h-191l-43 138h-223l-44 -138h-183zM418 267l-74 245l-77 -245h151zM169 873h179l73 -156h-128z" />
    <glyph glyph-name="Aacute" unicode="&#xc1;" horiz-adv-x="692" 
d="M249 667h203l236 -667h-191l-43 138h-223l-44 -138h-183zM418 267l-74 245l-77 -245h151zM349 873h179l-124 -156h-128z" />
    <glyph glyph-name="Acircumflex" unicode="&#xc2;" horiz-adv-x="692" 
d="M249 667h203l236 -667h-191l-43 138h-223l-44 -138h-183zM418 267l-74 245l-77 -245h151zM282 873h128l116 -156h-135l-45 68l-46 -68h-134z" />
    <glyph glyph-name="Atilde" unicode="&#xc3;" horiz-adv-x="692" 
d="M249 667h203l236 -667h-191l-43 138h-223l-44 -138h-183zM418 267l-74 245l-77 -245h151zM135 809q25 27 58.5 45t71.5 18q19 0 36 -6.5t34 -15t34 -15t36 -6.5q26 0 49.5 10.5t44.5 27.5l58 -90q-25 -27 -58.5 -45t-71.5 -18q-19 0 -36 6.5t-33.5 15t-33.5 15t-36 6.5
q-27 0 -50.5 -10.5t-43.5 -27.5z" />
    <glyph glyph-name="Adieresis" unicode="&#xc4;" horiz-adv-x="692" 
d="M249 667h203l236 -667h-191l-43 138h-223l-44 -138h-183zM418 267l-74 245l-77 -245h151zM388 859h141v-128h-141v128zM163 859h141v-128h-141v128z" />
    <glyph glyph-name="Aring" unicode="&#xc5;" horiz-adv-x="692" 
d="M207 767q0 29 11.5 54t31 43.5t45 29t54.5 10.5t54.5 -10.5t45 -29t31 -44t11.5 -54.5q0 -30 -12 -55.5t-32 -43.5h5l236 -667h-191l-43 138h-223l-44 -138h-183l245 667h1q-20 18 -31.5 43.5t-11.5 56.5zM418 267l-74 245l-77 -245h151zM349 723q18 0 30 13t12 30
q0 18 -12 31t-30 13t-30 -12.5t-12 -30.5t12 -31t30 -13z" />
    <glyph glyph-name="AE" unicode="&#xc6;" horiz-adv-x="965" 
d="M367 667h545v-155h-275v-100h222v-146h-222v-110h296v-156h-462v151h-203l-75 -151h-193zM471 290v227h-19l-115 -227h134z" />
    <glyph glyph-name="Ccedilla" unicode="&#xc7;" horiz-adv-x="683" 
d="M678 124q-113 -141 -297 -141q-77 0 -141 26t-109.5 72t-71 110t-25.5 141q0 76 25 140.5t71 112t110 74t141 26.5q87 0 161 -29t125 -101l-117 -118q-28 38 -67 61t-89 23q-42 0 -75 -14t-55.5 -39t-34.5 -58.5t-12 -72.5q0 -40 12.5 -74t35.5 -59t55.5 -39t72.5 -14
q58 0 94.5 20.5t71.5 64.5zM272 -141q36 -12 72 -12q7 0 16.5 0.5t17.5 2.5t14 7t6 14q0 8 -5.5 12t-13 6t-16.5 2.5t-15 0.5q-17 0 -34.5 -2t-34.5 -8l14 69q22 6 44 8t45 2q22 0 43.5 -4.5t38.5 -15t28 -28t11 -42.5q0 -28 -12.5 -47.5t-32.5 -32t-44.5 -18t-49.5 -5.5
q-27 0 -54 3t-53 13z" />
    <glyph glyph-name="Egrave" unicode="&#xc8;" horiz-adv-x="593" 
d="M60 667h480v-153h-303v-103h249v-144h-249v-114h324v-153h-501v667zM148 873h179l73 -156h-128z" />
    <glyph glyph-name="Eacute" unicode="&#xc9;" horiz-adv-x="593" 
d="M60 667h480v-153h-303v-103h249v-144h-249v-114h324v-153h-501v667zM311 873h179l-124 -156h-128z" />
    <glyph glyph-name="Ecircumflex" unicode="&#xca;" horiz-adv-x="593" 
d="M60 667h480v-153h-303v-103h249v-144h-249v-114h324v-153h-501v667zM243 873h128l116 -156h-135l-45 68l-46 -68h-134z" />
    <glyph glyph-name="Edieresis" unicode="&#xcb;" horiz-adv-x="593" 
d="M60 667h480v-153h-303v-103h249v-144h-249v-114h324v-153h-501v667zM346 859h141v-128h-141v128zM121 859h141v-128h-141v128z" />
    <glyph glyph-name="Igrave" unicode="&#xcc;" horiz-adv-x="297" 
d="M60 667h177v-667h-177v667zM-24 873h179l73 -156h-128z" />
    <glyph glyph-name="Iacute" unicode="&#xcd;" horiz-adv-x="297" 
d="M60 667h177v-667h-177v667zM147 873h179l-124 -156h-128z" />
    <glyph glyph-name="Icircumflex" unicode="&#xce;" horiz-adv-x="297" 
d="M60 667h177v-667h-177v667zM86 873h128l116 -156h-135l-45 68l-46 -68h-134z" />
    <glyph glyph-name="Idieresis" unicode="&#xcf;" horiz-adv-x="297" 
d="M60 667h177v-667h-177v667zM192 859h141v-128h-141v128zM-33 859h141v-128h-141v128z" />
    <glyph glyph-name="Eth" unicode="&#xd0;" horiz-adv-x="708" 
d="M60 289h-60v90h60v288h256q77 0 142.5 -20t113.5 -61t75 -105t27 -151q0 -83 -27.5 -144.5t-75.5 -103t-114 -62t-142 -20.5h-255v289zM309 156q87 0 134.5 49.5t47.5 128.5q0 40 -11 72.5t-33.5 56t-56.5 36.5t-81 13h-72v-133h108v-90h-108v-133h72z" />
    <glyph glyph-name="Ntilde" unicode="&#xd1;" horiz-adv-x="712" 
d="M60 667h161l256 -372v372h175v-667h-151l-266 383v-383h-175v667zM151 809q25 27 58.5 45t71.5 18q19 0 36 -6.5t34 -15t34 -15t36 -6.5q26 0 49.5 10.5t44.5 27.5l58 -90q-25 -27 -58.5 -45t-71.5 -18q-19 0 -36 6.5t-33.5 15t-33.5 15t-36 6.5q-27 0 -50.5 -10.5
t-43.5 -27.5z" />
    <glyph glyph-name="Ograve" unicode="&#xd2;" horiz-adv-x="762" 
d="M381 -16q-75 0 -138.5 26.5t-110 73t-72.5 111t-26 140.5t26 140.5t72.5 111t110 72.5t138.5 26t139 -26t110 -72.5t72 -111t26 -140.5t-26 -140.5t-72 -111t-110 -73t-139 -26.5zM381 150q39 0 69.5 14.5t51.5 39.5t32 59t11 72t-11 72t-32 59t-51.5 39.5t-69.5 14.5
t-69.5 -14.5t-51.5 -39.5t-32 -59t-11 -72t11 -72t32 -59t51.5 -39.5t69.5 -14.5zM205 873h179l73 -156h-128z" />
    <glyph glyph-name="Oacute" unicode="&#xd3;" horiz-adv-x="762" 
d="M381 -16q-75 0 -138.5 26.5t-110 73t-72.5 111t-26 140.5t26 140.5t72.5 111t110 72.5t138.5 26t139 -26t110 -72.5t72 -111t26 -140.5t-26 -140.5t-72 -111t-110 -73t-139 -26.5zM381 150q39 0 69.5 14.5t51.5 39.5t32 59t11 72t-11 72t-32 59t-51.5 39.5t-69.5 14.5
t-69.5 -14.5t-51.5 -39.5t-32 -59t-11 -72t11 -72t32 -59t51.5 -39.5t69.5 -14.5zM367 873h179l-124 -156h-128z" />
    <glyph glyph-name="Ocircumflex" unicode="&#xd4;" horiz-adv-x="762" 
d="M381 -16q-75 0 -138.5 26.5t-110 73t-72.5 111t-26 140.5t26 140.5t72.5 111t110 72.5t138.5 26t139 -26t110 -72.5t72 -111t26 -140.5t-26 -140.5t-72 -111t-110 -73t-139 -26.5zM381 150q39 0 69.5 14.5t51.5 39.5t32 59t11 72t-11 72t-32 59t-51.5 39.5t-69.5 14.5
t-69.5 -14.5t-51.5 -39.5t-32 -59t-11 -72t11 -72t32 -59t51.5 -39.5t69.5 -14.5zM317 873h128l116 -156h-135l-45 68l-46 -68h-134z" />
    <glyph glyph-name="Otilde" unicode="&#xd5;" horiz-adv-x="762" 
d="M381 -16q-75 0 -138.5 26.5t-110 73t-72.5 111t-26 140.5t26 140.5t72.5 111t110 72.5t138.5 26t139 -26t110 -72.5t72 -111t26 -140.5t-26 -140.5t-72 -111t-110 -73t-139 -26.5zM381 150q39 0 69.5 14.5t51.5 39.5t32 59t11 72t-11 72t-32 59t-51.5 39.5t-69.5 14.5
t-69.5 -14.5t-51.5 -39.5t-32 -59t-11 -72t11 -72t32 -59t51.5 -39.5t69.5 -14.5zM170 809q25 27 58.5 45t71.5 18q19 0 36 -6.5t34 -15t34 -15t36 -6.5q26 0 49.5 10.5t44.5 27.5l58 -90q-25 -27 -58.5 -45t-71.5 -18q-19 0 -36 6.5t-33.5 15t-33.5 15t-36 6.5
q-27 0 -50.5 -10.5t-43.5 -27.5z" />
    <glyph glyph-name="Odieresis" unicode="&#xd6;" horiz-adv-x="762" 
d="M381 -16q-75 0 -138.5 26.5t-110 73t-72.5 111t-26 140.5t26 140.5t72.5 111t110 72.5t138.5 26t139 -26t110 -72.5t72 -111t26 -140.5t-26 -140.5t-72 -111t-110 -73t-139 -26.5zM381 150q39 0 69.5 14.5t51.5 39.5t32 59t11 72t-11 72t-32 59t-51.5 39.5t-69.5 14.5
t-69.5 -14.5t-51.5 -39.5t-32 -59t-11 -72t11 -72t32 -59t51.5 -39.5t69.5 -14.5zM423 859h141v-128h-141v128zM198 859h141v-128h-141v128z" />
    <glyph glyph-name="multiply" unicode="&#xd7;" 
d="M187 315l-120 120l93 94l120 -121l121 121l93 -94l-120 -120l120 -120l-93 -94l-121 120l-120 -120l-93 94z" />
    <glyph glyph-name="Oslash" unicode="&#xd8;" horiz-adv-x="762" 
d="M381 -20q-42 0 -80.5 8.5t-72.5 23.5l-51 -74l-79 51l51 74q-54 48 -84.5 116t-30.5 152q0 76 26 140.5t72.5 111t110 72.5t138.5 26q46 0 88 -10t78 -29l57 83l79 -52l-59 -85q49 -48 76.5 -113.5t27.5 -143.5q0 -76 -26 -140.5t-72 -111t-110 -73t-139 -26.5zM217 331
q0 -71 34 -120l199 290q-30 15 -69 15t-69.5 -14.5t-51.5 -39.5t-32 -59t-11 -72zM381 146q39 0 69.5 14.5t51.5 39.5t32 59t11 72q0 58 -25 105l-194 -281q24 -9 55 -9z" />
    <glyph glyph-name="Ugrave" unicode="&#xd9;" horiz-adv-x="687" 
d="M56 667h177v-391q0 -55 25.5 -90t84.5 -35t84 35.5t25 89.5v391h179v-407q0 -64 -21 -115.5t-59.5 -87.5t-91 -55t-115.5 -19t-116 19t-91.5 54.5t-59.5 87t-21 116.5v407zM182 873h179l73 -156h-128z" />
    <glyph glyph-name="Uacute" unicode="&#xda;" horiz-adv-x="687" 
d="M56 667h177v-391q0 -55 25.5 -90t84.5 -35t84 35.5t25 89.5v391h179v-407q0 -64 -21 -115.5t-59.5 -87.5t-91 -55t-115.5 -19t-116 19t-91.5 54.5t-59.5 87t-21 116.5v407zM333 873h179l-124 -156h-128z" />
    <glyph glyph-name="Ucircumflex" unicode="&#xdb;" horiz-adv-x="687" 
d="M56 667h177v-391q0 -55 25.5 -90t84.5 -35t84 35.5t25 89.5v391h179v-407q0 -64 -21 -115.5t-59.5 -87.5t-91 -55t-115.5 -19t-116 19t-91.5 54.5t-59.5 87t-21 116.5v407zM279 873h128l116 -156h-135l-45 68l-46 -68h-134z" />
    <glyph glyph-name="Udieresis" unicode="&#xdc;" horiz-adv-x="687" 
d="M56 667h177v-391q0 -55 25.5 -90t84.5 -35t84 35.5t25 89.5v391h179v-407q0 -64 -21 -115.5t-59.5 -87.5t-91 -55t-115.5 -19t-116 19t-91.5 54.5t-59.5 87t-21 116.5v407zM385 859h141v-128h-141v128zM160 859h141v-128h-141v128z" />
    <glyph glyph-name="Yacute" unicode="&#xdd;" horiz-adv-x="668" 
d="M245 266l-237 401h203l130 -238l122 238h197l-238 -400v-267h-177v266zM349 873h179l-124 -156h-128z" />
    <glyph glyph-name="Thorn" unicode="&#xde;" horiz-adv-x="598" 
d="M61 667h173v-103h99q54 0 97.5 -14.5t74.5 -42t48 -69t17 -95.5q0 -52 -17.5 -93.5t-48 -71t-73 -45t-93.5 -15.5h-104v-118h-173v667zM318 258q36 0 57 22.5t21 59.5q0 38 -20 61t-59 23h-83v-166h84z" />
    <glyph glyph-name="germandbls" unicode="&#xdf;" horiz-adv-x="631" 
d="M45 461q0 58 19 100.5t53.5 70t81.5 40.5t103 13q42 0 82 -9.5t71 -29.5t50 -52.5t19 -78.5q0 -36 -12 -62.5t-26.5 -46.5t-26.5 -34.5t-12 -25.5q0 -17 15 -25.5t37 -17.5q21 -9 41 -20t36.5 -28.5t26.5 -43.5t10 -65q0 -40 -17 -70.5t-45 -50.5t-62.5 -30.5
t-70.5 -10.5q-44 0 -90 9t-82 35l75 112q17 -13 37 -21t41 -8q19 0 36 8.5t17 29.5q0 12 -7 20.5t-18.5 15.5t-26.5 12.5t-31 12.5t-31.5 16t-27.5 22.5t-19.5 32.5t-7.5 45q0 30 13 54t28.5 44.5t28.5 39t13 37.5q0 29 -20.5 42t-46.5 13q-45 0 -65 -30t-20 -71v-455h-169
v461z" />
    <glyph glyph-name="agrave" unicode="&#xe0;" horiz-adv-x="527" 
d="M315 44q-32 -34 -64.5 -47t-80.5 -13q-23 0 -49 6.5t-48 22.5t-36 43.5t-14 69.5t18 74.5t49 54t72 32.5t86 11q23 0 36.5 -1t30.5 -3v9q0 18 -7.5 29.5t-19 18t-25 9t-26.5 2.5q-45 0 -79 -11.5t-55 -26.5l-64 97q30 24 84 44t138 20q49 0 89 -12.5t69 -38t45 -63
t16 -87.5v-284h-159zM315 203q-17 4 -46 4q-42 0 -62 -16.5t-20 -39.5q0 -52 56 -52q13 0 26 3.5t23 12t16.5 22.5t6.5 35v31zM132 682h159l48 -142h-117z" />
    <glyph glyph-name="aacute" unicode="&#xe1;" horiz-adv-x="527" 
d="M315 44q-32 -34 -64.5 -47t-80.5 -13q-23 0 -49 6.5t-48 22.5t-36 43.5t-14 69.5t18 74.5t49 54t72 32.5t86 11q23 0 36.5 -1t30.5 -3v9q0 18 -7.5 29.5t-19 18t-25 9t-26.5 2.5q-45 0 -79 -11.5t-55 -26.5l-64 97q30 24 84 44t138 20q49 0 89 -12.5t69 -38t45 -63
t16 -87.5v-284h-159zM315 203q-17 4 -46 4q-42 0 -62 -16.5t-20 -39.5q0 -52 56 -52q13 0 26 3.5t23 12t16.5 22.5t6.5 35v31zM234 682h159l-90 -142h-117z" />
    <glyph glyph-name="acircumflex" unicode="&#xe2;" horiz-adv-x="527" 
d="M315 44q-32 -34 -64.5 -47t-80.5 -13q-23 0 -49 6.5t-48 22.5t-36 43.5t-14 69.5t18 74.5t49 54t72 32.5t86 11q23 0 36.5 -1t30.5 -3v9q0 18 -7.5 29.5t-19 18t-25 9t-26.5 2.5q-45 0 -79 -11.5t-55 -26.5l-64 97q30 24 84 44t138 20q49 0 89 -12.5t69 -38t45 -63
t16 -87.5v-284h-159zM315 203q-17 4 -46 4q-42 0 -62 -16.5t-20 -39.5q0 -52 56 -52q13 0 26 3.5t23 12t16.5 22.5t6.5 35v31zM199 682h132l107 -142h-133l-41 57l-39 -57h-134z" />
    <glyph glyph-name="atilde" unicode="&#xe3;" horiz-adv-x="527" 
d="M315 44q-32 -34 -64.5 -47t-80.5 -13q-23 0 -49 6.5t-48 22.5t-36 43.5t-14 69.5t18 74.5t49 54t72 32.5t86 11q23 0 36.5 -1t30.5 -3v9q0 18 -7.5 29.5t-19 18t-25 9t-26.5 2.5q-45 0 -79 -11.5t-55 -26.5l-64 97q30 24 84 44t138 20q49 0 89 -12.5t69 -38t45 -63
t16 -87.5v-284h-159zM315 203q-17 4 -46 4q-42 0 -62 -16.5t-20 -39.5q0 -52 56 -52q13 0 26 3.5t23 12t16.5 22.5t6.5 35v31zM55 625q25 27 57.5 44.5t69.5 17.5q19 0 35.5 -6.5t33 -14.5t33.5 -14.5t35 -6.5q26 0 49 10.5t43 26.5l57 -88q-24 -26 -57 -43.5t-70 -17.5
q-18 0 -35 6.5t-33.5 14t-33 14t-35.5 6.5q-26 0 -49 -10.5t-43 -26.5z" />
    <glyph glyph-name="adieresis" unicode="&#xe4;" horiz-adv-x="527" 
d="M315 44q-32 -34 -64.5 -47t-80.5 -13q-23 0 -49 6.5t-48 22.5t-36 43.5t-14 69.5t18 74.5t49 54t72 32.5t86 11q23 0 36.5 -1t30.5 -3v9q0 18 -7.5 29.5t-19 18t-25 9t-26.5 2.5q-45 0 -79 -11.5t-55 -26.5l-64 97q30 24 84 44t138 20q49 0 89 -12.5t69 -38t45 -63
t16 -87.5v-284h-159zM315 203q-17 4 -46 4q-42 0 -62 -16.5t-20 -39.5q0 -52 56 -52q13 0 26 3.5t23 12t16.5 22.5t6.5 35v31zM296 671h131v-120h-131v120zM95 671h131v-120h-131v120z" />
    <glyph glyph-name="aring" unicode="&#xe5;" horiz-adv-x="527" 
d="M315 44q-32 -34 -64.5 -47t-80.5 -13q-23 0 -49 6.5t-48 22.5t-36 43.5t-14 69.5t18 74.5t49 54t72 32.5t86 11q23 0 36.5 -1t30.5 -3v9q0 18 -7.5 29.5t-19 18t-25 9t-26.5 2.5q-45 0 -79 -11.5t-55 -26.5l-64 97q30 24 84 44t138 20q49 0 89 -12.5t69 -38t45 -63
t16 -87.5v-284h-159zM315 203q-17 4 -46 4q-42 0 -62 -16.5t-20 -39.5q0 -52 56 -52q13 0 26 3.5t23 12t16.5 22.5t6.5 35v31zM138 646q0 26 10 48t26.5 37.5t39 24.5t47.5 9t47.5 -9t39 -24.5t26.5 -37.5t10 -48t-10 -47.5t-26.5 -37.5t-39 -25t-47.5 -9t-47.5 9t-39 25
t-26.5 37.5t-10 47.5zM261 608q16 0 27 11t11 27t-11 27.5t-27 11.5t-27 -11t-11 -28q0 -16 11 -27t27 -11z" />
    <glyph glyph-name="ae" unicode="&#xe6;" horiz-adv-x="813" 
d="M39 421q32 25 84.5 44.5t131.5 19.5q51 0 87.5 -14t61.5 -39q28 26 65.5 40t94.5 14q48 0 89 -16.5t70.5 -50t46.5 -84t17 -118.5v-32h-318q1 -12 6.5 -25t19 -24.5t36 -18.5t55.5 -7q43 0 78.5 11t55.5 23l53 -110q-12 -7 -30.5 -15.5t-43.5 -16t-56 -13t-66 -5.5
q-66 0 -112 17t-76 50q-42 -37 -86.5 -52t-98.5 -15q-34 0 -66.5 7t-58 23.5t-41 45t-15.5 70.5t18 73.5t49 52.5t72 31.5t86 10.5q23 0 36.5 -1t30.5 -3v9q0 18 -7.5 29.5t-19 18t-25 9t-26.5 2.5q-45 0 -79 -11.5t-55 -26.5zM315 203q-17 4 -46 4q-42 0 -62 -16.5
t-20 -39.5q0 -52 56 -52q13 0 26 3.5t23 12t16.5 22.5t6.5 35v31zM637 285q0 27 -20 51t-63 24q-21 0 -37 -7.5t-26.5 -18.5t-15.5 -24t-5 -25h167z" />
    <glyph glyph-name="ccedilla" unicode="&#xe7;" horiz-adv-x="483" 
d="M478 62q-13 -15 -32 -29t-43.5 -25t-54.5 -17.5t-65 -6.5q-53 0 -99.5 18t-81 51t-54 79.5t-19.5 103.5q0 53 19.5 98.5t54 79.5t81 53t99.5 19q70 0 117.5 -22t77.5 -56l-99 -113q-11 13 -31 28t-60 15q-35 0 -62 -27.5t-27 -74.5q0 -23 7.5 -42.5t19.5 -33t28 -21
t34 -7.5q19 0 34 4.5t26 11.5t18.5 14.5l12.5 12.5zM183 -139q17 -6 35 -10t36 -4q7 0 16.5 0.5t18 3.5t14.5 8.5t6 14.5t-5.5 14t-13.5 7t-17 2.5t-15 0.5q-36 0 -68 -13l14 69q43 12 88 12q22 0 43.5 -5t38.5 -16t27.5 -28.5t10.5 -42.5q0 -28 -12.5 -48t-32 -33
t-44.5 -19t-49 -6q-27 0 -53.5 4t-52.5 14z" />
    <glyph glyph-name="egrave" unicode="&#xe8;" horiz-adv-x="533" 
d="M493 34q-12 -7 -30.5 -15.5t-43.5 -16t-56 -13t-66 -5.5q-130 0 -199 65.5t-69 183.5q0 47 15 92.5t45.5 81t77 57.5t108.5 22q48 0 90.5 -16.5t74 -50t49.5 -84t18 -118.5v-32h-318q1 -12 6.5 -25t19 -24.5t36 -18.5t55.5 -7q43 0 78.5 11t55.5 23zM357 285q0 12 -5 25
t-15.5 24t-26 18.5t-37.5 7.5q-21 0 -37 -7.5t-26 -18.5t-15 -24t-5 -25h167zM139 682h159l48 -142h-117z" />
    <glyph glyph-name="eacute" unicode="&#xe9;" horiz-adv-x="533" 
d="M493 34q-12 -7 -30.5 -15.5t-43.5 -16t-56 -13t-66 -5.5q-130 0 -199 65.5t-69 183.5q0 47 15 92.5t45.5 81t77 57.5t108.5 22q48 0 90.5 -16.5t74 -50t49.5 -84t18 -118.5v-32h-318q1 -12 6.5 -25t19 -24.5t36 -18.5t55.5 -7q43 0 78.5 11t55.5 23zM357 285q0 12 -5 25
t-15.5 24t-26 18.5t-37.5 7.5q-21 0 -37 -7.5t-26 -18.5t-15 -24t-5 -25h167zM257 682h159l-90 -142h-117z" />
    <glyph glyph-name="ecircumflex" unicode="&#xea;" horiz-adv-x="533" 
d="M493 34q-12 -7 -30.5 -15.5t-43.5 -16t-56 -13t-66 -5.5q-130 0 -199 65.5t-69 183.5q0 47 15 92.5t45.5 81t77 57.5t108.5 22q48 0 90.5 -16.5t74 -50t49.5 -84t18 -118.5v-32h-318q1 -12 6.5 -25t19 -24.5t36 -18.5t55.5 -7q43 0 78.5 11t55.5 23zM357 285q0 12 -5 25
t-15.5 24t-26 18.5t-37.5 7.5q-21 0 -37 -7.5t-26 -18.5t-15 -24t-5 -25h167zM203 682h132l107 -142h-133l-41 57l-39 -57h-134z" />
    <glyph glyph-name="edieresis" unicode="&#xeb;" horiz-adv-x="533" 
d="M493 34q-12 -7 -30.5 -15.5t-43.5 -16t-56 -13t-66 -5.5q-130 0 -199 65.5t-69 183.5q0 47 15 92.5t45.5 81t77 57.5t108.5 22q48 0 90.5 -16.5t74 -50t49.5 -84t18 -118.5v-32h-318q1 -12 6.5 -25t19 -24.5t36 -18.5t55.5 -7q43 0 78.5 11t55.5 23zM357 285q0 12 -5 25
t-15.5 24t-26 18.5t-37.5 7.5q-21 0 -37 -7.5t-26 -18.5t-15 -24t-5 -25h167zM303 671h131v-120h-131v120zM102 671h131v-120h-131v120z" />
    <glyph glyph-name="igrave" unicode="&#xec;" horiz-adv-x="273" 
d="M52 470h169v-470h-169v470zM-5 682h159l48 -142h-117z" />
    <glyph glyph-name="iacute" unicode="&#xed;" horiz-adv-x="273" 
d="M52 470h169v-470h-169v470zM120 682h159l-90 -142h-117z" />
    <glyph glyph-name="icircumflex" unicode="&#xee;" horiz-adv-x="273" 
d="M52 470h169v-470h-169v470zM72 682h132l107 -142h-133l-41 57l-39 -57h-134z" />
    <glyph glyph-name="idieresis" unicode="&#xef;" horiz-adv-x="273" 
d="M52 470h169v-470h-169v470zM172 671h131v-120h-131v120zM-29 671h131v-120h-131v120z" />
    <glyph glyph-name="eth" unicode="&#xf0;" horiz-adv-x="563" 
d="M165 564q-16 4 -33 7t-37 6l22 108q32 -2 61.5 -6.5t56.5 -10.5l38 56l67 -47l-25 -37q64 -29 106 -70.5t67 -89t35.5 -98.5t10.5 -97q0 -71 -18.5 -127t-53 -94.5t-83.5 -59t-110 -20.5q-51 0 -95 17t-76.5 48t-50.5 74.5t-18 95.5q0 51 19 92t51 70.5t74 45.5t89 16
q18 0 41 -3.5t41 -8.5q-11 23 -33.5 51t-67.5 52l-46 -69l-67 47zM368 298q-35 21 -78 21q-40 0 -70.5 -23t-30.5 -73q0 -18 6.5 -34.5t17.5 -29t27 -20t35 -7.5q25 0 43.5 9t30 24.5t17 36t5.5 44.5q0 28 -3 52z" />
    <glyph glyph-name="ntilde" unicode="&#xf1;" horiz-adv-x="573" 
d="M49 470h163l6 -49q14 17 32 29t37 19t36.5 10t30.5 3q37 0 68.5 -10.5t54.5 -33t36 -58t13 -84.5v-296h-169v256q0 35 -14.5 56t-46.5 21q-23 0 -38 -7t-24 -19t-12.5 -26.5t-3.5 -29.5v-251h-169v470zM70 625q25 27 57.5 44.5t69.5 17.5q19 0 35.5 -6.5t33 -14.5
t33.5 -14.5t35 -6.5q26 0 49 10.5t43 26.5l57 -88q-24 -26 -57 -43.5t-70 -17.5q-18 0 -35 6.5t-33.5 14t-33 14t-35.5 6.5q-26 0 -49 -10.5t-43 -26.5z" />
    <glyph glyph-name="ograve" unicode="&#xf2;" horiz-adv-x="560" 
d="M280 132q42 0 67 29t25 74t-25 74t-67 29t-67 -29t-25 -74t25 -74t67 -29zM29 235q0 52 18.5 98t51.5 80t79 53.5t102 19.5t102 -19.5t79 -53.5t51.5 -80t18.5 -98q0 -53 -18.5 -98.5t-51.5 -79.5t-79 -53.5t-102 -19.5t-102 19.5t-79 53.5t-51.5 79.5t-18.5 98.5z
M144 682h159l48 -142h-117z" />
    <glyph glyph-name="oacute" unicode="&#xf3;" horiz-adv-x="560" 
d="M280 132q42 0 67 29t25 74t-25 74t-67 29t-67 -29t-25 -74t25 -74t67 -29zM29 235q0 52 18.5 98t51.5 80t79 53.5t102 19.5t102 -19.5t79 -53.5t51.5 -80t18.5 -98q0 -53 -18.5 -98.5t-51.5 -79.5t-79 -53.5t-102 -19.5t-102 19.5t-79 53.5t-51.5 79.5t-18.5 98.5z
M252 682h159l-90 -142h-117z" />
    <glyph glyph-name="ocircumflex" unicode="&#xf4;" horiz-adv-x="560" 
d="M280 132q42 0 67 29t25 74t-25 74t-67 29t-67 -29t-25 -74t25 -74t67 -29zM29 235q0 52 18.5 98t51.5 80t79 53.5t102 19.5t102 -19.5t79 -53.5t51.5 -80t18.5 -98q0 -53 -18.5 -98.5t-51.5 -79.5t-79 -53.5t-102 -19.5t-102 19.5t-79 53.5t-51.5 79.5t-18.5 98.5z
M215 682h132l107 -142h-133l-41 57l-39 -57h-134z" />
    <glyph glyph-name="otilde" unicode="&#xf5;" horiz-adv-x="560" 
d="M280 132q42 0 67 29t25 74t-25 74t-67 29t-67 -29t-25 -74t25 -74t67 -29zM29 235q0 52 18.5 98t51.5 80t79 53.5t102 19.5t102 -19.5t79 -53.5t51.5 -80t18.5 -98q0 -53 -18.5 -98.5t-51.5 -79.5t-79 -53.5t-102 -19.5t-102 19.5t-79 53.5t-51.5 79.5t-18.5 98.5z
M74 625q25 27 57.5 44.5t69.5 17.5q19 0 35.5 -6.5t33 -14.5t33.5 -14.5t35 -6.5q26 0 49 10.5t43 26.5l57 -88q-24 -26 -57 -43.5t-70 -17.5q-18 0 -35 6.5t-33.5 14t-33 14t-35.5 6.5q-26 0 -49 -10.5t-43 -26.5z" />
    <glyph glyph-name="odieresis" unicode="&#xf6;" horiz-adv-x="560" 
d="M280 132q42 0 67 29t25 74t-25 74t-67 29t-67 -29t-25 -74t25 -74t67 -29zM29 235q0 52 18.5 98t51.5 80t79 53.5t102 19.5t102 -19.5t79 -53.5t51.5 -80t18.5 -98q0 -53 -18.5 -98.5t-51.5 -79.5t-79 -53.5t-102 -19.5t-102 19.5t-79 53.5t-51.5 79.5t-18.5 98.5z
M315 671h131v-120h-131v120zM114 671h131v-120h-131v120z" />
    <glyph glyph-name="divide" unicode="&#xf7;" 
d="M206 200h149v-136h-149v136zM206 568h149v-136h-149v136zM81 382h399v-132h-399v132z" />
    <glyph glyph-name="oslash" unicode="&#xf8;" horiz-adv-x="560" 
d="M104 51q-35 35 -55 82t-20 102q0 52 18.5 98t51.5 80t79 53.5t102 19.5q61 0 110 -23l40 57l64 -45l-39 -56q36 -35 56 -82t20 -102q0 -53 -18.5 -98.5t-51.5 -79.5t-79 -53.5t-102 -19.5q-31 0 -59 6t-52 17l-42 -60l-64 45zM254 130q12 -3 26 -3q45 0 71 30.5t26 77.5
q0 31 -12 54zM305 340q-12 3 -25 3q-45 0 -71 -30.5t-26 -77.5q0 -30 11 -54z" />
    <glyph glyph-name="ugrave" unicode="&#xf9;" horiz-adv-x="571" 
d="M47 470h169v-257q0 -35 14.5 -56t51.5 -21q20 0 33.5 7t22 19t12 26.5t3.5 29.5v252h169v-470h-163l-6 48q-14 -17 -32 -29t-37 -19t-36.5 -10t-30.5 -3q-37 0 -68 10.5t-53.5 33t-35.5 57.5t-13 85v297zM159 682h159l48 -142h-117z" />
    <glyph glyph-name="uacute" unicode="&#xfa;" horiz-adv-x="571" 
d="M47 470h169v-257q0 -35 14.5 -56t51.5 -21q20 0 33.5 7t22 19t12 26.5t3.5 29.5v252h169v-470h-163l-6 48q-14 -17 -32 -29t-37 -19t-36.5 -10t-30.5 -3q-37 0 -68 10.5t-53.5 33t-35.5 57.5t-13 85v297zM264 682h159l-90 -142h-117z" />
    <glyph glyph-name="ucircumflex" unicode="&#xfb;" horiz-adv-x="571" 
d="M47 470h169v-257q0 -35 14.5 -56t51.5 -21q20 0 33.5 7t22 19t12 26.5t3.5 29.5v252h169v-470h-163l-6 48q-14 -17 -32 -29t-37 -19t-36.5 -10t-30.5 -3q-37 0 -68 10.5t-53.5 33t-35.5 57.5t-13 85v297zM220 682h132l107 -142h-133l-41 57l-39 -57h-134z" />
    <glyph glyph-name="udieresis" unicode="&#xfc;" horiz-adv-x="571" 
d="M47 470h169v-257q0 -35 14.5 -56t51.5 -21q20 0 33.5 7t22 19t12 26.5t3.5 29.5v252h169v-470h-163l-6 48q-14 -17 -32 -29t-37 -19t-36.5 -10t-30.5 -3q-37 0 -68 10.5t-53.5 33t-35.5 57.5t-13 85v297zM320 671h131v-120h-131v120zM119 671h131v-120h-131v120z" />
    <glyph glyph-name="yacute" unicode="&#xfd;" horiz-adv-x="573" 
d="M81 -54q14 -10 32 -17t32 -7q23 0 38 8.5t26 37.5l14 38l-218 464h192l100 -272l95 272h176l-187 -463q-18 -44 -35.5 -83.5t-42 -69.5t-59.5 -48t-87 -18q-37 0 -72 10.5t-67 32.5zM276 682h159l-90 -142h-117z" />
    <glyph glyph-name="thorn" unicode="&#xfe;" horiz-adv-x="569" 
d="M49 667h168v-246q13 19 30 30.5t33.5 17.5t31 8t24.5 2q49 0 87.5 -19.5t64 -52t39 -74.5t13.5 -88q0 -62 -19 -110t-53 -81t-79.5 -50.5t-97.5 -17.5q-22 0 -42.5 4t-31.5 7v-197h-168v867zM218 134q23 -10 59 -10q41 0 67 26.5t26 87.5q0 16 -4 33.5t-13 31.5t-23 23
t-33 9q-42 0 -60.5 -26t-18.5 -65v-110z" />
    <glyph glyph-name="ydieresis" unicode="&#xff;" horiz-adv-x="573" 
d="M81 -54q14 -10 32 -17t32 -7q23 0 38 8.5t26 37.5l14 38l-218 464h192l100 -272l95 272h176l-187 -463q-18 -44 -35.5 -83.5t-42 -69.5t-59.5 -48t-87 -18q-37 0 -72 10.5t-67 32.5zM321 671h131v-120h-131v120zM120 671h131v-120h-131v120z" />
    <glyph glyph-name="Amacron" unicode="&#x100;" horiz-adv-x="692" 
d="M249 667h203l236 -667h-191l-43 138h-223l-44 -138h-183zM418 267l-74 245l-77 -245h151zM186 853h319v-116h-319v116z" />
    <glyph glyph-name="amacron" unicode="&#x101;" horiz-adv-x="527" 
d="M315 44q-32 -34 -64.5 -47t-80.5 -13q-23 0 -49 6.5t-48 22.5t-36 43.5t-14 69.5t18 74.5t49 54t72 32.5t86 11q23 0 36.5 -1t30.5 -3v9q0 18 -7.5 29.5t-19 18t-25 9t-26.5 2.5q-45 0 -79 -11.5t-55 -26.5l-64 97q30 24 84 44t138 20q49 0 89 -12.5t69 -38t45 -63
t16 -87.5v-284h-159zM315 203q-17 4 -46 4q-42 0 -62 -16.5t-20 -39.5q0 -52 56 -52q13 0 26 3.5t23 12t16.5 22.5t6.5 35v31zM118 660h286v-113h-286v113z" />
    <glyph glyph-name="Abreve" unicode="&#x102;" horiz-adv-x="692" 
d="M249 667h203l236 -667h-191l-43 138h-223l-44 -138h-183zM418 267l-74 245l-77 -245h151zM299 863q1 -20 13 -33t33 -13q22 0 34 13t12 33h119q0 -36 -13.5 -63.5t-36 -46.5t-52 -29t-63.5 -10q-33 0 -63 10t-52.5 29t-35.5 46.5t-13 63.5h118z" />
    <glyph glyph-name="abreve" unicode="&#x103;" horiz-adv-x="527" 
d="M315 44q-32 -34 -64.5 -47t-80.5 -13q-23 0 -49 6.5t-48 22.5t-36 43.5t-14 69.5t18 74.5t49 54t72 32.5t86 11q23 0 36.5 -1t30.5 -3v9q0 18 -7.5 29.5t-19 18t-25 9t-26.5 2.5q-45 0 -79 -11.5t-55 -26.5l-64 97q30 24 84 44t138 20q49 0 89 -12.5t69 -38t45 -63
t16 -87.5v-284h-159zM315 203q-17 4 -46 4q-42 0 -62 -16.5t-20 -39.5q0 -52 56 -52q13 0 26 3.5t23 12t16.5 22.5t6.5 35v31zM219 682q1 -19 11 -32.5t31 -13.5t31 13.5t11 32.5h116q0 -35 -13 -61.5t-34.5 -44.5t-50 -27t-60.5 -9t-60.5 9t-50 27t-34.5 44.5t-13 61.5h116
z" />
    <glyph glyph-name="Aogonek" unicode="&#x104;" horiz-adv-x="692" 
d="M249 667h203l236 -667h-191l-43 138h-223l-44 -138h-183zM418 267l-74 245l-77 -245h151zM688 0q-6 -6 -15 -15.5t-17.5 -20.5t-14 -21.5t-5.5 -19.5q0 -11 7 -17t18 -6q14 0 26.5 4.5t23.5 12.5l33 -86q-26 -17 -56.5 -26t-61.5 -9q-21 0 -39.5 5t-32.5 15.5t-22 26.5
t-8 39q0 35 19.5 64.5t42.5 53.5h102z" />
    <glyph glyph-name="aogonek" unicode="&#x105;" horiz-adv-x="527" 
d="M315 44q-32 -34 -64.5 -47t-80.5 -13q-23 0 -49 6.5t-48 22.5t-36 43.5t-14 69.5t18 74.5t49 54t72 32.5t86 11q23 0 36.5 -1t30.5 -3v9q0 18 -7.5 29.5t-19 18t-25 9t-26.5 2.5q-45 0 -79 -11.5t-55 -26.5l-64 97q30 24 84 44t138 20q49 0 89 -12.5t69 -38t45 -63
t16 -87.5v-284h-159zM315 203q-17 4 -46 4q-42 0 -62 -16.5t-20 -39.5q0 -52 56 -52q13 0 26 3.5t23 12t16.5 22.5t6.5 35v31zM480 0q-6 -6 -14.5 -15t-17 -19.5t-14 -21.5t-5.5 -19q0 -11 7 -16.5t18 -5.5q14 0 26 4.5t23 11.5l32 -83q-25 -17 -55.5 -25.5t-60.5 -8.5
q-40 0 -69.5 19t-29.5 64q0 34 19 63t41 52h100z" />
    <glyph glyph-name="Cacute" unicode="&#x106;" horiz-adv-x="683" 
d="M678 124q-113 -141 -297 -141q-77 0 -141 26t-109.5 72t-71 110t-25.5 141q0 76 25 140.5t71 112t110 74t141 26.5q87 0 161 -29t125 -101l-117 -118q-28 38 -67 61t-89 23q-42 0 -75 -14t-55.5 -39t-34.5 -58.5t-12 -72.5q0 -40 12.5 -74t35.5 -59t55.5 -39t72.5 -14
q58 0 94.5 20.5t71.5 64.5zM372 873h179l-124 -156h-128z" />
    <glyph glyph-name="cacute" unicode="&#x107;" horiz-adv-x="483" 
d="M478 62q-13 -15 -32 -29t-43.5 -25t-54.5 -17.5t-65 -6.5q-53 0 -99.5 18t-81 51t-54 79.5t-19.5 103.5q0 53 19.5 98.5t54 79.5t81 53t99.5 19q70 0 117.5 -22t77.5 -56l-99 -113q-11 13 -31 28t-60 15q-35 0 -62 -27.5t-27 -74.5q0 -23 7.5 -42.5t19.5 -33t28 -21
t34 -7.5q19 0 34 4.5t26 11.5t18.5 14.5l12.5 12.5zM261 682h159l-90 -142h-117z" />
    <glyph glyph-name="Ccircumflex" unicode="&#x108;" horiz-adv-x="683" 
d="M678 124q-113 -141 -297 -141q-77 0 -141 26t-109.5 72t-71 110t-25.5 141q0 76 25 140.5t71 112t110 74t141 26.5q87 0 161 -29t125 -101l-117 -118q-28 38 -67 61t-89 23q-42 0 -75 -14t-55.5 -39t-34.5 -58.5t-12 -72.5q0 -40 12.5 -74t35.5 -59t55.5 -39t72.5 -14
q58 0 94.5 20.5t71.5 64.5zM306 873h128l116 -156h-135l-45 68l-46 -68h-134z" />
    <glyph glyph-name="ccircumflex" unicode="&#x109;" horiz-adv-x="483" 
d="M478 62q-13 -15 -32 -29t-43.5 -25t-54.5 -17.5t-65 -6.5q-53 0 -99.5 18t-81 51t-54 79.5t-19.5 103.5q0 53 19.5 98.5t54 79.5t81 53t99.5 19q70 0 117.5 -22t77.5 -56l-99 -113q-11 13 -31 28t-60 15q-35 0 -62 -27.5t-27 -74.5q0 -23 7.5 -42.5t19.5 -33t28 -21
t34 -7.5q19 0 34 4.5t26 11.5t18.5 14.5l12.5 12.5zM209 682h132l107 -142h-133l-41 57l-39 -57h-134z" />
    <glyph glyph-name="Cdotaccent" unicode="&#x10a;" horiz-adv-x="683" 
d="M678 124q-113 -141 -297 -141q-77 0 -141 26t-109.5 72t-71 110t-25.5 141q0 76 25 140.5t71 112t110 74t141 26.5q87 0 161 -29t125 -101l-117 -118q-28 38 -67 61t-89 23q-42 0 -75 -14t-55.5 -39t-34.5 -58.5t-12 -72.5q0 -40 12.5 -74t35.5 -59t55.5 -39t72.5 -14
q58 0 94.5 20.5t71.5 64.5zM310 863h148v-136h-148v136z" />
    <glyph glyph-name="cdotaccent" unicode="&#x10b;" horiz-adv-x="483" 
d="M478 62q-13 -15 -32 -29t-43.5 -25t-54.5 -17.5t-65 -6.5q-53 0 -99.5 18t-81 51t-54 79.5t-19.5 103.5q0 53 19.5 98.5t54 79.5t81 53t99.5 19q70 0 117.5 -22t77.5 -56l-99 -113q-11 13 -31 28t-60 15q-35 0 -62 -27.5t-27 -74.5q0 -23 7.5 -42.5t19.5 -33t28 -21
t34 -7.5q19 0 34 4.5t26 11.5t18.5 14.5l12.5 12.5zM189 680h183v-133h-183v133z" />
    <glyph glyph-name="Ccaron" unicode="&#x10c;" horiz-adv-x="683" 
d="M678 124q-113 -141 -297 -141q-77 0 -141 26t-109.5 72t-71 110t-25.5 141q0 76 25 140.5t71 112t110 74t141 26.5q87 0 161 -29t125 -101l-117 -118q-28 38 -67 61t-89 23q-42 0 -75 -14t-55.5 -39t-34.5 -58.5t-12 -72.5q0 -40 12.5 -74t35.5 -59t55.5 -39t72.5 -14
q58 0 94.5 20.5t71.5 64.5zM207 873h135l45 -68l46 68h134l-116 -156h-128z" />
    <glyph glyph-name="ccaron" unicode="&#x10d;" horiz-adv-x="483" 
d="M478 62q-13 -15 -32 -29t-43.5 -25t-54.5 -17.5t-65 -6.5q-53 0 -99.5 18t-81 51t-54 79.5t-19.5 103.5q0 53 19.5 98.5t54 79.5t81 53t99.5 19q70 0 117.5 -22t77.5 -56l-99 -113q-11 13 -31 28t-60 15q-35 0 -62 -27.5t-27 -74.5q0 -23 7.5 -42.5t19.5 -33t28 -21
t34 -7.5q19 0 34 4.5t26 11.5t18.5 14.5l12.5 12.5zM97 682h133l41 -57l40 57h133l-107 -142h-133z" />
    <glyph glyph-name="Dcaron" unicode="&#x10e;" horiz-adv-x="708" 
d="M60 667h256q77 0 142.5 -20t113.5 -61t75 -105t27 -151q0 -83 -27.5 -144.5t-75.5 -103t-114 -62t-142 -20.5h-255v667zM309 156q87 0 134.5 49.5t47.5 128.5q0 40 -11 72.5t-33.5 56t-56.5 36.5t-81 13h-72v-356h72zM133 873h135l45 -68l46 68h134l-116 -156h-128z" />
    <glyph glyph-name="dcaron" unicode="&#x10f;" horiz-adv-x="678" 
d="M362 48q-26 -31 -61 -46t-68 -15q-38 0 -69.5 11.5t-56.5 32.5q-38 32 -58 84.5t-20 115.5q0 53 18 98.5t51.5 79t80 52.5t103.5 19q23 0 42 -3.5t32 -7.5v198h169v-667h-154zM356 329q-26 9 -55 9q-45 0 -73.5 -28t-28.5 -85q0 -42 20.5 -67.5t62.5 -25.5q37 0 55.5 22
t18.5 62v113zM579 667h141l-40 -193h-101v193z" />
    <glyph glyph-name="Dcroat" unicode="&#x110;" horiz-adv-x="708" 
d="M60 289h-60v90h60v288h256q77 0 142.5 -20t113.5 -61t75 -105t27 -151q0 -83 -27.5 -144.5t-75.5 -103t-114 -62t-142 -20.5h-255v289zM309 156q87 0 134.5 49.5t47.5 128.5q0 40 -11 72.5t-33.5 56t-56.5 36.5t-81 13h-72v-133h108v-90h-108v-133h72z" />
    <glyph glyph-name="dcroat" unicode="&#x111;" horiz-adv-x="574" 
d="M362 48q-26 -31 -61 -46t-68 -15q-38 0 -69.5 11.5t-56.5 32.5q-38 32 -58 82t-20 113q0 53 18 97.5t51.5 77t80 50.5t103.5 18q23 0 42 -3.5t32 -7.5v61h-150v87h150v61h169v-61h57v-87h-57v-519h-154zM356 318q-26 9 -55 9q-45 0 -73.5 -25t-28.5 -82q0 -42 20.5 -65
t62.5 -23q37 0 55.5 22t18.5 62v102z" />
    <glyph glyph-name="Emacron" unicode="&#x112;" horiz-adv-x="593" 
d="M60 667h480v-153h-303v-103h249v-144h-249v-114h324v-153h-501v667zM154 853h319v-116h-319v116z" />
    <glyph glyph-name="emacron" unicode="&#x113;" horiz-adv-x="533" 
d="M493 34q-12 -7 -30.5 -15.5t-43.5 -16t-56 -13t-66 -5.5q-130 0 -199 65.5t-69 183.5q0 47 15 92.5t45.5 81t77 57.5t108.5 22q48 0 90.5 -16.5t74 -50t49.5 -84t18 -118.5v-32h-318q1 -12 6.5 -25t19 -24.5t36 -18.5t55.5 -7q43 0 78.5 11t55.5 23zM357 285q0 12 -5 25
t-15.5 24t-26 18.5t-37.5 7.5q-21 0 -37 -7.5t-26 -18.5t-15 -24t-5 -25h167zM125 660h286v-113h-286v113z" />
    <glyph glyph-name="Ebreve" unicode="&#x114;" horiz-adv-x="593" 
d="M60 667h480v-153h-303v-103h249v-144h-249v-114h324v-153h-501v667zM263 863q1 -20 13 -33t33 -13q22 0 34 13t12 33h119q0 -36 -13.5 -63.5t-36 -46.5t-52 -29t-63.5 -10q-33 0 -63 10t-52.5 29t-35.5 46.5t-13 63.5h118z" />
    <glyph glyph-name="ebreve" unicode="&#x115;" horiz-adv-x="533" 
d="M493 34q-12 -7 -30.5 -15.5t-43.5 -16t-56 -13t-66 -5.5q-130 0 -199 65.5t-69 183.5q0 47 15 92.5t45.5 81t77 57.5t108.5 22q48 0 90.5 -16.5t74 -50t49.5 -84t18 -118.5v-32h-318q1 -12 6.5 -25t19 -24.5t36 -18.5t55.5 -7q43 0 78.5 11t55.5 23zM357 285q0 12 -5 25
t-15.5 24t-26 18.5t-37.5 7.5q-21 0 -37 -7.5t-26 -18.5t-15 -24t-5 -25h167zM229 682q1 -19 11 -32.5t31 -13.5t31 13.5t11 32.5h116q0 -35 -13 -61.5t-34.5 -44.5t-50 -27t-60.5 -9t-60.5 9t-50 27t-34.5 44.5t-13 61.5h116z" />
    <glyph glyph-name="Edotaccent" unicode="&#x116;" horiz-adv-x="593" 
d="M60 667h480v-153h-303v-103h249v-144h-249v-114h324v-153h-501v667zM230 863h148v-136h-148v136z" />
    <glyph glyph-name="edotaccent" unicode="&#x117;" horiz-adv-x="533" 
d="M493 34q-12 -7 -30.5 -15.5t-43.5 -16t-56 -13t-66 -5.5q-130 0 -199 65.5t-69 183.5q0 47 15 92.5t45.5 81t77 57.5t108.5 22q48 0 90.5 -16.5t74 -50t49.5 -84t18 -118.5v-32h-318q1 -12 6.5 -25t19 -24.5t36 -18.5t55.5 -7q43 0 78.5 11t55.5 23zM357 285q0 12 -5 25
t-15.5 24t-26 18.5t-37.5 7.5q-21 0 -37 -7.5t-26 -18.5t-15 -24t-5 -25h167zM184 680h183v-133h-183v133z" />
    <glyph glyph-name="Eogonek" unicode="&#x118;" horiz-adv-x="593" 
d="M60 667h480v-153h-303v-103h249v-144h-249v-114h324v-153h-501v667zM519 0q-6 -6 -15 -15.5t-17.5 -20.5t-14 -21.5t-5.5 -19.5q0 -11 7 -17t18 -6q14 0 26.5 4.5t23.5 12.5l33 -86q-26 -17 -56.5 -26t-61.5 -9q-21 0 -39.5 5t-32.5 15.5t-22 26.5t-8 39q0 35 19.5 64.5
t42.5 53.5h102z" />
    <glyph glyph-name="eogonek" unicode="&#x119;" horiz-adv-x="533" 
d="M491 -164q-25 -17 -55.5 -25.5t-60.5 -8.5q-40 0 -69.5 19t-29.5 64q0 28 14 54t32 46q-6 0 -12.5 -0.5t-12.5 -0.5q-130 0 -199 65.5t-69 183.5q0 47 15 92.5t45.5 81t77 57.5t108.5 22q48 0 90.5 -16.5t74 -50t49.5 -84t18 -118.5v-32h-318q1 -12 6.5 -25t19 -24.5
t36 -18.5t55.5 -7q43 0 78.5 11t55.5 23l53 -110q-9 -5 -22 -11.5t-30 -12.5q-29 -20 -42.5 -42t-13.5 -36q0 -16 7 -22.5t18 -6.5q14 0 26 4.5t23 11.5zM357 285q0 12 -5 25t-15.5 24t-26 18.5t-37.5 7.5q-21 0 -37 -7.5t-26 -18.5t-15 -24t-5 -25h167z" />
    <glyph glyph-name="Ecaron" unicode="&#x11a;" horiz-adv-x="593" 
d="M60 667h480v-153h-303v-103h249v-144h-249v-114h324v-153h-501v667zM132 873h135l45 -68l46 68h134l-116 -156h-128z" />
    <glyph glyph-name="ecaron" unicode="&#x11b;" horiz-adv-x="533" 
d="M493 34q-12 -7 -30.5 -15.5t-43.5 -16t-56 -13t-66 -5.5q-130 0 -199 65.5t-69 183.5q0 47 15 92.5t45.5 81t77 57.5t108.5 22q48 0 90.5 -16.5t74 -50t49.5 -84t18 -118.5v-32h-318q1 -12 6.5 -25t19 -24.5t36 -18.5t55.5 -7q43 0 78.5 11t55.5 23zM357 285q0 12 -5 25
t-15.5 24t-26 18.5t-37.5 7.5q-21 0 -37 -7.5t-26 -18.5t-15 -24t-5 -25h167zM101 682h133l41 -57l40 57h133l-107 -142h-133z" />
    <glyph glyph-name="Gcircumflex" unicode="&#x11c;" horiz-adv-x="723" 
d="M400 381h274v-301q-60 -51 -137.5 -73.5t-155.5 -22.5q-81 0 -145.5 24.5t-109.5 70t-68.5 110.5t-23.5 146q0 76 25.5 140.5t71.5 111t109.5 72.5t140.5 26q83 0 155.5 -27.5t121.5 -91.5l-115 -116q-31 31 -66.5 51t-82.5 20q-43 0 -76 -15t-55.5 -40.5t-34.5 -60
t-12 -73.5q0 -43 13 -77.5t36 -59t56 -38t74 -13.5q33 0 63 8t58 28v64h-116v137zM305 873h128l116 -156h-135l-45 68l-46 -68h-134z" />
    <glyph glyph-name="gcircumflex" unicode="&#x11d;" horiz-adv-x="567" 
d="M127 -44q27 -17 57.5 -26.5t62.5 -9.5q52 0 77.5 23.5t25.5 78.5v16q-23 -21 -53 -27t-59 -6q-50 0 -89 16t-65.5 45t-40.5 69.5t-14 89.5q0 61 20 109t56.5 80t87 49t110.5 17q56 0 109.5 -10t105.5 -29v-403q0 -134 -65 -192t-190 -58q-53 0 -104 11t-96 40zM351 334
q-27 9 -54 9q-26 0 -45 -9t-31 -24t-17.5 -35.5t-5.5 -43.5q0 -47 22.5 -70t56.5 -23q33 0 53.5 19.5t20.5 61.5v115zM237 682h132l107 -142h-133l-41 57l-39 -57h-134z" />
    <glyph glyph-name="Gbreve" unicode="&#x11e;" horiz-adv-x="723" 
d="M400 381h274v-301q-60 -51 -137.5 -73.5t-155.5 -22.5q-81 0 -145.5 24.5t-109.5 70t-68.5 110.5t-23.5 146q0 76 25.5 140.5t71.5 111t109.5 72.5t140.5 26q83 0 155.5 -27.5t121.5 -91.5l-115 -116q-31 31 -66.5 51t-82.5 20q-43 0 -76 -15t-55.5 -40.5t-34.5 -60
t-12 -73.5q0 -43 13 -77.5t36 -59t56 -38t74 -13.5q33 0 63 8t58 28v64h-116v137zM327 863q1 -20 13 -33t33 -13q22 0 34 13t12 33h119q0 -36 -13.5 -63.5t-36 -46.5t-52 -29t-63.5 -10q-33 0 -63 10t-52.5 29t-35.5 46.5t-13 63.5h118z" />
    <glyph glyph-name="gbreve" unicode="&#x11f;" horiz-adv-x="567" 
d="M127 -44q27 -17 57.5 -26.5t62.5 -9.5q52 0 77.5 23.5t25.5 78.5v16q-23 -21 -53 -27t-59 -6q-50 0 -89 16t-65.5 45t-40.5 69.5t-14 89.5q0 61 20 109t56.5 80t87 49t110.5 17q56 0 109.5 -10t105.5 -29v-403q0 -134 -65 -192t-190 -58q-53 0 -104 11t-96 40zM351 334
q-27 9 -54 9q-26 0 -45 -9t-31 -24t-17.5 -35.5t-5.5 -43.5q0 -47 22.5 -70t56.5 -23q33 0 53.5 19.5t20.5 61.5v115zM261 682q1 -19 11 -32.5t31 -13.5t31 13.5t11 32.5h116q0 -35 -13 -61.5t-34.5 -44.5t-50 -27t-60.5 -9t-60.5 9t-50 27t-34.5 44.5t-13 61.5h116z" />
    <glyph glyph-name="Gdotaccent" unicode="&#x120;" horiz-adv-x="723" 
d="M400 381h274v-301q-60 -51 -137.5 -73.5t-155.5 -22.5q-81 0 -145.5 24.5t-109.5 70t-68.5 110.5t-23.5 146q0 76 25.5 140.5t71.5 111t109.5 72.5t140.5 26q83 0 155.5 -27.5t121.5 -91.5l-115 -116q-31 31 -66.5 51t-82.5 20q-43 0 -76 -15t-55.5 -40.5t-34.5 -60
t-12 -73.5q0 -43 13 -77.5t36 -59t56 -38t74 -13.5q33 0 63 8t58 28v64h-116v137zM303 863h148v-136h-148v136z" />
    <glyph glyph-name="gdotaccent" unicode="&#x121;" horiz-adv-x="567" 
d="M127 -44q27 -17 57.5 -26.5t62.5 -9.5q52 0 77.5 23.5t25.5 78.5v16q-23 -21 -53 -27t-59 -6q-50 0 -89 16t-65.5 45t-40.5 69.5t-14 89.5q0 61 20 109t56.5 80t87 49t110.5 17q56 0 109.5 -10t105.5 -29v-403q0 -134 -65 -192t-190 -58q-53 0 -104 11t-96 40zM351 334
q-27 9 -54 9q-26 0 -45 -9t-31 -24t-17.5 -35.5t-5.5 -43.5q0 -47 22.5 -70t56.5 -23q33 0 53.5 19.5t20.5 61.5v115zM212 680h183v-133h-183v133z" />
    <glyph glyph-name="uni0122" unicode="&#x122;" horiz-adv-x="723" 
d="M400 381h274v-301q-60 -51 -137.5 -73.5t-155.5 -22.5q-81 0 -145.5 24.5t-109.5 70t-68.5 110.5t-23.5 146q0 76 25.5 140.5t71.5 111t109.5 72.5t140.5 26q83 0 155.5 -27.5t121.5 -91.5l-115 -116q-31 31 -66.5 51t-82.5 20q-43 0 -76 -15t-55.5 -40.5t-34.5 -60
t-12 -73.5q0 -43 13 -77.5t36 -59t56 -38t74 -13.5q33 0 63 8t58 28v64h-116v137zM306 -51h172l-99 -158h-126z" />
    <glyph glyph-name="uni0123" unicode="&#x123;" horiz-adv-x="567" 
d="M127 -44q27 -17 57.5 -26.5t62.5 -9.5q52 0 77.5 23.5t25.5 78.5v16q-23 -21 -53 -27t-59 -6q-50 0 -89 16t-65.5 45t-40.5 69.5t-14 89.5q0 61 20 109t56.5 80t87 49t110.5 17q56 0 109.5 -10t105.5 -29v-403q0 -134 -65 -192t-190 -58q-53 0 -104 11t-96 40zM351 334
q-27 9 -54 9q-26 0 -45 -9t-31 -24t-17.5 -35.5t-5.5 -43.5q0 -47 22.5 -70t56.5 -23q33 0 53.5 19.5t20.5 61.5v115zM305 682h117l-48 -142h-159z" />
    <glyph glyph-name="Hcircumflex" unicode="&#x124;" horiz-adv-x="720" 
d="M60 667h177v-244h246v244h177v-667h-177v261h-246v-261h-177v667zM295 873h128l116 -156h-135l-45 68l-46 -68h-134z" />
    <glyph glyph-name="hcircumflex" unicode="&#x125;" horiz-adv-x="577" 
d="M49 667h169v-240q14 17 32 28t37 17t36.5 8t30.5 2q37 0 69 -10.5t56 -33t37.5 -58t13.5 -84.5v-296h-169v252q0 38 -16.5 59.5t-48.5 21.5q-23 0 -38 -7t-24 -19t-12.5 -26.5t-3.5 -29.5v-251h-169v667zM71 873h128l116 -156h-135l-45 68l-46 -68h-134z" />
    <glyph glyph-name="Hbar" unicode="&#x126;" horiz-adv-x="718" 
d="M59 485h-57v89h57v93h177v-93h246v93h177v-93h57v-89h-57v-485h-177v232h-246v-232h-177v485zM482 394v91h-246v-91h246z" />
    <glyph glyph-name="hbar" unicode="&#x127;" horiz-adv-x="587" 
d="M59 520h-57v86h57v61h169v-61h150v-86h-150v-103q14 17 32 28t37 17t36.5 8t30.5 2q37 0 69 -10.5t56 -33t37.5 -58t13.5 -84.5v-286h-169v242q0 38 -16.5 59.5t-48.5 21.5q-23 0 -38 -7t-24 -19t-12.5 -26.5t-3.5 -29.5v-241h-169v520z" />
    <glyph glyph-name="Itilde" unicode="&#x128;" horiz-adv-x="297" 
d="M60 667h177v-667h-177v667zM-61 809q25 27 58.5 45t71.5 18q19 0 36 -6.5t34 -15t34 -15t36 -6.5q26 0 49.5 10.5t44.5 27.5l58 -90q-25 -27 -58.5 -45t-71.5 -18q-19 0 -36 6.5t-33.5 15t-33.5 15t-36 6.5q-27 0 -50.5 -10.5t-43.5 -27.5z" />
    <glyph glyph-name="itilde" unicode="&#x129;" horiz-adv-x="273" 
d="M52 470h169v-470h-169v470zM-69 625q25 27 57.5 44.5t69.5 17.5q19 0 35.5 -6.5t33 -14.5t33.5 -14.5t35 -6.5q26 0 49 10.5t43 26.5l57 -88q-24 -26 -57 -43.5t-70 -17.5q-18 0 -35 6.5t-33.5 14t-33 14t-35.5 6.5q-26 0 -49 -10.5t-43 -26.5z" />
    <glyph glyph-name="Imacron" unicode="&#x12a;" horiz-adv-x="297" 
d="M60 667h177v-667h-177v667zM-10 853h319v-116h-319v116z" />
    <glyph glyph-name="imacron" unicode="&#x12b;" horiz-adv-x="273" 
d="M52 470h169v-470h-169v470zM-6 660h286v-113h-286v113z" />
    <glyph glyph-name="Ibreve" unicode="&#x12c;" horiz-adv-x="297" 
d="M60 667h177v-667h-177v667zM103 863q1 -20 13 -33t33 -13q22 0 34 13t12 33h119q0 -36 -13.5 -63.5t-36 -46.5t-52 -29t-63.5 -10q-33 0 -63 10t-52.5 29t-35.5 46.5t-13 63.5h118z" />
    <glyph glyph-name="ibreve" unicode="&#x12d;" horiz-adv-x="273" 
d="M52 470h169v-470h-169v470zM95 682q1 -19 11 -32.5t31 -13.5t31 13.5t11 32.5h116q0 -35 -13 -61.5t-34.5 -44.5t-50 -27t-60.5 -9t-60.5 9t-50 27t-34.5 44.5t-13 61.5h116z" />
    <glyph glyph-name="Iogonek" unicode="&#x12e;" horiz-adv-x="297" 
d="M60 667h177v-667h-177v667zM238 0q-6 -6 -15 -15.5t-17.5 -20.5t-14 -21.5t-5.5 -19.5q0 -11 7 -17t18 -6q14 0 26.5 4.5t23.5 12.5l33 -86q-26 -17 -56.5 -26t-61.5 -9q-21 0 -39.5 5t-32.5 15.5t-22 26.5t-8 39q0 35 19.5 64.5t42.5 53.5h102z" />
    <glyph glyph-name="iogonek" unicode="&#x12f;" horiz-adv-x="273" 
d="M45 667h183v-133h-183v133zM52 470h169v-470h-169v470zM222 0q-6 -6 -14.5 -15t-17 -19.5t-14 -21.5t-5.5 -19q0 -11 7 -16.5t18 -5.5q14 0 26 4.5t23 11.5l32 -83q-25 -17 -55.5 -25.5t-60.5 -8.5q-40 0 -69.5 19t-29.5 64q0 34 19 63t41 52h100z" />
    <glyph glyph-name="Idotaccent" unicode="&#x130;" horiz-adv-x="297" 
d="M60 667h177v-667h-177v667zM76 863h148v-136h-148v136z" />
    <glyph glyph-name="dotlessi" unicode="&#x131;" horiz-adv-x="273" 
d="M52 470h169v-470h-169v470z" />
    <glyph glyph-name="IJ" unicode="&#x132;" horiz-adv-x="843" 
d="M60 667h177v-667h-177v667zM418 194q19 -22 46.5 -39t63.5 -17q46 0 65 24.5t19 67.5v437h177v-457q0 -54 -18.5 -96.5t-51.5 -72t-77.5 -44.5t-96.5 -15q-66 0 -128 25.5t-104 77.5z" />
    <glyph glyph-name="ij" unicode="&#x133;" horiz-adv-x="548" 
d="M45 667h183v-133h-183v133zM52 470h169v-470h-169v470zM320 667h183v-133h-183v133zM198 -36q14 -8 29 -14t31 -6q44 0 56.5 23t12.5 62v441h169v-421q0 -54 -9 -99.5t-32.5 -79t-63.5 -52t-102 -18.5q-43 0 -84 12.5t-70 36.5z" />
    <glyph glyph-name="Jcircumflex" unicode="&#x134;" horiz-adv-x="540" 
d="M115 194q19 -22 46.5 -39t63.5 -17q46 0 65 24.5t19 67.5v437h177v-457q0 -54 -18.5 -96.5t-51.5 -72t-77.5 -44.5t-96.5 -15q-66 0 -128 25.5t-104 77.5zM331 873h128l116 -156h-135l-45 68l-46 -68h-134z" />
    <glyph glyph-name="jcircumflex" unicode="&#x135;" horiz-adv-x="286" 
d="M-64 -48q14 -8 29 -14t31 -6q44 0 56.5 23t12.5 62v453h169v-433q0 -54 -9 -99.5t-32.5 -79t-63.5 -52t-102 -18.5q-43 0 -84 12.5t-70 36.5zM79 682h132l107 -142h-133l-41 57l-39 -57h-134z" />
    <glyph glyph-name="uni0136" unicode="&#x136;" horiz-adv-x="688" 
d="M60 667h177v-250l199 250h207l-222 -257l257 -410h-215l-163 270l-63 -74v-196h-177v667zM263 -51h172l-99 -158h-126z" />
    <glyph glyph-name="uni0137" unicode="&#x137;" horiz-adv-x="554" 
d="M49 667h169v-328l117 131h188l-160 -173l186 -297h-194l-104 180l-33 -35v-145h-169v667zM216 -51h159l-90 -142h-117z" />
    <glyph glyph-name="kgreenlandic" unicode="&#x138;" horiz-adv-x="554" 
d="M49 470h169v-131l117 131h188l-160 -173l186 -297h-194l-104 180l-33 -35v-145h-169v470z" />
    <glyph glyph-name="Lacute" unicode="&#x139;" horiz-adv-x="566" 
d="M60 667h177v-511h309v-156h-486v667zM151 873h179l-124 -156h-128z" />
    <glyph glyph-name="lacute" unicode="&#x13a;" horiz-adv-x="267" 
d="M49 667h169v-667h-169v667zM137 873h179l-124 -156h-128z" />
    <glyph glyph-name="uni013B" unicode="&#x13b;" horiz-adv-x="566" 
d="M60 667h177v-511h309v-156h-486v667zM230 -51h172l-99 -158h-126z" />
    <glyph glyph-name="uni013C" unicode="&#x13c;" horiz-adv-x="267" 
d="M49 667h169v-667h-169v667zM56 -51h159l-90 -142h-117z" />
    <glyph glyph-name="Lcaron" unicode="&#x13d;" horiz-adv-x="566" 
d="M60 667h177v-511h309v-156h-486v667zM315 667h141l-40 -193h-101v193z" />
    <glyph glyph-name="lcaron" unicode="&#x13e;" horiz-adv-x="371" 
d="M49 667h169v-667h-169v667zM272 667h141l-40 -193h-101v193z" />
    <glyph glyph-name="Ldot" unicode="&#x13f;" horiz-adv-x="566" 
d="M60 667h177v-511h309v-156h-486v667zM354 468h148v-136h-148v136z" />
    <glyph glyph-name="ldot" unicode="&#x140;" horiz-adv-x="489" 
d="M49 667h169v-667h-169v667zM308 424h140v-128h-140v128z" />
    <glyph glyph-name="Lslash" unicode="&#x141;" horiz-adv-x="566" 
d="M60 241l-59 -36v120l59 36v306h177v-196l107 65v-118l-107 -66v-196h309v-156h-486v241z" />
    <glyph glyph-name="lslash" unicode="&#x142;" horiz-adv-x="302" 
d="M63 250l-58 -36v112l58 36v305h169v-201l65 40v-111l-65 -41v-354h-169v250z" />
    <glyph glyph-name="Nacute" unicode="&#x143;" horiz-adv-x="712" 
d="M60 667h161l256 -372v372h175v-667h-151l-266 383v-383h-175v667zM344 873h179l-124 -156h-128z" />
    <glyph glyph-name="nacute" unicode="&#x144;" horiz-adv-x="573" 
d="M49 470h163l6 -49q14 17 32 29t37 19t36.5 10t30.5 3q37 0 68.5 -10.5t54.5 -33t36 -58t13 -84.5v-296h-169v256q0 35 -14.5 56t-46.5 21q-23 0 -38 -7t-24 -19t-12.5 -26.5t-3.5 -29.5v-251h-169v470zM275 682h159l-90 -142h-117z" />
    <glyph glyph-name="uni0145" unicode="&#x145;" horiz-adv-x="712" 
d="M60 667h161l256 -372v372h175v-667h-151l-266 383v-383h-175v667zM296 -51h172l-99 -158h-126z" />
    <glyph glyph-name="uni0146" unicode="&#x146;" horiz-adv-x="573" 
d="M49 470h163l6 -49q14 17 32 29t37 19t36.5 10t30.5 3q37 0 68.5 -10.5t54.5 -33t36 -58t13 -84.5v-296h-169v256q0 35 -14.5 56t-46.5 21q-23 0 -38 -7t-24 -19t-12.5 -26.5t-3.5 -29.5v-251h-169v470zM222 -51h159l-90 -142h-117z" />
    <glyph glyph-name="Ncaron" unicode="&#x147;" horiz-adv-x="712" 
d="M60 667h161l256 -372v372h175v-667h-151l-266 383v-383h-175v667zM165 873h135l45 -68l46 68h134l-116 -156h-128z" />
    <glyph glyph-name="ncaron" unicode="&#x148;" horiz-adv-x="573" 
d="M49 470h163l6 -49q14 17 32 29t37 19t36.5 10t30.5 3q37 0 68.5 -10.5t54.5 -33t36 -58t13 -84.5v-296h-169v256q0 35 -14.5 56t-46.5 21q-23 0 -38 -7t-24 -19t-12.5 -26.5t-3.5 -29.5v-251h-169v470zM118 682h133l41 -57l40 57h133l-107 -142h-133z" />
    <glyph glyph-name="napostrophe" unicode="&#x149;" horiz-adv-x="677" 
d="M153 470h163l6 -49q14 17 32 29t37 19t36.5 10t30.5 3q37 0 68.5 -10.5t54.5 -33t36 -58t13 -84.5v-296h-169v256q0 35 -14.5 56t-46.5 21q-23 0 -38 -7t-24 -19t-12.5 -26.5t-3.5 -29.5v-251h-169v470zM16 682h137l-43 -155h-101z" />
    <glyph glyph-name="Eng" unicode="&#x14a;" horiz-adv-x="712" 
d="M60 667h140l276 -376v376h176v-642q0 -54 -10.5 -96.5t-34.5 -71.5t-63 -44t-96 -15q-19 0 -40 3.5t-41 9t-38.5 13t-31.5 16.5q17 30 31.5 57.5t31.5 56.5q14 -8 28.5 -13.5t30.5 -5.5q20 0 32 8t18 20.5t8 27t2 28.5v7l-243 330v-356h-176v667z" />
    <glyph glyph-name="eng" unicode="&#x14b;" horiz-adv-x="573" 
d="M228 -36q14 -8 29 -14t31 -6q41 0 55 19.5t14 53.5v239q0 35 -14.5 56t-46.5 21q-23 0 -38 -7t-24 -19t-12.5 -26.5t-3.5 -29.5v-251h-169v470h163l6 -49q14 17 32 29t37 19t36.5 10t30.5 3q37 0 68.5 -10.5t54.5 -33t36 -58t13 -84.5v-247q0 -54 -9 -99.5t-32.5 -79
t-63.5 -52t-102 -18.5q-43 0 -84 12.5t-70 36.5z" />
    <glyph glyph-name="Omacron" unicode="&#x14c;" horiz-adv-x="762" 
d="M381 -16q-75 0 -138.5 26.5t-110 73t-72.5 111t-26 140.5t26 140.5t72.5 111t110 72.5t138.5 26t139 -26t110 -72.5t72 -111t26 -140.5t-26 -140.5t-72 -111t-110 -73t-139 -26.5zM381 150q39 0 69.5 14.5t51.5 39.5t32 59t11 72t-11 72t-32 59t-51.5 39.5t-69.5 14.5
t-69.5 -14.5t-51.5 -39.5t-32 -59t-11 -72t11 -72t32 -59t51.5 -39.5t69.5 -14.5zM221 853h319v-116h-319v116z" />
    <glyph glyph-name="omacron" unicode="&#x14d;" horiz-adv-x="560" 
d="M280 132q42 0 67 29t25 74t-25 74t-67 29t-67 -29t-25 -74t25 -74t67 -29zM29 235q0 52 18.5 98t51.5 80t79 53.5t102 19.5t102 -19.5t79 -53.5t51.5 -80t18.5 -98q0 -53 -18.5 -98.5t-51.5 -79.5t-79 -53.5t-102 -19.5t-102 19.5t-79 53.5t-51.5 79.5t-18.5 98.5z
M137 660h286v-113h-286v113z" />
    <glyph glyph-name="Obreve" unicode="&#x14e;" horiz-adv-x="762" 
d="M381 -16q-75 0 -138.5 26.5t-110 73t-72.5 111t-26 140.5t26 140.5t72.5 111t110 72.5t138.5 26t139 -26t110 -72.5t72 -111t26 -140.5t-26 -140.5t-72 -111t-110 -73t-139 -26.5zM381 150q39 0 69.5 14.5t51.5 39.5t32 59t11 72t-11 72t-32 59t-51.5 39.5t-69.5 14.5
t-69.5 -14.5t-51.5 -39.5t-32 -59t-11 -72t11 -72t32 -59t51.5 -39.5t69.5 -14.5zM334 863q1 -20 13 -33t33 -13q22 0 34 13t12 33h119q0 -36 -13.5 -63.5t-36 -46.5t-52 -29t-63.5 -10q-33 0 -63 10t-52.5 29t-35.5 46.5t-13 63.5h118z" />
    <glyph glyph-name="obreve" unicode="&#x14f;" horiz-adv-x="560" 
d="M280 132q42 0 67 29t25 74t-25 74t-67 29t-67 -29t-25 -74t25 -74t67 -29zM29 235q0 52 18.5 98t51.5 80t79 53.5t102 19.5t102 -19.5t79 -53.5t51.5 -80t18.5 -98q0 -53 -18.5 -98.5t-51.5 -79.5t-79 -53.5t-102 -19.5t-102 19.5t-79 53.5t-51.5 79.5t-18.5 98.5z
M238 682q1 -19 11 -32.5t31 -13.5t31 13.5t11 32.5h116q0 -35 -13 -61.5t-34.5 -44.5t-50 -27t-60.5 -9t-60.5 9t-50 27t-34.5 44.5t-13 61.5h116z" />
    <glyph glyph-name="Ohungarumlaut" unicode="&#x150;" horiz-adv-x="762" 
d="M381 -16q-75 0 -138.5 26.5t-110 73t-72.5 111t-26 140.5t26 140.5t72.5 111t110 72.5t138.5 26t139 -26t110 -72.5t72 -111t26 -140.5t-26 -140.5t-72 -111t-110 -73t-139 -26.5zM381 150q39 0 69.5 14.5t51.5 39.5t32 59t11 72t-11 72t-32 59t-51.5 39.5t-69.5 14.5
t-69.5 -14.5t-51.5 -39.5t-32 -59t-11 -72t11 -72t32 -59t51.5 -39.5t69.5 -14.5zM494 873h162l-117 -156h-116zM291 873h162l-117 -156h-116z" />
    <glyph glyph-name="ohungarumlaut" unicode="&#x151;" horiz-adv-x="560" 
d="M280 132q42 0 67 29t25 74t-25 74t-67 29t-67 -29t-25 -74t25 -74t67 -29zM29 235q0 52 18.5 98t51.5 80t79 53.5t102 19.5t102 -19.5t79 -53.5t51.5 -80t18.5 -98q0 -53 -18.5 -98.5t-51.5 -79.5t-79 -53.5t-102 -19.5t-102 19.5t-79 53.5t-51.5 79.5t-18.5 98.5z
M370 682h143l-82 -142h-107zM189 682h143l-82 -142h-107z" />
    <glyph glyph-name="OE" unicode="&#x152;" horiz-adv-x="1060" 
d="M558 68q-32 -38 -83 -61t-116 -23q-71 0 -130.5 26.5t-103 73t-67.5 111t-24 140.5t25.5 140.5t70.5 111t105.5 72.5t130.5 26q38 0 70 -9.5t56.5 -23t41 -28.5t24.5 -26v69h449v-155h-301v-100h247v-146h-247v-110h322v-156h-470v68zM381 150q39 0 69.5 14.5t51.5 39.5
t32 59t11 72t-11 72t-32 59t-51.5 39.5t-69.5 14.5t-69.5 -14.5t-51.5 -39.5t-32 -59t-11 -72t11 -72t32 -59t51.5 -39.5t69.5 -14.5z" />
    <glyph glyph-name="oe" unicode="&#x153;" horiz-adv-x="869" 
d="M829 34q-12 -7 -30.5 -15.5t-43.5 -16t-56 -13t-66 -5.5q-63 0 -111.5 16t-82.5 46q-29 -29 -68.5 -45.5t-90.5 -16.5q-56 0 -102 19.5t-79 53.5t-51.5 79.5t-18.5 98.5q0 52 18.5 98t51.5 80t79 53.5t102 19.5q52 0 92 -17.5t69 -46.5q30 29 72.5 46.5t97.5 17.5
q48 0 90.5 -16.5t74 -50t49.5 -84t18 -118.5v-32h-318q1 -12 6.5 -25t19 -24.5t36 -18.5t55.5 -7q43 0 78.5 11t55.5 23zM693 285q0 12 -5 25t-15.5 24t-26 18.5t-37.5 7.5q-21 0 -37 -7.5t-26 -18.5t-15 -24t-5 -25h167zM280 132q42 0 67 29t25 74t-25 74t-67 29t-67 -29
t-25 -74t25 -74t67 -29z" />
    <glyph glyph-name="Racute" unicode="&#x154;" horiz-adv-x="628" 
d="M60 667h276q54 0 97.5 -14t74.5 -41.5t48 -68.5t17 -95q0 -66 -29 -114.5t-77 -77.5l143 -256h-190l-113 227h-74v-227h-173v667zM319 366q35 0 57 21.5t22 57.5q0 38 -21 60t-59 22h-85v-161h86zM273 873h179l-124 -156h-128z" />
    <glyph glyph-name="racute" unicode="&#x155;" horiz-adv-x="404" 
d="M49 470h163l6 -59q20 28 49.5 47.5t71.5 19.5q20 0 34.5 -2t25.5 -6l-22 -144q-24 6 -49 6q-110 0 -110 -121v-211h-169v470zM194 682h159l-90 -142h-117z" />
    <glyph glyph-name="uni0156" unicode="&#x156;" horiz-adv-x="628" 
d="M60 667h276q54 0 97.5 -14t74.5 -41.5t48 -68.5t17 -95q0 -66 -29 -114.5t-77 -77.5l143 -256h-190l-113 227h-74v-227h-173v667zM319 366q35 0 57 21.5t22 57.5q0 38 -21 60t-59 22h-85v-161h86zM251 -51h172l-99 -158h-126z" />
    <glyph glyph-name="uni0157" unicode="&#x157;" horiz-adv-x="404" 
d="M49 470h163l6 -59q20 28 49.5 47.5t71.5 19.5q20 0 34.5 -2t25.5 -6l-22 -144q-24 6 -49 6q-110 0 -110 -121v-211h-169v470zM54 -51h159l-90 -142h-117z" />
    <glyph glyph-name="Rcaron" unicode="&#x158;" horiz-adv-x="628" 
d="M60 667h276q54 0 97.5 -14t74.5 -41.5t48 -68.5t17 -95q0 -66 -29 -114.5t-77 -77.5l143 -256h-190l-113 227h-74v-227h-173v667zM319 366q35 0 57 21.5t22 57.5q0 38 -21 60t-59 22h-85v-161h86zM114 873h135l45 -68l46 68h134l-116 -156h-128z" />
    <glyph glyph-name="rcaron" unicode="&#x159;" horiz-adv-x="404" 
d="M49 470h163l6 -59q20 28 49.5 47.5t71.5 19.5q20 0 34.5 -2t25.5 -6l-22 -144q-24 6 -49 6q-110 0 -110 -121v-211h-169v470zM50 682h133l41 -57l40 57h133l-107 -142h-133z" />
    <glyph glyph-name="Sacute" unicode="&#x15a;" horiz-adv-x="590" 
d="M112 211q28 -28 73 -51t99 -23q13 0 27 2.5t25 8.5t18 16t7 26q0 26 -26.5 43t-77.5 34l-37 12q-31 10 -62.5 26t-56.5 38.5t-40.5 53t-15.5 71.5q0 46 17 85.5t49.5 69t80.5 46t111 16.5q49 0 89 -9t70 -22t51 -28t32 -27l-90 -114q-35 26 -73 42.5t-78 16.5
q-13 0 -26 -3t-23.5 -9t-17 -15.5t-6.5 -23.5q0 -15 7.5 -26t20.5 -19t31.5 -14.5t39.5 -13.5l32 -10q34 -11 69 -25.5t63 -39t46 -61t18 -89.5q0 -46 -21.5 -85t-58 -67t-86 -43.5t-105.5 -15.5q-100 0 -167.5 26.5t-114.5 71.5zM297 873h179l-124 -156h-128z" />
    <glyph glyph-name="sacute" unicode="&#x15b;" horiz-adv-x="486" 
d="M87 156q12 -10 29 -18.5t35.5 -14.5t37 -9.5t32.5 -3.5q26 0 44.5 6t18.5 28q0 16 -21.5 25.5t-76.5 26.5q-31 9 -57 21.5t-45 29.5t-29.5 40t-10.5 53t14.5 56.5t41 46.5t64 31.5t82.5 11.5q58 0 104.5 -14t87.5 -41l-57 -105q-27 16 -56.5 28t-61.5 12q-52 0 -52 -28
q0 -12 9.5 -19.5t25.5 -13t37 -11t45 -13.5q36 -12 59 -27t36.5 -33t18.5 -39.5t5 -45.5q0 -43 -19.5 -72t-50.5 -47t-69.5 -25.5t-75.5 -7.5q-61 0 -120.5 16.5t-96.5 48.5zM218 682h159l-90 -142h-117z" />
    <glyph glyph-name="Scircumflex" unicode="&#x15c;" horiz-adv-x="590" 
d="M112 211q28 -28 73 -51t99 -23q13 0 27 2.5t25 8.5t18 16t7 26q0 26 -26.5 43t-77.5 34l-37 12q-31 10 -62.5 26t-56.5 38.5t-40.5 53t-15.5 71.5q0 46 17 85.5t49.5 69t80.5 46t111 16.5q49 0 89 -9t70 -22t51 -28t32 -27l-90 -114q-35 26 -73 42.5t-78 16.5
q-13 0 -26 -3t-23.5 -9t-17 -15.5t-6.5 -23.5q0 -15 7.5 -26t20.5 -19t31.5 -14.5t39.5 -13.5l32 -10q34 -11 69 -25.5t63 -39t46 -61t18 -89.5q0 -46 -21.5 -85t-58 -67t-86 -43.5t-105.5 -15.5q-100 0 -167.5 26.5t-114.5 71.5zM234 873h128l116 -156h-135l-45 68l-46 -68
h-134z" />
    <glyph glyph-name="scircumflex" unicode="&#x15d;" horiz-adv-x="486" 
d="M87 156q12 -10 29 -18.5t35.5 -14.5t37 -9.5t32.5 -3.5q26 0 44.5 6t18.5 28q0 16 -21.5 25.5t-76.5 26.5q-31 9 -57 21.5t-45 29.5t-29.5 40t-10.5 53t14.5 56.5t41 46.5t64 31.5t82.5 11.5q58 0 104.5 -14t87.5 -41l-57 -105q-27 16 -56.5 28t-61.5 12q-52 0 -52 -28
q0 -12 9.5 -19.5t25.5 -13t37 -11t45 -13.5q36 -12 59 -27t36.5 -33t18.5 -39.5t5 -45.5q0 -43 -19.5 -72t-50.5 -47t-69.5 -25.5t-75.5 -7.5q-61 0 -120.5 16.5t-96.5 48.5zM182 682h132l107 -142h-133l-41 57l-39 -57h-134z" />
    <glyph glyph-name="Scedilla" unicode="&#x15e;" horiz-adv-x="590" 
d="M112 211q28 -28 73 -51t99 -23q13 0 27 2.5t25 8.5t18 16t7 26q0 26 -26.5 43t-77.5 34l-37 12q-31 10 -62.5 26t-56.5 38.5t-40.5 53t-15.5 71.5q0 46 17 85.5t49.5 69t80.5 46t111 16.5q49 0 89 -9t70 -22t51 -28t32 -27l-90 -114q-35 26 -73 42.5t-78 16.5
q-13 0 -26 -3t-23.5 -9t-17 -15.5t-6.5 -23.5q0 -15 7.5 -26t20.5 -19t31.5 -14.5t39.5 -13.5l32 -10q34 -11 69 -25.5t63 -39t46 -61t18 -89.5q0 -46 -21.5 -85t-58 -67t-86 -43.5t-105.5 -15.5q-100 0 -167.5 26.5t-114.5 71.5zM180 -141q36 -12 72 -12q7 0 16.5 0.5
t17.5 2.5t14 7t6 14q0 8 -5.5 12t-13 6t-16.5 2.5t-15 0.5q-17 0 -34.5 -2t-34.5 -8l14 69q22 6 44 8t45 2q22 0 43.5 -4.5t38.5 -15t28 -28t11 -42.5q0 -28 -12.5 -47.5t-32.5 -32t-44.5 -18t-49.5 -5.5q-27 0 -54 3t-53 13z" />
    <glyph glyph-name="scedilla" unicode="&#x15f;" horiz-adv-x="486" 
d="M87 156q12 -10 29 -18.5t35.5 -14.5t37 -9.5t32.5 -3.5q26 0 44.5 6t18.5 28q0 16 -21.5 25.5t-76.5 26.5q-31 9 -57 21.5t-45 29.5t-29.5 40t-10.5 53t14.5 56.5t41 46.5t64 31.5t82.5 11.5q58 0 104.5 -14t87.5 -41l-57 -105q-27 16 -56.5 28t-61.5 12q-52 0 -52 -28
q0 -12 9.5 -19.5t25.5 -13t37 -11t45 -13.5q36 -12 59 -27t36.5 -33t18.5 -39.5t5 -45.5q0 -43 -19.5 -72t-50.5 -47t-69.5 -25.5t-75.5 -7.5q-61 0 -120.5 16.5t-96.5 48.5zM126 -139q17 -6 35 -10t36 -4q7 0 16.5 0.5t18 3.5t14.5 8.5t6 14.5t-5.5 14t-13.5 7t-17 2.5
t-15 0.5q-36 0 -68 -13l14 69q43 12 88 12q22 0 43.5 -5t38.5 -16t27.5 -28.5t10.5 -42.5q0 -28 -12.5 -48t-32 -33t-44.5 -19t-49 -6q-27 0 -53.5 4t-52.5 14z" />
    <glyph glyph-name="Scaron" unicode="&#x160;" horiz-adv-x="590" 
d="M112 211q28 -28 73 -51t99 -23q13 0 27 2.5t25 8.5t18 16t7 26q0 26 -26.5 43t-77.5 34l-37 12q-31 10 -62.5 26t-56.5 38.5t-40.5 53t-15.5 71.5q0 46 17 85.5t49.5 69t80.5 46t111 16.5q49 0 89 -9t70 -22t51 -28t32 -27l-90 -114q-35 26 -73 42.5t-78 16.5
q-13 0 -26 -3t-23.5 -9t-17 -15.5t-6.5 -23.5q0 -15 7.5 -26t20.5 -19t31.5 -14.5t39.5 -13.5l32 -10q34 -11 69 -25.5t63 -39t46 -61t18 -89.5q0 -46 -21.5 -85t-58 -67t-86 -43.5t-105.5 -15.5q-100 0 -167.5 26.5t-114.5 71.5zM122 873h135l45 -68l46 68h134l-116 -156
h-128z" />
    <glyph glyph-name="scaron" unicode="&#x161;" horiz-adv-x="486" 
d="M87 156q12 -10 29 -18.5t35.5 -14.5t37 -9.5t32.5 -3.5q26 0 44.5 6t18.5 28q0 16 -21.5 25.5t-76.5 26.5q-31 9 -57 21.5t-45 29.5t-29.5 40t-10.5 53t14.5 56.5t41 46.5t64 31.5t82.5 11.5q58 0 104.5 -14t87.5 -41l-57 -105q-27 16 -56.5 28t-61.5 12q-52 0 -52 -28
q0 -12 9.5 -19.5t25.5 -13t37 -11t45 -13.5q36 -12 59 -27t36.5 -33t18.5 -39.5t5 -45.5q0 -43 -19.5 -72t-50.5 -47t-69.5 -25.5t-75.5 -7.5q-61 0 -120.5 16.5t-96.5 48.5zM71 682h133l41 -57l40 57h133l-107 -142h-133z" />
    <glyph glyph-name="uni0162" unicode="&#x162;" horiz-adv-x="627" 
d="M225 512h-205v155h587v-155h-203v-512h-179v512zM197 -141q36 -12 72 -12q7 0 16.5 0.5t17.5 2.5t14 7t6 14q0 8 -5.5 12t-13 6t-16.5 2.5t-15 0.5q-17 0 -34.5 -2t-34.5 -8l14 69q22 6 44 8t45 2q22 0 43.5 -4.5t38.5 -15t28 -28t11 -42.5q0 -28 -12.5 -47.5t-32.5 -32
t-44.5 -18t-49.5 -5.5q-27 0 -54 3t-53 13z" />
    <glyph glyph-name="uni0163" unicode="&#x163;" horiz-adv-x="434" 
d="M79 340h-69v130h69v155h169v-155h116v-130h-116v-166q0 -58 55 -58q16 0 31.5 7t28.5 16l66 -104q-32 -25 -71 -39t-80 -14q-57 0 -95.5 16t-61.5 44.5t-32.5 68.5t-9.5 87v142zM130 -148q17 -6 35 -10t36 -4q7 0 16.5 0.5t18 3.5t14.5 8.5t6 14.5t-5.5 14t-13.5 7
t-17 2.5t-15 0.5q-36 0 -68 -13l14 69q43 12 88 12q22 0 43.5 -5t38.5 -16t27.5 -28.5t10.5 -42.5q0 -28 -12.5 -48t-32 -33t-44.5 -19t-49 -6q-27 0 -53.5 4t-52.5 14z" />
    <glyph glyph-name="Tcaron" unicode="&#x164;" horiz-adv-x="627" 
d="M225 512h-205v155h587v-155h-203v-512h-179v512zM134 873h135l45 -68l46 68h134l-116 -156h-128z" />
    <glyph glyph-name="tcaron" unicode="&#x165;" horiz-adv-x="434" 
d="M79 340h-69v130h69v155h169v-155h116v-130h-116v-166q0 -58 55 -58q16 0 31.5 7t28.5 16l66 -104q-32 -25 -71 -39t-80 -14q-57 0 -95.5 16t-61.5 44.5t-32.5 68.5t-9.5 87v142zM299 667h136l-41 -150h-95v150z" />
    <glyph glyph-name="Tbar" unicode="&#x166;" horiz-adv-x="627" 
d="M225 237h-115v113h115v162h-205v155h587v-155h-203v-162h115v-113h-115v-237h-179v237z" />
    <glyph glyph-name="tbar" unicode="&#x167;" horiz-adv-x="434" 
d="M10 284h69v56h-69v130h69v131h169v-131h116v-130h-116v-56h116v-86h-116v-24q0 -58 56 -58q16 0 31 7t28 16l66 -104q-32 -25 -71 -39t-80 -14q-57 0 -95.5 16t-61.5 44.5t-32.5 68.5t-9.5 87h-69v86z" />
    <glyph glyph-name="Utilde" unicode="&#x168;" horiz-adv-x="687" 
d="M56 667h177v-391q0 -55 25.5 -90t84.5 -35t84 35.5t25 89.5v391h179v-407q0 -64 -21 -115.5t-59.5 -87.5t-91 -55t-115.5 -19t-116 19t-91.5 54.5t-59.5 87t-21 116.5v407zM132 809q25 27 58.5 45t71.5 18q19 0 36 -6.5t34 -15t34 -15t36 -6.5q26 0 49.5 10.5t44.5 27.5
l58 -90q-25 -27 -58.5 -45t-71.5 -18q-19 0 -36 6.5t-33.5 15t-33.5 15t-36 6.5q-27 0 -50.5 -10.5t-43.5 -27.5z" />
    <glyph glyph-name="utilde" unicode="&#x169;" horiz-adv-x="571" 
d="M47 470h169v-257q0 -35 14.5 -56t51.5 -21q20 0 33.5 7t22 19t12 26.5t3.5 29.5v252h169v-470h-163l-6 48q-14 -17 -32 -29t-37 -19t-36.5 -10t-30.5 -3q-37 0 -68 10.5t-53.5 33t-35.5 57.5t-13 85v297zM83 625q25 27 57.5 44.5t69.5 17.5q19 0 35.5 -6.5t33 -14.5
t33.5 -14.5t35 -6.5q26 0 49 10.5t43 26.5l57 -88q-24 -26 -57 -43.5t-70 -17.5q-18 0 -35 6.5t-33.5 14t-33 14t-35.5 6.5q-26 0 -49 -10.5t-43 -26.5z" />
    <glyph glyph-name="Umacron" unicode="&#x16a;" horiz-adv-x="687" 
d="M56 667h177v-391q0 -55 25.5 -90t84.5 -35t84 35.5t25 89.5v391h179v-407q0 -64 -21 -115.5t-59.5 -87.5t-91 -55t-115.5 -19t-116 19t-91.5 54.5t-59.5 87t-21 116.5v407zM183 853h319v-116h-319v116z" />
    <glyph glyph-name="umacron" unicode="&#x16b;" horiz-adv-x="571" 
d="M47 470h169v-257q0 -35 14.5 -56t51.5 -21q20 0 33.5 7t22 19t12 26.5t3.5 29.5v252h169v-470h-163l-6 48q-14 -17 -32 -29t-37 -19t-36.5 -10t-30.5 -3q-37 0 -68 10.5t-53.5 33t-35.5 57.5t-13 85v297zM151 660h286v-113h-286v113z" />
    <glyph glyph-name="Ubreve" unicode="&#x16c;" horiz-adv-x="687" 
d="M56 667h177v-391q0 -55 25.5 -90t84.5 -35t84 35.5t25 89.5v391h179v-407q0 -64 -21 -115.5t-59.5 -87.5t-91 -55t-115.5 -19t-116 19t-91.5 54.5t-59.5 87t-21 116.5v407zM296 863q1 -20 13 -33t33 -13q22 0 34 13t12 33h119q0 -36 -13.5 -63.5t-36 -46.5t-52 -29
t-63.5 -10q-33 0 -63 10t-52.5 29t-35.5 46.5t-13 63.5h118z" />
    <glyph glyph-name="ubreve" unicode="&#x16d;" horiz-adv-x="571" 
d="M47 470h169v-257q0 -35 14.5 -56t51.5 -21q20 0 33.5 7t22 19t12 26.5t3.5 29.5v252h169v-470h-163l-6 48q-14 -17 -32 -29t-37 -19t-36.5 -10t-30.5 -3q-37 0 -68 10.5t-53.5 33t-35.5 57.5t-13 85v297zM243 682q1 -19 11 -32.5t31 -13.5t31 13.5t11 32.5h116
q0 -35 -13 -61.5t-34.5 -44.5t-50 -27t-60.5 -9t-60.5 9t-50 27t-34.5 44.5t-13 61.5h116z" />
    <glyph glyph-name="Uring" unicode="&#x16e;" horiz-adv-x="687" 
d="M56 667h177v-391q0 -55 25.5 -90t84.5 -35t84 35.5t25 89.5v391h179v-407q0 -64 -21 -115.5t-59.5 -87.5t-91 -55t-115.5 -19t-116 19t-91.5 54.5t-59.5 87t-21 116.5v407zM205 818q0 29 11.5 54t31 43.5t45 29t54.5 10.5t54.5 -10.5t45 -29t31 -44t11.5 -54.5t-11.5 -54
t-31 -43.5t-45 -29t-54.5 -10.5t-54.5 10.5t-45 29t-31 43.5t-11.5 55zM347 774q18 0 30 13t12 30q0 18 -12 31t-30 13t-30 -12.5t-12 -30.5t12 -31t30 -13z" />
    <glyph glyph-name="uring" unicode="&#x16f;" horiz-adv-x="571" 
d="M47 470h169v-257q0 -35 14.5 -56t51.5 -21q20 0 33.5 7t22 19t12 26.5t3.5 29.5v252h169v-470h-163l-6 48q-14 -17 -32 -29t-37 -19t-36.5 -10t-30.5 -3q-37 0 -68 10.5t-53.5 33t-35.5 57.5t-13 85v297zM164 646q0 26 10 48t26.5 37.5t39 24.5t47.5 9t47.5 -9t39 -24.5
t26.5 -37.5t10 -48t-10 -47.5t-26.5 -37.5t-39 -25t-47.5 -9t-47.5 9t-39 25t-26.5 37.5t-10 47.5zM287 608q16 0 27 11t11 27t-11 27.5t-27 11.5t-27 -11t-11 -28q0 -16 11 -27t27 -11z" />
    <glyph glyph-name="Uhungarumlaut" unicode="&#x170;" horiz-adv-x="687" 
d="M56 667h177v-391q0 -55 25.5 -90t84.5 -35t84 35.5t25 89.5v391h179v-407q0 -64 -21 -115.5t-59.5 -87.5t-91 -55t-115.5 -19t-116 19t-91.5 54.5t-59.5 87t-21 116.5v407zM449 873h162l-117 -156h-116zM246 873h162l-117 -156h-116z" />
    <glyph glyph-name="uhungarumlaut" unicode="&#x171;" horiz-adv-x="571" 
d="M47 470h169v-257q0 -35 14.5 -56t51.5 -21q20 0 33.5 7t22 19t12 26.5t3.5 29.5v252h169v-470h-163l-6 48q-14 -17 -32 -29t-37 -19t-36.5 -10t-30.5 -3q-37 0 -68 10.5t-53.5 33t-35.5 57.5t-13 85v297zM364 682h143l-82 -142h-107zM183 682h143l-82 -142h-107z" />
    <glyph glyph-name="Uogonek" unicode="&#x172;" horiz-adv-x="687" 
d="M56 667h177v-391q0 -55 25.5 -90t84.5 -35t84 35.5t25 89.5v391h179v-407q0 -99 -48.5 -166.5t-130.5 -93.5q-6 -6 -15 -16t-17 -20.5t-13.5 -21t-5.5 -19.5q0 -11 7 -17t18 -6q14 0 26.5 4.5t23.5 12.5l33 -86q-26 -17 -56.5 -26t-61.5 -9q-21 0 -39.5 5t-32.5 15.5
t-22 26.5t-8 39q0 29 13.5 54.5t32.5 46.5q-62 1 -113 21t-88 55.5t-57.5 86t-20.5 114.5v407z" />
    <glyph glyph-name="uogonek" unicode="&#x173;" horiz-adv-x="571" 
d="M47 470h169v-257q0 -35 14.5 -56t51.5 -21q20 0 33.5 7t22 19t12 26.5t3.5 29.5v252h169v-470h-163l-6 48q-14 -17 -32 -29t-37 -19t-36.5 -10t-30.5 -3q-37 0 -68 10.5t-53.5 33t-35.5 57.5t-13 85v297zM522 0q-6 -6 -14.5 -15t-17 -19.5t-14 -21.5t-5.5 -19
q0 -11 7 -16.5t18 -5.5q14 0 26 4.5t23 11.5l32 -83q-25 -17 -55.5 -25.5t-60.5 -8.5q-40 0 -69.5 19t-29.5 64q0 34 19 63t41 52h100z" />
    <glyph glyph-name="Wcircumflex" unicode="&#x174;" horiz-adv-x="931" 
d="M10 667h187l86 -447l105 431h161l106 -431l85 447h181l-166 -667h-185l-105 422l-105 -422h-188zM401 873h128l116 -156h-135l-45 68l-46 -68h-134z" />
    <glyph glyph-name="wcircumflex" unicode="&#x175;" horiz-adv-x="790" 
d="M5 470h167l74 -276l83 276h131l84 -276l74 276h167l-163 -470h-146l-81 242l-81 -242h-146zM330 682h132l107 -142h-133l-41 57l-39 -57h-134z" />
    <glyph glyph-name="Ycircumflex" unicode="&#x176;" horiz-adv-x="668" 
d="M245 266l-237 401h203l130 -238l122 238h197l-238 -400v-267h-177v266zM270 873h128l116 -156h-135l-45 68l-46 -68h-134z" />
    <glyph glyph-name="ycircumflex" unicode="&#x177;" horiz-adv-x="573" 
d="M81 -54q14 -10 32 -17t32 -7q23 0 38 8.5t26 37.5l14 38l-218 464h192l100 -272l95 272h176l-187 -463q-18 -44 -35.5 -83.5t-42 -69.5t-59.5 -48t-87 -18q-37 0 -72 10.5t-67 32.5zM221 682h132l107 -142h-133l-41 57l-39 -57h-134z" />
    <glyph glyph-name="Ydieresis" unicode="&#x178;" horiz-adv-x="668" 
d="M245 266l-237 401h203l130 -238l122 238h197l-238 -400v-267h-177v266zM376 859h141v-128h-141v128zM151 859h141v-128h-141v128z" />
    <glyph glyph-name="Zacute" unicode="&#x179;" horiz-adv-x="623" 
d="M30 137l337 375h-320v155h539v-136l-331 -376h338v-155h-563v137zM321 873h179l-124 -156h-128z" />
    <glyph glyph-name="zacute" unicode="&#x17a;" horiz-adv-x="508" 
d="M34 104l221 232h-208v134h425v-107l-215 -233h218v-130h-441v104zM262 682h159l-90 -142h-117z" />
    <glyph glyph-name="Zdotaccent" unicode="&#x17b;" horiz-adv-x="623" 
d="M30 137l337 375h-320v155h539v-136l-331 -376h338v-155h-563v137zM246 863h148v-136h-148v136z" />
    <glyph glyph-name="zdotaccent" unicode="&#x17c;" horiz-adv-x="508" 
d="M34 104l221 232h-208v134h425v-107l-215 -233h218v-130h-441v104zM181 680h183v-133h-183v133z" />
    <glyph glyph-name="Zcaron" unicode="&#x17d;" horiz-adv-x="623" 
d="M30 137l337 375h-320v155h539v-136l-331 -376h338v-155h-563v137zM150 873h135l45 -68l46 68h134l-116 -156h-128z" />
    <glyph glyph-name="zcaron" unicode="&#x17e;" horiz-adv-x="508" 
d="M34 104l221 232h-208v134h425v-107l-215 -233h218v-130h-441v104zM99 682h133l41 -57l40 57h133l-107 -142h-133z" />
    <glyph glyph-name="longs" unicode="&#x17f;" horiz-adv-x="285" 
d="M49 488q0 48 16 84.5t44 61.5t66.5 38t84.5 13q44 0 83.5 -11t71.5 -42l-70 -108q-14 12 -32.5 19t-37.5 7q-26 0 -41.5 -16t-15.5 -43v-491h-169v488z" />
    <glyph glyph-name="florin" unicode="&#x192;" 
d="M-38 -38q10 -7 26.5 -15t39.5 -8q13 0 25 4t21.5 15t17 29.5t12.5 48.5l41 223h-59l10 130h72l5 24q12 56 28.5 100t42.5 74t65 45.5t95 15.5q31 0 57 -7t46.5 -16.5t34.5 -19.5t22 -16l-80 -102q-10 7 -26.5 15t-39.5 8q-27 0 -46.5 -19t-29.5 -78l-4 -24h101l-10 -130
h-114l-40 -229q-10 -57 -26.5 -99.5t-43.5 -71.5t-67 -43.5t-96 -14.5q-32 0 -57.5 7t-46 16.5t-34.5 19.5t-22 16z" />
    <glyph glyph-name="uni0218" unicode="&#x218;" horiz-adv-x="590" 
d="M112 211q28 -28 73 -51t99 -23q13 0 27 2.5t25 8.5t18 16t7 26q0 26 -26.5 43t-77.5 34l-37 12q-31 10 -62.5 26t-56.5 38.5t-40.5 53t-15.5 71.5q0 46 17 85.5t49.5 69t80.5 46t111 16.5q49 0 89 -9t70 -22t51 -28t32 -27l-90 -114q-35 26 -73 42.5t-78 16.5
q-13 0 -26 -3t-23.5 -9t-17 -15.5t-6.5 -23.5q0 -15 7.5 -26t20.5 -19t31.5 -14.5t39.5 -13.5l32 -10q34 -11 69 -25.5t63 -39t46 -61t18 -89.5q0 -46 -21.5 -85t-58 -67t-86 -43.5t-105.5 -15.5q-100 0 -167.5 26.5t-114.5 71.5zM219 -51h172l-99 -158h-126z" />
    <glyph glyph-name="uni0219" unicode="&#x219;" horiz-adv-x="486" 
d="M87 156q12 -10 29 -18.5t35.5 -14.5t37 -9.5t32.5 -3.5q26 0 44.5 6t18.5 28q0 16 -21.5 25.5t-76.5 26.5q-31 9 -57 21.5t-45 29.5t-29.5 40t-10.5 53t14.5 56.5t41 46.5t64 31.5t82.5 11.5q58 0 104.5 -14t87.5 -41l-57 -105q-27 16 -56.5 28t-61.5 12q-52 0 -52 -28
q0 -12 9.5 -19.5t25.5 -13t37 -11t45 -13.5q36 -12 59 -27t36.5 -33t18.5 -39.5t5 -45.5q0 -43 -19.5 -72t-50.5 -47t-69.5 -25.5t-75.5 -7.5q-61 0 -120.5 16.5t-96.5 48.5zM170 -51h159l-90 -142h-117z" />
    <glyph glyph-name="uni021A" unicode="&#x21a;" horiz-adv-x="627" 
d="M225 512h-205v155h587v-155h-203v-512h-179v512zM229 -51h172l-99 -158h-126z" />
    <glyph glyph-name="uni021B" unicode="&#x21b;" horiz-adv-x="434" 
d="M79 340h-69v130h69v155h169v-155h116v-130h-116v-166q0 -58 55 -58q16 0 31.5 7t28.5 16l66 -104q-32 -25 -71 -39t-80 -14q-57 0 -95.5 16t-61.5 44.5t-32.5 68.5t-9.5 87v142zM162 -51h159l-90 -142h-117z" />
    <glyph glyph-name="uni0237" unicode="&#x237;" horiz-adv-x="286" 
d="M-64 -48q14 -8 29 -14t31 -6q44 0 56.5 23t12.5 62v453h169v-433q0 -54 -9 -99.5t-32.5 -79t-63.5 -52t-102 -18.5q-43 0 -84 12.5t-70 36.5z" />
    <glyph glyph-name="uni02BC" unicode="&#x2bc;" horiz-adv-x="237" 
d="M59 682h137l-43 -155h-101z" />
    <glyph glyph-name="circumflex" unicode="&#x2c6;" horiz-adv-x="440" 
d="M155 682h132l107 -142h-133l-41 57l-39 -57h-134z" />
    <glyph glyph-name="caron" unicode="&#x2c7;" horiz-adv-x="440" 
d="M47 682h133l41 -57l40 57h133l-107 -142h-133z" />
    <glyph glyph-name="uni02C9" unicode="&#x2c9;" horiz-adv-x="440" 
d="M77 660h286v-113h-286v113z" />
    <glyph glyph-name="breve" unicode="&#x2d8;" horiz-adv-x="440" 
d="M178 682q1 -19 11 -32.5t31 -13.5t31 13.5t11 32.5h116q0 -35 -13 -61.5t-34.5 -44.5t-50 -27t-60.5 -9t-60.5 9t-50 27t-34.5 44.5t-13 61.5h116z" />
    <glyph glyph-name="dotaccent" unicode="&#x2d9;" horiz-adv-x="440" 
d="M129 680h183v-133h-183v133z" />
    <glyph glyph-name="ring" unicode="&#x2da;" horiz-adv-x="440" 
d="M97 646q0 26 10 48t26.5 37.5t39 24.5t47.5 9t47.5 -9t39 -24.5t26.5 -37.5t10 -48t-10 -47.5t-26.5 -37.5t-39 -25t-47.5 -9t-47.5 9t-39 25t-26.5 37.5t-10 47.5zM220 608q16 0 27 11t11 27t-11 27.5t-27 11.5t-27 -11t-11 -28q0 -16 11 -27t27 -11z" />
    <glyph glyph-name="ogonek" unicode="&#x2db;" horiz-adv-x="440" 
d="M273 0q-6 -6 -14.5 -15t-17 -19.5t-14 -21.5t-5.5 -19q0 -11 7 -16.5t18 -5.5q14 0 26 4.5t23 11.5l32 -83q-25 -17 -55.5 -25.5t-60.5 -8.5q-40 0 -69.5 19t-29.5 64q0 34 19 63t41 52h100z" />
    <glyph glyph-name="tilde" unicode="&#x2dc;" horiz-adv-x="440" 
d="M14 625q25 27 57.5 44.5t69.5 17.5q19 0 35.5 -6.5t33 -14.5t33.5 -14.5t35 -6.5q26 0 49 10.5t43 26.5l57 -88q-24 -26 -57 -43.5t-70 -17.5q-18 0 -35 6.5t-33.5 14t-33 14t-35.5 6.5q-26 0 -49 -10.5t-43 -26.5z" />
    <glyph glyph-name="hungarumlaut" unicode="&#x2dd;" horiz-adv-x="440" 
d="M262 682h143l-82 -142h-107zM81 682h143l-82 -142h-107z" />
    <glyph glyph-name="uni0312" unicode="&#x312;" horiz-adv-x="440" 
d="M206 682h117l-48 -142h-159z" />
    <glyph glyph-name="uni0315" unicode="&#x315;" horiz-adv-x="368" 
d="M108 667h141l-40 -193h-101v193z" />
    <glyph glyph-name="uni0326" unicode="&#x326;" horiz-adv-x="440" 
d="M164 -51h159l-90 -142h-117z" />
    <glyph glyph-name="uni037E" unicode="&#x37e;" horiz-adv-x="292" 
d="M113 0h-63v182h187v-182l-83 -143h-103zM54 470h182v-181h-182v181z" />
    <glyph glyph-name="tonos" unicode="&#x384;" horiz-adv-x="424" 
d="M148 697h151l-65 -157h-109z" />
    <glyph glyph-name="dieresistonos" unicode="&#x385;" horiz-adv-x="492" 
d="M195 697h128l-49 -157h-97zM351 671h126v-119h-126v119zM15 671h126v-119h-126v119z" />
    <glyph glyph-name="Alphatonos" unicode="&#x386;" horiz-adv-x="701" 
d="M258 667h203l236 -667h-191l-43 138h-223l-44 -138h-183zM427 267l-74 245l-77 -245h151zM19 667h157l-58 -153h-115z" />
    <glyph glyph-name="anoteleia" unicode="&#x387;" horiz-adv-x="292" 
d="M55 470h182v-181h-182v181z" />
    <glyph glyph-name="Epsilontonos" unicode="&#x388;" horiz-adv-x="784" 
d="M251 667h480v-153h-303v-103h249v-144h-249v-114h324v-153h-501v667zM31 667h157l-58 -153h-115z" />
    <glyph glyph-name="Etatonos" unicode="&#x389;" horiz-adv-x="911" 
d="M251 667h177v-244h246v244h177v-667h-177v261h-246v-261h-177v667zM31 667h157l-58 -153h-115z" />
    <glyph glyph-name="Iotatonos" unicode="&#x38a;" horiz-adv-x="488" 
d="M251 667h177v-667h-177v667zM31 667h157l-58 -153h-115z" />
    <glyph glyph-name="Omicrontonos" unicode="&#x38c;" horiz-adv-x="899" 
d="M518 -16q-75 0 -138.5 26.5t-110 73t-72.5 111t-26 140.5t26 140.5t72.5 111t110 72.5t138.5 26t139 -26t110 -72.5t72 -111t26 -140.5t-26 -140.5t-72 -111t-110 -73t-139 -26.5zM518 150q39 0 69.5 14.5t51.5 39.5t32 59t11 72t-11 72t-32 59t-51.5 39.5t-69.5 14.5
t-69.5 -14.5t-51.5 -39.5t-32 -59t-11 -72t11 -72t32 -59t51.5 -39.5t69.5 -14.5zM31 667h157l-58 -153h-115z" />
    <glyph glyph-name="Upsilontonos" unicode="&#x38e;" horiz-adv-x="878" 
d="M455 266l-237 401h203l130 -238l122 238h197l-238 -400v-267h-177v266zM31 667h157l-58 -153h-115z" />
    <glyph glyph-name="Omegatonos" unicode="&#x38f;" horiz-adv-x="915" 
d="M172 152h123q-28 19 -49 44.5t-35 54.5t-21 60t-7 61q0 73 27.5 131.5t74.5 99t109.5 62.5t131.5 22t131.5 -22t110 -62.5t75 -99t27.5 -131.5q0 -30 -7.5 -61t-22 -60t-35.5 -54.5t-49 -44.5h124v-152h-301v153q27 12 47 32.5t33.5 46t20.5 55t7 58.5q0 36 -10.5 68
t-31 56t-50.5 37.5t-69 13.5t-68.5 -13.5t-50 -37.5t-31 -56t-10.5 -68q0 -29 6.5 -58.5t20 -55t33.5 -46t47 -32.5v-153h-301v152zM31 667h157l-58 -153h-115z" />
    <glyph glyph-name="iotadieresistonos" unicode="&#x390;" horiz-adv-x="352" 
d="M218 470v-283q0 -32 10 -51t44 -19q9 0 21.5 2t22.5 6l30 -126q-28 -10 -57 -13.5t-55 -3.5q-52 0 -87.5 13t-57 39.5t-31 67t-9.5 96.5v272h169zM102 697h128l-49 -157h-97zM258 671h126v-119h-126v119zM-78 671h126v-119h-126v119z" />
    <glyph glyph-name="Alpha" unicode="&#x391;" horiz-adv-x="692" 
d="M249 667h203l236 -667h-191l-43 138h-223l-44 -138h-183zM418 267l-74 245l-77 -245h151z" />
    <glyph glyph-name="Beta" unicode="&#x392;" horiz-adv-x="633" 
d="M60 667h271q70 0 116 -15.5t73 -40t37.5 -56t10.5 -62.5q0 -29 -9.5 -52t-24 -40.5t-31.5 -29.5t-32 -17q19 -6 42 -18t43 -32t34 -48t14 -65q0 -100 -69.5 -145.5t-203.5 -45.5h-271v667zM310 399q31 0 55.5 15.5t24.5 53.5q0 21 -7 35.5t-18.5 22.5t-26 11.5t-28.5 3.5
h-77v-142h77zM323 126q15 0 33 2.5t33 10.5t25 24t10 43q0 25 -10 40.5t-25 23.5t-33 11t-33 3h-90v-158h90z" />
    <glyph glyph-name="Gamma" unicode="&#x393;" horiz-adv-x="535" 
d="M60 667h452v-155h-275v-512h-177v667z" />
    <glyph glyph-name="uni0394" unicode="&#x394;" horiz-adv-x="688" 
d="M20 138l237 529h174l237 -529v-138h-648v138zM479 155l-138 338l-134 -338h272z" />
    <glyph glyph-name="Epsilon" unicode="&#x395;" horiz-adv-x="593" 
d="M60 667h480v-153h-303v-103h249v-144h-249v-114h324v-153h-501v667z" />
    <glyph glyph-name="Zeta" unicode="&#x396;" horiz-adv-x="623" 
d="M30 137l337 375h-320v155h539v-136l-331 -376h338v-155h-563v137z" />
    <glyph glyph-name="Eta" unicode="&#x397;" horiz-adv-x="720" 
d="M60 667h177v-244h246v244h177v-667h-177v261h-246v-261h-177v667z" />
    <glyph glyph-name="Theta" unicode="&#x398;" horiz-adv-x="762" 
d="M381 -16q-75 0 -138.5 26.5t-110 73t-72.5 111t-26 140.5t26 140.5t72.5 111t110 72.5t138.5 26t139 -26t110 -72.5t72 -111t26 -140.5t-26 -140.5t-72 -111t-110 -73t-139 -26.5zM381 146q40 0 71 15t52.5 40.5t32.5 60t11 73.5t-11 73.5t-32.5 60t-52.5 40.5t-71 15
t-71 -15t-52.5 -40.5t-32.5 -60t-11 -73.5t11 -73.5t32.5 -60t52.5 -40.5t71 -15zM269 400h224v-128h-224v128z" />
    <glyph glyph-name="Iota" unicode="&#x399;" horiz-adv-x="297" 
d="M60 667h177v-667h-177v667z" />
    <glyph glyph-name="Kappa" unicode="&#x39a;" horiz-adv-x="688" 
d="M60 667h177v-250l199 250h207l-222 -257l257 -410h-215l-163 270l-63 -74v-196h-177v667z" />
    <glyph glyph-name="Lambda" unicode="&#x39b;" horiz-adv-x="686" 
d="M483 0l-144 461l-140 -461h-189l239 667h188l239 -667h-193z" />
    <glyph glyph-name="Mu" unicode="&#x39c;" horiz-adv-x="814" 
d="M77 667h169l162 -291l159 291h170l31 -667h-179l-16 391l-117 -228h-97l-130 228l-13 -391h-170z" />
    <glyph glyph-name="Nu" unicode="&#x39d;" horiz-adv-x="712" 
d="M60 667h161l256 -372v372h175v-667h-151l-266 383v-383h-175v667z" />
    <glyph glyph-name="Xi" unicode="&#x39e;" horiz-adv-x="614" 
d="M54 512v155h506v-155h-506zM44 155h526v-155h-526v155zM95 410h425v-148h-425v148z" />
    <glyph glyph-name="Omicron" unicode="&#x39f;" horiz-adv-x="762" 
d="M381 -16q-75 0 -138.5 26.5t-110 73t-72.5 111t-26 140.5t26 140.5t72.5 111t110 72.5t138.5 26t139 -26t110 -72.5t72 -111t26 -140.5t-26 -140.5t-72 -111t-110 -73t-139 -26.5zM381 150q39 0 69.5 14.5t51.5 39.5t32 59t11 72t-11 72t-32 59t-51.5 39.5t-69.5 14.5
t-69.5 -14.5t-51.5 -39.5t-32 -59t-11 -72t11 -72t32 -59t51.5 -39.5t69.5 -14.5z" />
    <glyph glyph-name="Pi" unicode="&#x3a0;" horiz-adv-x="715" 
d="M478 0v512h-241v-512h-177v667h595v-667h-177z" />
    <glyph glyph-name="Rho" unicode="&#x3a1;" horiz-adv-x="597" 
d="M60 667h272q54 0 97.5 -14.5t74.5 -42t48 -69t17 -95.5q0 -51 -17.5 -92.5t-48 -71t-73 -45t-93.5 -15.5h-104v-222h-173v667zM317 361q36 0 57 23t21 59q0 38 -20 61t-59 23h-83v-166h84z" />
    </font>
</defs>
</svg>
